SplineFontDB: 3.0
FontName: Homebrews
FullName: Homebrews
FamilyName: Homebrews
Weight: Regular
Copyright: Copyright (c) 2016, Ron Brogan <ronaldbrogan@hotmail.com>
UComments: "2016-2-12: Created with FontForge (http://fontforge.org)"
Version: 001.000
ItalicAngle: 0
UnderlinePosition: -100
UnderlineWidth: 50
Ascent: 800
Descent: 200
InvalidEm: 0
LayerCount: 2
Layer: 0 0 "Back" 1
Layer: 1 0 "Fore" 0
XUID: [1021 344 419151108 11867]
StyleMap: 0x0000
FSType: 0
OS2Version: 0
OS2_WeightWidthSlopeOnly: 0
OS2_UseTypoMetrics: 1
CreationTime: 1455335321
ModificationTime: 1455483859
OS2TypoAscent: 0
OS2TypoAOffset: 1
OS2TypoDescent: 0
OS2TypoDOffset: 1
OS2TypoLinegap: 90
OS2WinAscent: 0
OS2WinAOffset: 1
OS2WinDescent: 0
OS2WinDOffset: 1
HheadAscent: 0
HheadAOffset: 1
HheadDescent: 0
HheadDOffset: 1
MarkAttachClasses: 1
DEI: 91125
Encoding: ISO8859-1
UnicodeInterp: none
NameList: AGL For New Fonts
DisplaySize: -96
AntiAlias: 1
FitToEm: 0
WinInfo: 64 16 4
BeginPrivate: 0
EndPrivate
BeginChars: 256 59

StartChar: A
Encoding: 65 65 0
Width: 456
VWidth: 0
Flags: W
HStem: 502.5 20G<205.17 360.368>
LayerCount: 2
Fore
SplineSet
405.28125 335.224609375 m 0
 406.43359375 325.751953125 407.0390625 316.337890625 406.970703125 307.001953125 c 0
 407.174804688 279.84375 402.68359375 252.646484375 388.620117188 225.576171875 c 0
 366.666992188 183.271484375 339.8125 150.975585938 296.002929688 134.90234375 c 0
 293.112304688 133.525390625 290.202148438 132.158203125 287.155273438 130.986328125 c 0
 281.696289062 128.896484375 276.94140625 126.200195312 272.799804688 123.006835938 c 2
 184.177734375 123.006835938 l 2
 180.036132812 126.201171875 175.270507812 128.896484375 169.826171875 130.986328125 c 0
 166.76953125 132.158203125 163.864257812 133.525390625 160.978515625 134.90234375 c 0
 117.1640625 150.975585938 90.3095703125 183.271484375 68.3515625 225.576171875 c 0
 54.2978515625 252.647460938 49.806640625 279.853515625 50.005859375 307.001953125 c 0
 49.9423828125 316.337890625 50.5380859375 325.772460938 51.6953125 335.224609375 c 0
 52.736328125 344.990234375 54.1474609375 354.755859375 55.7578125 364.501953125 c 0
 63.541015625 411.533203125 84.2744140625 456.416015625 92.2236328125 503.447265625 c 0
 94.4248046875 516.473632812 92.677734375 505.869140625 95.7197265625 522.451171875 c 1
 144.840820312 522.451171875 181.852539062 522.5 228.48828125 522.5 c 0
 275.124023438 522.5 310.670898438 522.5 359.782226562 522.5 c 1
 360.954101562 514.4140625 362.838867188 513.837890625 364.752929688 503.447265625 c 0
 373.424804688 456.552734375 393.435546875 411.533203125 401.217773438 364.501953125 c 0
 402.830078125 354.755859375 404.24609375 344.991210938 405.28125 335.224609375 c 0
EndSplineSet
EndChar

StartChar: B
Encoding: 66 66 1
Width: 355
VWidth: 0
Flags: W
VStem: 51.5732 251.826
LayerCount: 2
Fore
SplineSet
51.5732421875 543.212890625 m 1
 135.420898438 543.212890625 217.59765625 543.212890625 303.399414062 543.212890625 c 1
 303.399414062 489.024414062 308.272460938 524.8046875 304.434570312 472.608398438 c 0
 301.46484375 432.099609375 290.458984375 392.159179688 282.3046875 352.120117188 c 0
 276.563476562 323.887695312 266.241210938 296.163085938 263.92578125 267.735351562 c 0
 259.990234375 219.405273438 248.653320312 171.944335938 251.69921875 122.608398438 c 0
 253.935546875 86.2509765625 253.02734375 50.390625 269.139648438 16.3291015625 c 0
 275.555664062 2.7353515625 266.678710938 -12.646484375 252.021484375 -12.9677734375 c 0
 202.666015625 -14.0615234375 153.221679688 -14.697265625 103.924804688 -12.7236328125 c 0
 89.482421875 -12.158203125 85.4091796875 -3.2216796875 91.3759765625 15.83984375 c 0
 109.784179688 74.8046875 109.39453125 137.5 101.541992188 197.333984375 c 0
 94.5400390625 250.80078125 86.7958984375 304.8046875 73.5927734375 358.10546875 c 0
 51.9248046875 445.615234375 46.9736328125 458.837890625 51.5732421875 543.212890625 c 1
EndSplineSet
EndChar

StartChar: C
Encoding: 67 67 2
Width: 469
VWidth: 0
Flags: W
HStem: -14.666 58.5645<336.153 412.534>
VStem: 50.0039 241.64<335.09 532.815>
LayerCount: 2
Fore
SplineSet
102.279296875 -13.57421875 m 1
 102.279296875 41.845703125 99.759765625 92.91015625 103.0703125 143.5546875 c 0
 105.736328125 184.2578125 96.76171875 223.18359375 90.0732421875 261.856445312 c 0
 80.5517578125 317.01171875 68.021484375 335.80078125 57.513671875 390.870117188 c 0
 49.818359375 431.142578125 49.984375 429.140625 50.00390625 468.682617188 c 0
 50.04296875 495.684570312 57.142578125 522.706054688 61.8583984375 555.000976562 c 1
 126.516601562 555.000976562 191.096679688 555.811523438 255.608398438 554.092773438 c 0
 264.778320312 553.829101562 279.602539062 542.609375 281.526367188 534.141601562 c 0
 287.875 505.861328125 295.755859375 475.6171875 291.643554688 447.793945312 c 0
 284.641601562 400.420898438 281.340820312 393.575195312 275.520507812 346.241210938 c 0
 268.625976562 290.09765625 246.565429688 272.110351562 250.891601562 214.541992188 c 0
 251.438476562 207.618164062 252.844726562 198.858398438 249.524414062 193.877929688 c 0
 237.494140625 175.870117188 237.932617188 160.021484375 247.787109375 140.430664062 c 0
 259.505859375 117.090820312 268.158203125 94.279296875 295.990234375 83.6826171875 c 0
 324.309570312 72.8916015625 350.78515625 57.2470703125 378.137695312 43.8984375 c 0
 382.727539062 41.65234375 388.801757812 41.3388671875 392.336914062 38.126953125 c 0
 403.518554688 27.9609375 423.411132812 20.59765625 418.831054688 2.736328125 c 0
 414.26953125 -14.91015625 395.715820312 -14.958984375 379.172851562 -14.666015625 c 0
 342.180664062 -14.01171875 305.188476562 -14.65625 268.206054688 -14.3046875 c 0
 259.73828125 -14.2265625 250.090820312 -14.4912109375 242.98046875 -10.75 c 0
 221.30078125 0.646484375 204.46484375 2.873046875 179.8359375 -11.47265625 c 0
 161.615234375 -22.119140625 132.201171875 -13.57421875 102.279296875 -13.57421875 c 1
EndSplineSet
EndChar

StartChar: D
Encoding: 68 68 3
Width: 553
VWidth: 0
Flags: W
VStem: 251.515 51.1719<37.6843 128.317>
LayerCount: 2
Fore
SplineSet
304.041992188 128.486328125 m 0
 303.407226562 124.873046875 302.918945312 121.083984375 302.686523438 116.962890625 c 0
 300.850585938 83.4873046875 300.518554688 50.25390625 308.409179688 37.05078125 c 0
 312.471679688 32.783203125 317.344726562 29.12109375 323.213867188 26.171875 c 0
 359.11328125 8.2724609375 396.41796875 7.4423828125 438.234375 -10.99609375 c 0
 439.611328125 -11.494140625 440.98828125 -11.982421875 442.35546875 -12.5 c 1
 442.286132812 -12.5693359375 442.217773438 -12.626953125 442.139648438 -12.71484375 c 1
 447.7265625 -15.1962890625 453.096679688 -17.509765625 458.859375 -20.09765625 c 1
 450.879882812 -20.09765625 443.194335938 -20.09765625 435.254882812 -20.09765625 c 0
 332.032226562 -20.09765625 228.565429688 -20.09765625 118.946289062 -20.09765625 c 0
 111.026367188 -20.09765625 103.321289062 -20.09765625 95.341796875 -20.09765625 c 1
 101.104492188 -17.509765625 106.475585938 -15.1953125 112.061523438 -12.71484375 c 1
 111.983398438 -12.626953125 111.924804688 -12.568359375 111.866210938 -12.5 c 1
 113.223632812 -11.982421875 114.6015625 -11.494140625 115.967773438 -10.99609375 c 0
 157.784179688 7.4423828125 195.108398438 8.2724609375 230.997070312 26.171875 c 0
 236.846679688 29.12109375 241.73046875 32.783203125 245.801757812 37.05078125 c 0
 253.703125 50.25390625 253.3515625 83.486328125 251.514648438 116.962890625 c 0
 251.299804688 121.083984375 250.8125 124.873046875 250.166992188 128.486328125 c 0
 244.716796875 144.033203125 236.280273438 158.075195312 212.979492188 164.178710938 c 0
 212.75390625 164.198242188 212.569335938 164.276367188 212.354492188 164.295898438 c 0
 210.685546875 164.548828125 209.034179688 165.056640625 207.374023438 165.653320312 c 0
 192.745117188 168.377929688 178.575195312 173.220703125 164.991210938 179.530273438 c 0
 132.745117188 192.547851562 110.6953125 210.418945312 94.0927734375 235.467773438 c 0
 78.056640625 255.467773438 65.6552734375 278.749023438 58.1552734375 304.286132812 c 0
 52.5693359375 320.985351562 49.4638671875 337.909179688 50.3623046875 353.30859375 c 0
 49.8544921875 369.452148438 49.0244140625 386.620117188 54.716796875 403.015625 c 0
 76.923828125 467.048828125 72.9794921875 474.333984375 101.630859375 530.935546875 c 0
 110.908203125 549.255859375 115.772460938 565.565429688 144.62890625 564.12890625 c 0
 154.833984375 563.611328125 186.258789062 563.397460938 196.484375 563.083984375 c 0
 223.348632812 562.594726562 250.223632812 562.174804688 277.098632812 562.029296875 c 0
 303.973632812 562.17578125 361.5234375 562.595703125 388.387695312 563.083984375 c 0
 398.622070312 563.397460938 408.846679688 563.611328125 419.081054688 564.12890625 c 0
 447.909179688 565.565429688 452.508789062 549.138671875 462.049804688 530.935546875 c 0
 486.357421875 484.530273438 480.799804688 489.276367188 499.482421875 403.015625 c 0
 503.163085938 386.052734375 504.35546875 369.452148438 503.836914062 353.30859375 c 0
 504.735351562 337.909179688 501.629882812 320.985351562 496.043945312 304.286132812 c 0
 488.564453125 278.749023438 476.142578125 255.467773438 460.125976562 235.467773438 c 0
 443.504882812 210.418945312 424.540039062 194.802734375 389.208007812 179.530273438 c 0
 375.633789062 173.220703125 361.454101562 168.377929688 346.825195312 165.653320312 c 0
 345.174804688 165.057617188 343.525390625 164.549804688 341.844726562 164.295898438 c 0
 341.629882812 164.27734375 341.454101562 164.19921875 341.219726562 164.178710938 c 0
 317.918945312 158.076171875 309.500976562 144.033203125 304.041992188 128.486328125 c 0
EndSplineSet
EndChar

StartChar: E
Encoding: 69 69 4
Width: 520
VWidth: 0
Flags: W
VStem: 131.001 261.698<-17.167 277.255> 142.114 232.716<33.1398 254.134>
LayerCount: 2
Fore
SplineSet
381.587890625 105.703125 m 0x40
 388.130859375 75.78125 385.171875 42.568359375 407.533203125 16.416015625 c 0
 418.71484375 3.369140625 405.677734375 -6.03515625 396.263671875 -12.412109375 c 0
 395.228515625 -13.1240234375 393.98828125 -13.5927734375 392.77734375 -14.1005859375 c 0
 392.767578125 -15.1259765625 392.69921875 -16.1123046875 392.69921875 -17.1669921875 c 1
 347.6015625 -17.1669921875 304.33984375 -17.197265625 261.859375 -17.1767578125 c 0
 219.379882812 -17.1962890625 176.1171875 -17.1669921875 131.000976562 -17.1669921875 c 1x80
 131.000976562 -16.11328125 130.951171875 -15.1259765625 130.922851562 -14.1005859375 c 0
 129.702148438 -13.59375 128.481445312 -13.125 127.436523438 -12.412109375 c 0
 118.032226562 -6.03515625 104.975585938 3.369140625 116.157226562 16.416015625 c 0
 138.541015625 42.568359375 135.571289062 75.78125 142.114257812 105.703125 c 0
 148.852539062 136.484375 146.108398438 169.27734375 148.873046875 201.064453125 c 0
 150.748046875 222.840820312 140.6015625 236.415039062 127.876953125 254.139648438 c 0
 55.5322265625 354.833007812 32.2021484375 427.538085938 63.7353515625 530.663085938 c 0
 73.2568359375 561.795898438 88.4423828125 571.502929688 120.942382812 571.639648438 c 0
 126.137695312 571.668945312 131.323242188 571.668945312 136.518554688 571.678710938 c 0
 138.198242188 571.689453125 139.809570312 571.717773438 141.616210938 571.717773438 c 0
 160.366210938 571.766601562 179.116210938 571.766601562 197.866210938 571.81640625 c 0
 219.205078125 571.834960938 240.532226562 571.893554688 261.860351562 571.883789062 c 0
 283.169921875 571.893554688 304.5078125 571.8359375 325.825195312 571.81640625 c 0
 344.5859375 571.766601562 363.345703125 571.766601562 382.095703125 571.717773438 c 0
 383.892578125 571.717773438 385.493164062 571.689453125 387.173828125 571.678710938 c 0
 392.37890625 571.668945312 397.573242188 571.668945312 402.778320312 571.639648438 c 0
 435.25 571.502929688 451.909179688 562.206054688 459.966796875 530.663085938 c 0
 486.108398438 428.3203125 465.102539062 348.232421875 395.825195312 254.139648438 c 0
 382.876953125 236.54296875 372.944335938 222.840820312 374.830078125 201.064453125 c 0
 377.583984375 169.27734375 374.849609375 136.484375 381.587890625 105.703125 c 0x40
EndSplineSet
EndChar

StartChar: F
Encoding: 70 70 5
Width: 456
VWidth: 0
Flags: W
LayerCount: 2
Fore
SplineSet
50 483.505859375 m 1
 406.390625 483.505859375 l 1
 341.68359375 -2.6171875 l 1
 294.750976562 -4.66796875 294.477539062 -6.5234375 227.573242188 -5.6640625 c 0
 192.124023438 -7.03125 159.594726562 -4.2275390625 113.461914062 -2.2255859375 c 1
 50 483.505859375 l 1
EndSplineSet
EndChar

StartChar: G
Encoding: 71 71 6
Width: 303
VWidth: 0
Flags: W
HStem: -9.13086 21G<68.3037 234.944>
VStem: 50.3545 202.538<295.283 426.279 437.216 511.405> 139.348 24.5527<37.3588 175.359>
LayerCount: 2
Fore
SplineSet
252.892578125 426.279296875 m 0xc0
 256.037109375 349.4140625 238.234375 299.82421875 200.98046875 234.637695312 c 0
 173.342773438 186.2890625 164.3984375 138.06640625 163.900390625 83.7685546875 c 0
 163.538085938 44.5703125 182.678710938 22.8896484375 209.592773438 3.06640625 c 0
 216.311523438 -1.884765625 226.545898438 -2.041015625 235.159179688 -4.39453125 c 1
 234.661132812 -5.625 234.171875 -6.8564453125 233.68359375 -8.0859375 c 0
 234.104492188 -8.4384765625 234.534179688 -8.7314453125 234.944335938 -9.130859375 c 1
 234.397460938 -9.130859375 233.821289062 -9.130859375 233.263671875 -9.130859375 c 0
 178.831054688 -9.130859375 124.426757812 -9.130859375 69.9931640625 -9.130859375 c 0
 69.4267578125 -9.130859375 68.861328125 -9.130859375 68.3037109375 -9.130859375 c 1
 68.7138671875 -8.7314453125 69.14453125 -8.4384765625 69.564453125 -8.0859375 c 0
 69.0751953125 -6.8564453125 68.5869140625 -5.625 68.0888671875 -4.39453125 c 1
 76.7021484375 -2.041015625 86.9365234375 -1.884765625 93.6552734375 3.06640625 c 0
 120.569335938 22.8896484375 139.71875 44.5703125 139.34765625 83.7685546875 c 0xa0
 138.860351562 138.06640625 129.905273438 186.288085938 102.267578125 234.637695312 c 0
 65.01171875 299.82421875 47.208984375 349.4140625 50.3544921875 426.279296875 c 0
 50.4609375 428.818359375 50.451171875 431.357421875 50.548828125 433.896484375 c 0
 49.4072265625 467.791992188 50.3544921875 402.635742188 51.349609375 437.215820312 c 0
 51.134765625 461.43359375 50.8515625 485.985351562 50.8515625 511.405273438 c 1
 51.5068359375 511.405273438 52.1220703125 511.405273438 52.7861328125 511.405273438 c 0
 121.223632812 511.405273438 184.016601562 511.405273438 250.461914062 511.405273438 c 0
 251.125976562 511.405273438 251.741210938 511.405273438 252.405273438 511.405273438 c 1
 252.405273438 485.986328125 252.112304688 461.434570312 251.897460938 437.215820312 c 0
 252.892578125 402.635742188 253.849609375 467.791992188 252.698242188 433.896484375 c 0
 252.794921875 431.357421875 252.794921875 428.818359375 252.892578125 426.279296875 c 0xc0
EndSplineSet
EndChar

StartChar: H
Encoding: 72 72 7
Width: 668
VWidth: 0
Flags: W
HStem: -9.15137 21G<50 111.739> 463.379 49.2578<427.765 567.733>
VStem: 50 399.863<-7.15338 127.73 183.008 345.989> 63.3994 362.344<186.84 459.774>
LayerCount: 2
Fore
SplineSet
618.0390625 304.31640625 m 0xd0
 623.37109375 253.056640625 606.41796875 208.203125 553.720703125 183.124023438 c 0
 527.470703125 170.624023438 504.21875 151.639648438 480.224609375 134.706054688 c 0
 459.853515625 120.310546875 444.374023438 103.259765625 449.384765625 74.6962890625 c 0
 451.77734375 61.0146484375 450.342773438 46.5712890625 449.86328125 32.4990234375 c 0
 448.69140625 -1.2412109375 441.81640625 -8.7900390625 406.748046875 -8.9560546875 c 0
 290.107421875 -9.4931640625 173.477539062 -9.1513671875 50 -9.1513671875 c 1xe0
 50 50.8984375 50.458984375 116.717773438 51.962890625 158.65234375 c 0
 53.8779296875 212.20703125 60.8408203125 319.21875 63.3994140625 372.75390625 c 0
 66.5146484375 437.890625 69.3759765625 422.587890625 73.9853515625 512.83203125 c 1
 129.844726562 512.83203125 183.653320312 512.83203125 237.442382812 512.83203125 c 0
 283.741210938 512.83203125 424.043945312 512.763671875 424.043945312 512.763671875 c 1
 424.151367188 512.05078125 l 1
 450.01171875 511.7578125 435.772460938 512.2265625 471.290039062 512.63671875 c 0
 497.413085938 512.94921875 523.615234375 512.724609375 549.767578125 512.20703125 c 0
 586.06640625 511.455078125 585.59765625 509.35546875 595.6953125 472.734375 c 0
 610.94921875 417.48046875 612.19921875 360.467773438 618.0390625 304.31640625 c 0xd0
532.1796875 227.412109375 m 0
 557.4140625 243.876953125 575.578125 265.5859375 571.329101562 302.373046875 c 0
 566.495117188 344.139648438 570.870117188 386.9140625 569.913085938 429.23828125 c 0
 569.395507812 452.314453125 560.108398438 461.600585938 537.774414062 462.822265625 c 0
 515.655273438 464.04296875 493.448242188 463.76953125 471.280273438 463.37890625 c 0
 431.866210938 462.67578125 426.807617188 457.412109375 425.743164062 418.427734375 c 0xd0
 423.634765625 340.9765625 439.640625 264.84375 443.17578125 183.0078125 c 1
 474.0546875 198.076171875 505.0703125 209.74609375 532.1796875 227.412109375 c 0
EndSplineSet
EndChar

StartChar: I
Encoding: 73 73 8
Width: 356
VWidth: 0
Flags: W
HStem: -9.43359 21G<170.552 186.421> 492.852 20G<72.291 77.9746 279.005 284.684>
VStem: 52.3447 254.63
LayerCount: 2
Fore
SplineSet
306.974609375 509.70703125 m 1
 304.627929688 500.390625 l 2
 297.518554688 470.44921875 298.348632812 441.71875 295.282226562 412.4609375 c 0
 292.010742188 381.259765625 286.512695312 350.25390625 283.524414062 319.00390625 c 0
 278.631835938 267.734375 279.813476562 215.322265625 269.041992188 165.419921875 c 0
 262.2265625 133.84765625 268.310546875 99.16015625 256.043945312 72.71484375 c 0
 243.486328125 45.703125 253.65234375 36.328125 269.228515625 23.33984375 c 0
 275.0390625 18.49609375 283.3203125 16.69921875 289.70703125 12.36328125 c 0
 292.3046875 10.595703125 294.892578125 4.931640625 293.896484375 2.548828125 c 0
 292.012695312 -2.01171875 287.559570312 -8.8974609375 284.12109375 -8.92578125 c 0
 264.755859375 -9.091796875 249.326171875 -9.21875 235.615234375 -9.287109375 c 1
 235.673828125 -9.326171875 235.72265625 -9.375 235.78125 -9.423828125 c 1
 212.1875 -9.423828125 194.35546875 -9.43359375 178.486328125 -9.43359375 c 0
 162.6171875 -9.43359375 144.794921875 -9.423828125 121.201171875 -9.423828125 c 1
 121.260742188 -9.375 121.298828125 -9.326171875 121.3671875 -9.287109375 c 1
 107.65625 -9.21875 92.2158203125 -9.091796875 72.861328125 -8.92578125 c 0
 69.423828125 -8.896484375 64.9609375 -2.01171875 63.076171875 2.548828125 c 0
 62.080078125 4.9306640625 64.66796875 10.5947265625 67.275390625 12.36328125 c 0
 73.65234375 16.69921875 81.943359375 18.49609375 87.75390625 23.33984375 c 0
 103.331054688 36.328125 113.487304688 45.703125 100.938476562 72.71484375 c 0
 88.662109375 99.16015625 94.74609375 133.84765625 87.9306640625 165.419921875 c 0
 77.1591796875 215.322265625 78.3408203125 267.734375 73.4482421875 319.00390625 c 0
 70.4697265625 350.25390625 64.9609375 381.259765625 61.6904296875 412.4609375 c 0
 58.6328125 441.71875 59.453125 470.450195312 52.3447265625 500.390625 c 2
 50 509.70703125 l 1
 57.3447265625 510.263671875 64.6787109375 510.634765625 72.001953125 511.015625 c 0
 72.12890625 511.58203125 72.2275390625 512.364257812 72.3544921875 512.8515625 c 0
 83.5947265625 512.540039062 94.8544921875 512.392578125 106.114257812 512.315429688 c 0
 130.303710938 512.8515625 154.423828125 512.783203125 178.487304688 512.587890625 c 0
 202.549804688 512.784179688 226.670898438 512.8515625 250.870117188 512.315429688 c 0
 262.129882812 512.392578125 273.379882812 512.5390625 284.629882812 512.8515625 c 0
 284.73828125 512.364257812 284.85546875 511.58203125 284.97265625 511.015625 c 0
 292.306640625 510.634765625 299.629882812 510.263671875 306.974609375 509.70703125 c 1
EndSplineSet
EndChar

StartChar: J
Encoding: 74 74 9
Width: 481
VWidth: 0
Flags: W
HStem: -9.90332 21G<124.129 143.567 337.889 357.333>
LayerCount: 2
Fore
SplineSet
423.771484375 500.83984375 m 0
 429.806640625 491.89453125 431.9453125 481.923828125 431.233398438 472.022460938 c 0
 432.688476562 454.825195312 427.25 436.524414062 408.284179688 424.43359375 c 0
 407.513671875 423.946289062 406.927734375 423.388671875 406.25390625 422.8515625 c 0
 399.231445312 410.7421875 372.123046875 37.83203125 365.237304688 13.37890625 c 0
 364.084960938 6.1708984375 362.922851562 -0.99609375 361.848632812 -8.18359375 c 0
 360.344726562 -8.310546875 359.045898438 -8.4482421875 357.727539062 -8.59375 c 0
 357.54296875 -9.0244140625 357.42578125 -9.47265625 357.239257812 -9.9033203125 c 0
 318.5390625 -9.9033203125 279.583007812 -9.8740234375 240.725585938 -9.8642578125 c 0
 201.877929688 -9.8740234375 162.913085938 -9.9033203125 124.221679688 -9.9033203125 c 0
 124.036132812 -9.47265625 123.909179688 -9.0244140625 123.733398438 -8.59375 c 0
 122.416015625 -8.4482421875 121.116210938 -8.310546875 119.612304688 -8.18359375 c 0
 118.528320312 -0.99609375 117.38671875 6.171875 116.21484375 13.37890625 c 0
 109.33984375 37.83203125 82.2294921875 410.743164062 75.208984375 422.8515625 c 0
 74.5341796875 423.388671875 73.9482421875 423.946289062 73.16796875 424.43359375 c 0
 54.212890625 436.524414062 48.7822265625 454.825195312 50.21875 472.022460938 c 0
 49.515625 481.923828125 51.64453125 491.89453125 57.689453125 500.83984375 c 0
 66.830078125 532.6171875 63.1572265625 500.966796875 63.548828125 508.75 c 0
 64.06640625 519.2578125 63.646484375 501.77734375 63.646484375 515.8203125 c 0
 66.72265625 515.99609375 69.6728515625 516.162109375 72.611328125 516.357421875 c 0
 76.8310546875 517.5390625 82.89453125 517.91015625 91.400390625 517.94921875 c 0
 96.341796875 517.958984375 101.2734375 517.94921875 106.21484375 517.958984375 c 0
 106.29296875 517.958984375 106.37109375 517.96875 106.458984375 517.96875 c 0
 115.462890625 517.978515625 124.466796875 517.978515625 133.4609375 517.989257812 c 0
 169.22265625 518.067382812 204.984375 518.14453125 240.7265625 518.116210938 c 0
 276.478515625 518.14453125 312.23046875 518.067382812 348.001953125 517.989257812 c 0
 356.99609375 517.978515625 366 517.978515625 375.00390625 517.96875 c 0
 375.08203125 517.96875 375.159179688 517.958984375 375.248046875 517.958984375 c 0
 380.188476562 517.94921875 385.12109375 517.958984375 390.061523438 517.94921875 c 0
 398.557617188 517.91015625 404.622070312 517.5390625 408.850585938 516.357421875 c 0
 411.790039062 516.162109375 414.739257812 515.99609375 417.805664062 515.8203125 c 0
 417.805664062 501.77734375 417.35546875 519.2578125 417.913085938 508.75 c 0
 418.224609375 502.880859375 417.7265625 511.865234375 423.771484375 500.83984375 c 0
EndSplineSet
EndChar

StartChar: K
Encoding: 75 75 10
Width: 442
VWidth: 0
Flags: W
HStem: -13.7695 23.5449<89.3729 122.13 318.704 351.458>
LayerCount: 2
Fore
SplineSet
342.713867188 9.775390625 m 0
 347.977539062 6.708984375 350.497070312 -1.07421875 354.279296875 -6.7001953125 c 1
 349.307617188 -9.1611328125 344.375976562 -13.7021484375 339.385742188 -13.76953125 c 0
 299.737304688 -14.3466796875 260.079101562 -14.1220703125 220.420898438 -14.1220703125 c 0
 180.752929688 -14.1220703125 141.103515625 -14.345703125 101.446289062 -13.76953125 c 0
 96.455078125 -13.7021484375 91.533203125 -9.1611328125 86.552734375 -6.7001953125 c 1
 90.33203125 -1.0751953125 92.8515625 6.708984375 98.125 9.775390625 c 0
 116.7578125 20.60546875 139.609375 26.2685546875 154.86328125 40.37109375 c 0
 185.731445312 68.96484375 192.6171875 141.2890625 169.873046875 179.462890625 c 0
 162.861328125 191.241210938 155.106445312 202.63671875 146.893554688 213.731445312 c 0
 134.990234375 226.524414062 124.287109375 240 114.852539062 254.140625 c 0
 75.576171875 304.327148438 55.44921875 361.34765625 51.11328125 422.431640625 c 0
 51.005859375 423.448242188 50.99609375 424.47265625 50.908203125 425.489257812 c 0
 50.712890625 428.624023438 50.5654296875 431.7578125 50.44921875 434.903320312 c 0
 50.361328125 437.59765625 50.1845703125 440.274414062 50.205078125 442.96875 c 0
 50.13671875 448.282226562 49.7265625 453.6328125 50.302734375 458.985351562 c 0
 55.126953125 503.8671875 49.619140625 474.1796875 58.056640625 518.26171875 c 0
 64.384765625 551.298828125 68.046875 554.9609375 99.8828125 555.25390625 c 0
 102.626953125 555.283203125 105.380859375 555.25390625 108.125 555.283203125 c 0
 109.012695312 555.29296875 109.736328125 555.37109375 110.654296875 555.37109375 c 0
 132.762695312 555.439453125 154.8828125 555.48828125 176.9921875 555.537109375 c 0
 186.416015625 555.546875 195.848632812 555.625 205.272460938 555.595703125 c 0
 214.697265625 555.625 224.129882812 555.546875 233.553710938 555.537109375 c 0
 255.6640625 555.48828125 315.95703125 555.439453125 338.065429688 555.37109375 c 0
 338.993164062 555.37109375 339.706054688 555.29296875 340.594726562 555.283203125 c 0
 343.338867188 555.25390625 346.092773438 555.283203125 348.836914062 555.25390625 c 0
 380.672851562 554.9609375 387.967773438 551.787109375 390.663085938 518.26171875 c 0
 394.120117188 475.293945312 390.536132812 458.985351562 390.536132812 458.985351562 c 1
 390.536132812 458.985351562 390.702148438 448.282226562 390.624023438 442.96875 c 0
 390.643554688 440.274414062 390.467773438 437.59765625 390.389648438 434.903320312 c 0
 390.272460938 431.758789062 390.125976562 428.624023438 389.930664062 425.489257812 c 0
 389.833007812 424.47265625 389.823242188 423.448242188 389.715820312 422.431640625 c 0
 385.380859375 361.34765625 365.25390625 304.327148438 325.986328125 254.140625 c 0
 316.541992188 240.000976562 305.848632812 226.524414062 293.934570312 213.731445312 c 0
 285.73046875 202.63671875 277.967773438 191.240234375 270.956054688 179.462890625 c 0
 248.221679688 141.2890625 255.096679688 68.96484375 285.975585938 40.37109375 c 0
 301.229492188 26.2685546875 324.071289062 20.60546875 342.713867188 9.775390625 c 0
EndSplineSet
EndChar

StartChar: Q
Encoding: 81 81 11
Width: 459
VWidth: 0
Flags: W
HStem: -22.9951 3<88.8613 371.106> 619.986 3<89.0898 370.879>
VStem: 50.0068 3<287.058 338.865> 406.967 3<287.053 338.863>
LayerCount: 2
Fore
SplineSet
269.131835938 27.099609375 m 0
 260.912109375 33.4072265625 257.999023438 41.9345703125 258.876953125 54.7060546875 c 0
 259.013671875 56.6015625 259.166992188 58.486328125 259.3046875 60.4296875 c 0
 261.740234375 79.857421875 264.764648438 99.435546875 269.607421875 118.310546875 c 0
 270.350585938 121.232421875 272.458984375 124.569335938 275.3046875 127.584960938 c 0
 279.330078125 130.678710938 283.8671875 133.228515625 289.189453125 135.26953125 c 0
 292.302734375 136.466796875 295.185546875 137.822265625 298.081054688 139.202148438 c 0
 342.357421875 155.45703125 369.4140625 188.119140625 391.45703125 230.568359375 c 0
 405.641601562 257.899414062 410.171875 285.388671875 409.966796875 312.696289062 c 1
 410.034179688 322.0625 409.422851562 331.592773438 408.267578125 341.088867188 c 1
 407.231445312 350.865234375 405.807617188 360.682617188 404.194335938 370.44140625 c 0
 396.3671875 417.741210938 375.623046875 462.626953125 367.728515625 509.380859375 c 0
 361.784179688 544.633789062 358.83203125 582.03515625 374.4765625 620.875976562 c 0
 375.306640625 622.936523438 l 1
 373.084960938 622.936523438 l 0
 323.965820312 622.936523438 276.62109375 622.986328125 229.984375 622.986328125 c 0
 183.34765625 622.986328125 136.004882812 622.936523438 86.8837890625 622.936523438 c 0
 84.662109375 622.936523438 l 1
 85.4921875 620.875976562 l 0
 101.141601562 582.03515625 98.1845703125 544.633789062 92.240234375 509.381835938 c 0
 84.349609375 462.627929688 63.6015625 417.743164062 55.7744140625 370.440429688 c 0
 54.1611328125 360.680664062 52.7470703125 350.8671875 51.701171875 341.08984375 c 1
 50.5458984375 331.6015625 49.9384765625 322.063476562 50.0068359375 312.696289062 c 1
 49.8056640625 285.399414062 54.3369140625 257.901367188 68.515625 230.568359375 c 0
 90.5537109375 188.119140625 117.610351562 155.45703125 161.890625 139.202148438 c 0
 164.780273438 137.823242188 167.663085938 136.465820312 170.788085938 135.26953125 c 0
 176.098632812 133.229492188 180.64453125 130.677734375 184.6640625 127.584960938 c 0
 187.509765625 124.5703125 189.619140625 121.233398438 190.366210938 118.30859375 c 0
 195.209960938 99.4091796875 198.21484375 79.953125 200.672851562 60.4306640625 c 0
 200.805664062 58.490234375 200.954101562 56.599609375 201.08984375 54.7119140625 c 0
 201.967773438 41.9326171875 199.048828125 33.4052734375 190.845703125 27.099609375 c 0
 187.071289062 24.60546875 182.525390625 22.5126953125 176.986328125 20.6396484375 c 0
 146.958007812 10.5419921875 115.829101562 0.806640625 82.8154296875 -20.23046875 c 0
 78.4755859375 -22.9951171875 l 1
 381.490234375 -22.9951171875 l 1
 377.15234375 -20.23046875 l 0
 344.143554688 0.8056640625 313.006835938 10.5419921875 282.98828125 20.638671875 c 0
 277.438476562 22.513671875 272.895507812 24.60546875 269.131835938 27.099609375 c 0
256.323242188 60.7626953125 m 2
 256.318359375 60.72265625 l 1
 256.315429688 60.681640625 l 0
 256.1796875 58.7587890625 256.0234375 56.8359375 255.884765625 54.9228515625 c 0
 254.965820312 41.5595703125 258.182617188 31.7197265625 267.346679688 24.6875 c 0
 267.387695312 24.65625 l 1
 267.431640625 24.6279296875 l 0
 271.478515625 21.9453125 276.305664062 19.73046875 282.02734375 17.796875 c 0
 310.862304688 8.09765625 339.517578125 -0.7822265625 371.106445312 -19.9951171875 c 1
 88.861328125 -19.9951171875 l 1
 119.629882812 -1.283203125 149.241210938 8.14453125 177.943359375 17.7958984375 c 0
 183.6640625 19.7314453125 188.487304688 21.9453125 192.544921875 24.626953125 c 0
 192.58984375 24.65625 l 1
 192.631835938 24.6884765625 l 0
 201.782226562 31.72265625 205.000976562 41.5634765625 204.08203125 54.9169921875 c 0
 203.944335938 56.837890625 203.794921875 58.7509765625 203.662109375 60.6787109375 c 0
 203.659179688 60.7216796875 l 1
 203.654296875 60.763671875 l 0
 201.189453125 80.3408203125 198.165039062 99.9638671875 193.272460938 119.052734375 c 0
 192.33203125 122.731445312 189.8359375 126.4765625 186.763671875 129.73046875 c 0
 186.681640625 129.817382812 l 1
 186.587890625 129.889648438 l 0
 182.333007812 133.1640625 177.432617188 135.930664062 171.864257812 138.0703125 c 0
 168.866210938 139.217773438 166.001953125 140.564453125 163.119140625 141.939453125 c 0
 163.056640625 141.969726562 l 1
 162.990234375 141.994140625 l 0
 119.642578125 157.907226562 93.0556640625 189.810546875 71.177734375 231.951171875 c 0
 57.2607421875 258.780273438 52.8076171875 285.696289062 53.0068359375 312.696289062 c 1
 52.9384765625 321.983398438 53.5322265625 331.310546875 54.681640625 340.748046875 c 1
 55.7255859375 350.5 57.1259765625 360.219726562 58.7333984375 369.952148438 c 0
 66.47265625 416.711914062 87.21875 461.594726562 95.19921875 508.881835938 c 0
 101.079101562 543.758789062 104.31640625 580.185546875 89.08984375 619.936523438 c 1
 137.13671875 619.938476562 184.098632812 619.986328125 229.984375 619.986328125 c 0
 276.049804688 619.986328125 321.817382812 619.938476562 370.87890625 619.936523438 c 1
 355.959960938 580.975585938 358.887695312 543.76953125 364.76953125 508.8828125 c 0
 372.755859375 461.59375 393.49609375 416.711914062 401.235351562 369.951171875 c 0
 402.844726562 360.217773438 404.252929688 350.50390625 405.287109375 340.749023438 c 1
 406.436523438 331.299804688 407.034179688 321.982421875 406.966796875 312.696289062 c 1
 407.169921875 285.685546875 402.717773438 258.780273438 388.794921875 231.951171875 c 0
 366.912109375 189.810546875 340.325195312 157.907226562 296.982421875 141.994140625 c 0
 296.916992188 141.969726562 l 1
 296.853515625 141.940429688 l 0
 293.967773438 140.565429688 291.09375 139.216796875 288.11328125 138.0703125 c 0
 282.537109375 135.931640625 277.639648438 133.163085938 273.381835938 129.890625 c 0
 273.287109375 129.817382812 l 1
 273.205078125 129.73046875 l 0
 270.1328125 126.4765625 267.635742188 122.732421875 266.69921875 119.05078125 c 0
 261.803710938 99.966796875 258.77734375 80.3408203125 256.323242188 60.7626953125 c 2
EndSplineSet
EndChar

StartChar: R
Encoding: 82 82 12
Width: 360
VWidth: 0
Flags: W
HStem: -23.0713 2.99805<99.7187 262.066> 621.352 3<57.8027 306.802>
VStem: 272.679 2.99902<-8.91115 5.68196> 306.802 2.99902<458.204 621.352>
LayerCount: 2
Fore
SplineSet
309.80078125 624.3515625 m 1
 55.1474609375 624.3515625 l 1
 54.9853515625 623.034179688 l 0
 43.162109375 526.877929688 53.3662109375 436.533203125 75.06640625 348.896484375 c 0
 88.2568359375 295.692382812 95.984375 241.747070312 102.994140625 188.291015625 c 0
 110.830078125 128.579101562 111.19921875 66.107421875 92.8740234375 7.439453125 c 0
 86.8154296875 -11.919921875 91.111328125 -22.4560546875 106.806640625 -23.0712890625 c 0
 156.143554688 -25.0458984375 205.62890625 -24.41015625 254.984375 -23.31640625 c 0
 267.47265625 -23.0419921875 276.028320312 -12.62109375 275.677734375 -1.1181640625 c 0
 275.583984375 1.943359375 274.861328125 5.08203125 273.426757812 8.1220703125 c 0
 257.498046875 41.791015625 258.377929688 77.384765625 256.134765625 113.8515625 c 0
 253.10546875 162.901367188 264.411132812 210.275390625 268.349609375 258.765625 c 0
 270.65234375 286.916015625 280.9296875 314.583984375 286.713867188 342.97265625 c 0
 294.853515625 382.943359375 305.875 422.9453125 308.869140625 463.649414062 c 0
 312.70703125 515.9765625 309.80078125 568.716796875 309.80078125 622.8515625 c 0
 309.80078125 624.3515625 l 1
57.802734375 621.3515625 m 1
 306.801757812 621.3515625 l 1
 306.85546875 567.569335938 309.661132812 515.469726562 305.876953125 463.870117188 c 0
 302.912109375 423.55859375 291.94140625 383.677734375 283.774414062 343.572265625 c 0
 278.0546875 315.49609375 267.70703125 287.71484375 265.359375 259.0078125 c 0
 261.446289062 210.837890625 250.076171875 163.290039062 253.140625 113.66796875 c 0
 255.370117188 77.421875 254.4140625 41.294921875 270.713867188 6.8408203125 c 0
 271.973632812 4.1708984375 272.59765625 1.4423828125 272.678710938 -1.208984375 c 0
 272.983398438 -11.197265625 265.604492188 -20.08203125 254.91796875 -20.31640625 c 0
 205.580078125 -21.41015625 156.161132812 -22.0439453125 106.923828125 -20.0732421875 c 0
 93.732421875 -19.5556640625 89.8642578125 -12.220703125 95.7373046875 6.544921875 c 0
 114.248046875 65.806640625 113.8359375 128.725585938 105.96875 188.681640625 c 0
 98.955078125 242.159179688 91.2158203125 296.221679688 77.978515625 349.6171875 c 0
 56.4443359375 436.583984375 46.3779296875 526.600585938 57.802734375 621.3515625 c 1
EndSplineSet
EndChar

StartChar: S
Encoding: 83 83 13
Width: 472
VWidth: 0
Flags: W
HStem: -23.5088 3<105.278 136.153 250.258 403.86> 622.837 3<64.4313 260.462>
VStem: 50.0039 3<467.823 559.817> 102.279 2.99902<-19.7861 188.562>
LayerCount: 2
Fore
SplineSet
102.279296875 -21.279296875 m 2
 102.279296875 -22.779296875 l 1
 103.779296875 -22.779296875 l 0
 133.291992188 -22.779296875 163.071289062 -31.5869140625 182.092773438 -20.4716796875 c 0
 206.299804688 -6.3720703125 222.37890625 -8.5302734375 243.782226562 -19.7822265625 c 0
 251.388671875 -23.7841796875 261.291015625 -23.431640625 269.692382812 -23.5087890625 c 0
 306.700195312 -23.8603515625 343.689453125 -23.2158203125 380.646484375 -23.8701171875 c 0
 396.911132812 -24.158203125 416.883789062 -24.296875 421.783203125 -5.3427734375 c 0
 426.70703125 13.8583984375 405.359375 21.9736328125 394.845703125 31.533203125 c 0
 390.76953125 35.236328125 384.44140625 35.513671875 380.296875 37.5419921875 c 0
 353.013671875 50.84765625 326.504882812 66.529296875 298.024414062 77.3798828125 c 0
 270.854492188 87.724609375 262.42578125 109.90234375 250.627929688 133.399414062 c 0
 240.93359375 152.671875 240.541015625 167.78125 252.271484375 185.340820312 c 0
 256.08984375 191.067382812 254.418945312 200.21875 253.88671875 206.956054688 c 0
 249.594726562 264.067382812 271.580078125 317.883789062 278.509765625 374.301757812 c 0
 284.3359375 421.688476562 287.63671875 469.625 294.626953125 516.919921875 c 0
 298.801757812 545.163085938 290.828125 575.58203125 284.490234375 603.81640625 c 0
 282.36328125 613.173828125 267.075195312 624.642578125 257.153320312 624.938476562 c 0
 192.590820312 626.658203125 128.006835938 625.836914062 63.3583984375 625.836914062 c 0
 62.0615234375 625.836914062 l 1
 61.8740234375 624.553710938 l 0
 57.1728515625 592.370117188 50.04296875 565.297851562 50.00390625 538.030273438 c 0
 49.984375 498.493164062 49.810546875 459.28515625 57.5400390625 418.831054688 c 0
 68.0546875 363.736328125 80.5830078125 308.98828125 90.0947265625 253.896484375 c 0
 96.7939453125 215.161132812 105.720703125 176.369140625 103.073242188 135.947265625 c 0
 99.7548828125 85.1865234375 102.279296875 34.09375 102.279296875 -21.279296875 c 2
105.278320312 -19.7861328125 m 1
 105.231445312 35.2900390625 102.791992188 85.6435546875 106.067382812 135.751953125 c 0
 108.751953125 176.736328125 99.7294921875 215.795898438 93.0517578125 254.40625 c 0
 83.5205078125 309.60546875 70.98828125 364.369140625 60.4873046875 419.393554688 c 0
 52.826171875 459.484375 52.984375 498.481445312 53.00390625 538.026367188 c 0
 53.0419921875 564.33984375 59.9501953125 591.341796875 64.6533203125 622.836914062 c 1
 129.3125 622.849609375 192.961914062 623.646484375 257.063476562 621.940429688 c 0
 265.481445312 621.689453125 279.841796875 610.736328125 281.5625 603.16015625 c 0
 287.921875 574.83203125 295.709960938 544.762695312 291.66015625 517.359375 c 0
 284.646484375 469.908203125 281.345703125 421.948242188 275.53125 374.666992188 c 0
 268.671875 318.817382812 246.536132812 264.745117188 250.896484375 206.719726562 c 0
 251.458007812 199.609375 252.599609375 191.241210938 249.77734375 187.006835938 c 0
 237.447265625 168.55078125 237.931640625 151.962890625 247.946289062 132.053710938 c 0
 259.5859375 108.87109375 268.461914062 85.42578125 296.956054688 74.5771484375 c 0
 325.114257812 63.84765625 351.556640625 48.220703125 378.978515625 34.8466796875 c 0
 384.013671875 32.3828125 389.833984375 32.033203125 392.828125 29.3125 c 0
 404.677734375 18.5400390625 423.115234375 11.9287109375 418.87890625 -4.5927734375 c 0
 414.655273438 -20.931640625 397.520507812 -21.16796875 380.69921875 -20.8701171875 c 0
 343.671875 -20.2158203125 306.676757812 -20.8603515625 269.719726562 -20.5087890625 c 0
 261.185546875 -20.4296875 251.79296875 -20.6064453125 245.178710938 -17.1259765625 c 0
 223.22265625 -5.5849609375 205.629882812 -3.2900390625 180.579101562 -17.8818359375 c 0
 163.537109375 -27.83984375 134.4765625 -20.0927734375 105.278320312 -19.7861328125 c 1
EndSplineSet
EndChar

StartChar: T
Encoding: 84 84 14
Width: 556
VWidth: 0
Flags: W
HStem: -28.5879 3<103.665 453.128> 623.402 3<168.851 387.969> 625.504 2.99609<153.456 276.656 280.133 403.357>
VStem: 50.1553 3.00195<322.799 379.204> 503.635 3<322.813 371.861>
LayerCount: 2
Fore
SplineSet
506.634765625 346.376953125 m 0xb8
 506.227539062 425.17578125 468.328125 503.178710938 441.346679688 574.676757812 c 0
 431.547851562 600.643554688 425.1015625 630.267578125 389.62890625 628.5 c 0xb8
 352.639648438 626.629882812 315.474609375 626.603515625 278.39453125 626.40234375 c 0xd8
 241.341796875 626.603515625 204.165039062 626.625 167.189453125 628.5 c 0
 131.702148438 630.265625 125.252929688 600.666015625 115.44921875 574.676757812 c 0
 88.4833984375 503.18359375 47.669921875 425.303710938 50.1552734375 346.349609375 c 1
 49.2431640625 330.689453125 52.4072265625 313.627929688 58.017578125 296.856445312 c 1
 65.556640625 271.185546875 78.029296875 247.739257812 94.1748046875 227.592773438 c 1
 110.942382812 202.29296875 133.213867188 184.2734375 165.6875 171.172851562 c 0
 179.563476562 164.720703125 211.860351562 156.131835938 213.986328125 155.716796875 c 1
 215.673828125 164.366210938 250.005859375 121.115234375 250.005859375 121.115234375 c 1
 254.469726562 95.904296875 258.65625 52.818359375 245.895507812 30.9833984375 c 1
 215.65234375 -0.3330078125 155.922851562 0.5048828125 116.685546875 -16.5908203125 c 1
 115.280273438 -17.1142578125 101.790039062 -23.1298828125 96.0234375 -25.7197265625 c 0
 89.63671875 -28.587890625 l 1
 467.154296875 -28.587890625 l 1
 460.767578125 -25.7197265625 l 0
 454.96484375 -23.11328125 441.596679688 -17.140625 440.046875 -16.5693359375 c 1
 437.15625 -24.4072265625 318.134765625 23.4794921875 310.90625 30.982421875 c 1
 297.770507812 53.4833984375 302.564453125 96.865234375 306.795898438 121.1171875 c 1
 312.420898438 136.96484375 320.349609375 149.6328125 342.821289062 155.720703125 c 1
 345.155273438 156.17578125 436.356445312 191.172851562 462.640625 227.599609375 c 0
 478.051757812 248.961914062 491.240234375 271.141601562 498.7734375 296.856445312 c 1
 504.381835938 313.624023438 507.545898438 330.719726562 506.634765625 346.376953125 c 0xb8
278.39453125 623.40234375 m 0xd8
 315.467773438 623.603515625 352.692382812 623.627929688 389.78125 625.50390625 c 0
 422.744140625 627.146484375 428.446289062 600.362304688 438.540039062 573.618164062 c 0
 465.6015625 501.905273438 503.232421875 424.197265625 503.634765625 346.321289062 c 0
 503.634765625 346.28125 l 1
 503.637695312 346.2421875 l 0
 504.520507812 331.079101562 501.473632812 314.385742188 495.91015625 297.754882812 c 1
 488.482421875 272.395507812 475.536132812 250.600585938 460.20703125 229.35546875 c 0
 435.1171875 194.58203125 345.01171875 159.424804688 342.18359375 158.65234375 c 1
 342.137695312 158.640625 l 0
 318.262695312 152.38671875 309.459960938 137.766601562 303.924804688 121.993164062 c 0
 303.883789062 121.876953125 l 1
 303.862304688 121.755859375 l 0
 299.54296875 97.173828125 294.405273438 52.7275390625 308.416992188 29.30078125 c 0
 308.501953125 29.158203125 l 1
 308.616210938 29.037109375 l 0
 339.526367188 -3.5068359375 400.834960938 -2.564453125 438.923828125 -19.349609375 c 0
 438.965820312 -19.3681640625 l 1
 439.009765625 -19.3837890625 l 0
 439.959960938 -19.734375 446.631835938 -22.6904296875 453.127929688 -25.587890625 c 1
 103.665039062 -25.587890625 l 1
 108.936523438 -23.23828125 117.198242188 -19.6005859375 117.786132812 -19.3828125 c 0
 117.827148438 -19.3671875 l 1
 117.8671875 -19.349609375 l 0
 155.997070312 -2.5458984375 217.208007812 -3.498046875 248.182617188 29.0361328125 c 0
 248.297851562 29.15625 l 1
 248.383789062 29.2998046875 l 0
 262.373046875 52.6611328125 257.3125 97.240234375 252.938476562 121.759765625 c 0
 252.916992188 121.877929688 l 1
 252.877929688 121.9921875 l 0
 247.350585938 137.766601562 238.522460938 152.38671875 214.653320312 158.640625 c 0
 214.607421875 158.65234375 l 1
 214.560546875 158.662109375 l 0
 212.893554688 158.987304688 180.209960938 167.728515625 166.91796875 173.91015625 c 0
 166.8828125 173.926757812 l 1
 166.846679688 173.940429688 l 0
 134.828125 186.856445312 113.07421875 204.5078125 96.6376953125 229.306640625 c 0
 96.6005859375 229.362304688 l 1
 96.55859375 229.416015625 l 0
 80.6318359375 249.290039062 68.341796875 272.3515625 60.880859375 297.754882812 c 1
 55.3193359375 314.381835938 52.2705078125 331.081054688 53.1533203125 346.2421875 c 0
 53.1572265625 346.30859375 l 1
 53.1552734375 346.375976562 l 0
 50.703125 424.2734375 91.1787109375 501.830078125 118.255859375 573.618164062 c 0
 128.352539062 600.384765625 134.053710938 627.14453125 167.041015625 625.50390625 c 0xb8
 204.120117188 623.623046875 241.31640625 623.603515625 278.39453125 623.40234375 c 0xd8
EndSplineSet
EndChar

StartChar: U
Encoding: 85 85 15
Width: 544
VWidth: 0
Flags: W
HStem: -24.3311 3<142.632 401.395> 621.273 3<114.944 429.08>
VStem: 157.535 2.98828<163.927 215.312> 383.501 2.98828<163.927 215.311>
LayerCount: 2
Fore
SplineSet
390.27734375 99.71875 m 0
 396.732421875 70.19921875 393.743164062 36.4599609375 416.560546875 9.77734375 c 0
 424.079101562 1.00390625 419.856445312 -5.541015625 413.084960938 -11.3017578125 c 0
 410.703125 -13.328125 408.0390625 -15.173828125 405.588867188 -16.833984375 c 0
 404.743164062 -17.4150390625 403.607421875 -17.85546875 402.353515625 -18.3818359375 c 0
 401.442382812 -18.763671875 l 1
 401.43359375 -19.751953125 l 0
 401.428710938 -20.296875 401.416992188 -20.615234375 401.39453125 -21.3310546875 c 1
 357.655273438 -21.33203125 313.889648438 -21.361328125 272.016601562 -21.3408203125 c 0
 229.967773438 -21.3603515625 187.387695312 -21.33203125 142.631835938 -21.3310546875 c 1
 142.631835938 -21.3310546875 142.599609375 -20.3388671875 142.588867188 -19.736328125 c 0
 142.5703125 -18.755859375 l 1
 141.6640625 -18.37890625 l 0
 140.416015625 -17.861328125 139.295898438 -17.4169921875 138.432617188 -16.8330078125 c 0
 128.71875 -10.2392578125 117.37890625 -1.9775390625 127.452148438 9.775390625 c 0
 150.301757812 36.4609375 147.291992188 70.19921875 153.747070312 99.71875 c 0
 160.548828125 130.794921875 157.784179688 163.66015625 160.5234375 195.270507812 c 0
 162.453125 217.55859375 153.9140625 233.157226562 139.145507812 249.481445312 c 0
 48.6728515625 349.458007812 33.0947265625 456.061523438 75.322265625 581.150390625 c 0
 85.56640625 611.53515625 99.0830078125 620.971679688 131.10546875 621.107421875 c 0
 136.30859375 621.135742188 141.489257812 621.135742188 146.677734375 621.146484375 c 0
 148.384765625 621.155273438 149.982421875 621.174804688 151.782226562 621.174804688 c 0
 170.5390625 621.234375 189.28125 621.234375 208.03515625 621.2734375 c 0
 229.372070312 621.301757812 250.690429688 621.361328125 272.014648438 621.350585938 c 0
 293.333984375 621.361328125 314.666992188 621.301757812 335.978515625 621.2734375 c 0
 354.73828125 621.234375 373.508789062 621.234375 392.254882812 621.174804688 c 0
 394.041992188 621.174804688 395.630859375 621.15625 397.329101562 621.146484375 c 0
 402.541015625 621.135742188 407.732421875 621.135742188 412.92578125 621.107421875 c 0
 444.932617188 620.971679688 458.448242188 611.53515625 468.701171875 581.150390625 c 0
 510.928710938 456.061523438 495.3515625 349.458007812 404.87890625 249.482421875 c 0
 390.099609375 233.158203125 381.560546875 217.557617188 383.500976562 195.270507812 c 0
 386.229492188 163.661132812 383.474609375 130.794921875 390.27734375 99.71875 c 0
393.208984375 100.359375 m 0
 386.53515625 130.845703125 389.249023438 163.565429688 386.489257812 195.530273438 c 0
 384.638671875 216.795898438 392.56640625 231.412109375 407.103515625 247.46875 c 0
 498.291015625 348.235351562 514.040039062 456.221679688 471.54296875 582.109375 c 0
 460.975585938 613.42578125 445.877929688 623.967773438 412.94140625 624.107421875 c 0
 407.74609375 624.135742188 402.52734375 624.135742188 397.346679688 624.146484375 c 0
 395.666015625 624.15625 394.051757812 624.174804688 392.264648438 624.174804688 c 0
 373.510742188 624.234375 354.7421875 624.234375 335.982421875 624.2734375 c 0
 314.676757812 624.301757812 293.3359375 624.361328125 272.016601562 624.350585938 c 0
 250.684570312 624.361328125 229.368164062 624.301757812 208.029296875 624.2734375 c 0
 189.283203125 624.234375 170.525390625 624.234375 151.782226562 624.174804688 c 0
 149.966796875 624.174804688 148.34375 624.155273438 146.671875 624.146484375 c 0
 141.489257812 624.135742188 136.298828125 624.135742188 131.091796875 624.107421875 c 0
 98.1337890625 623.967773438 83.037109375 613.42578125 72.48046875 582.109375 c 0
 29.9833984375 456.221679688 45.7333984375 348.235351562 136.920898438 247.469726562 c 0
 151.447265625 231.413085938 159.375 216.794921875 157.53515625 195.530273438 c 0
 154.764648438 163.56640625 157.48828125 130.845703125 150.815429688 100.359375 c 0
 144.184570312 70.03515625 147.112304688 37.34765625 125.174804688 11.728515625 c 0
 112.884765625 -2.6123046875 127.6796875 -13.1591796875 136.752929688 -19.3193359375 c 0
 137.669921875 -19.9384765625 139.198242188 -20.6025390625 139.614257812 -20.7802734375 c 1
 139.637695312 -21.5498046875 139.657226562 -22.1396484375 139.657226562 -22.8310546875 c 0
 139.657226562 -24.3310546875 l 1
 141.157226562 -24.3310546875 l 0
 186.271484375 -24.3310546875 229.537109375 -24.3603515625 272.014648438 -24.3408203125 c 0
 314.49609375 -24.361328125 357.758789062 -24.3310546875 402.866210938 -24.3310546875 c 0
 404.366210938 -24.3310546875 l 1
 404.366210938 -22.8310546875 l 0
 404.366210938 -22.1484375 404.413085938 -20.7763671875 404.413085938 -20.7763671875 c 1
 405.880859375 -20.1533203125 406.340820312 -19.9580078125 407.270507812 -19.318359375 c 0
 409.741210938 -17.64453125 412.493164062 -15.7431640625 415.028320312 -13.5869140625 c 0
 422.151367188 -7.52734375 427.838867188 1.2265625 418.83984375 11.7265625 c 0
 396.930664062 37.3486328125 399.83984375 70.03515625 393.208984375 100.359375 c 0
EndSplineSet
EndChar

StartChar: V
Encoding: 86 86 16
Width: 498
VWidth: 0
Flags: W
HStem: -22.4863 3<176.149 332.441> -19.4277 2.94238<136.49 171.146 335.909 362.074> 619.846 3.00391<53.418 445.157>
LayerCount: 2
Fore
SplineSet
249.306640625 -22.486328125 m 1
 316.234375 -23.3369140625 316.598632812 -21.4755859375 363.463867188 -19.427734375 c 0
 364.72265625 -19.3720703125 l 1
 448.573242188 622.46484375 l 1
 50 622.849609375 l 1
 133.841796875 -18.982421875 l 1
 135.100585938 -19.0380859375 l 0
 181.197265625 -21.0478515625 213.735351562 -23.857421875 249.306640625 -22.486328125 c 1
53.41796875 619.845703125 m 1
 445.157226562 619.46875 l 1
 362.07421875 -16.4853515625 l 1
 316.346679688 -18.53125 315.578125 -20.328125 249.306640625 -19.486328125 c 0
 249.267578125 -19.486328125 l 1
 249.229492188 -19.4873046875 l 0
 213.999023438 -20.8447265625 182.994140625 -18.1591796875 136.490234375 -16.095703125 c 1
 53.41796875 619.845703125 l 1
EndSplineSet
EndChar

StartChar: W
Encoding: 87 87 17
Width: 306
VWidth: 0
Flags: W
HStem: -22.8467 3<74.2666 231.186> 619.837 3<54.2861 252.405>
VStem: 50.3555 2.99805<383.619 619.837> 139.348 3<54.1457 103.823> 163.899 3<54.1452 103.824> 252.894 2.99805<383.621 619.837>
LayerCount: 2
Fore
SplineSet
50.5478515625 444.369140625 m 0
 50.4482421875 441.786132812 50.4599609375 439.306640625 50.35546875 436.809570312 c 0
 47.19921875 359.662109375 65.0732421875 287.1015625 102.46484375 221.677734375 c 0
 129.952148438 173.591796875 138.861328125 125.69140625 139.34765625 71.548828125 c 0
 139.712890625 32.9482421875 121.033203125 11.7734375 94.265625 -7.9423828125 c 0
 87.7548828125 -12.7392578125 81.7744140625 -13.8408203125 81.7744140625 -13.8408203125 c 0
 81.6865234375 -13.8583984375 l 1
 81.6005859375 -13.88671875 l 0
 81.0595703125 -14.064453125 71.9794921875 -16.63671875 69.4609375 -19.66015625 c 1
 68.6767578125 -20.2802734375 69.47265625 -19.57421875 68.755859375 -20.2724609375 c 0
 66.1123046875 -22.8466796875 l 1
 240.133789062 -22.8466796875 l 1
 237.490234375 -20.2724609375 l 0
 236.5625 -19.369140625 237.161132812 -19.9580078125 237.161132812 -19.95703125 c 1
 233.205078125 -15.767578125 227.977539062 -15.8720703125 226.694335938 -15.5849609375 c 1
 225.267578125 -15.0703125 217.9296875 -12.3251953125 211.981445312 -7.9423828125 c 0
 185.213867188 11.7734375 166.54296875 32.9482421875 166.899414062 71.5498046875 c 0
 167.395507812 125.69140625 176.294921875 173.59375 203.782226562 221.677734375 c 0
 241.172851562 287.1015625 259.046875 359.66015625 255.891601562 436.807617188 c 0
 255.794921875 439.30859375 255.796875 441.791015625 255.69921875 444.368164062 c 0
 256.852539062 478.307617188 255.890625 512.637695312 254.897460938 547.163085938 c 1
 255.112304688 571.3125 255.405273438 595.916015625 255.405273438 621.336914062 c 0
 255.405273438 622.836914062 l 1
 50.8515625 622.836914062 l 1
 50.8515625 621.336914062 l 0
 50.8515625 595.913085938 51.134765625 571.315429688 51.349609375 547.163085938 c 1
 50.3564453125 512.637695312 49.4052734375 478.307617188 50.5478515625 444.369140625 c 0
252.893554688 436.688476562 m 0
 256.02734375 360.0859375 238.295898438 288.11328125 201.176757812 223.166015625 c 0
 173.388671875 174.552734375 164.399414062 126.029296875 163.899414062 71.5771484375 c 0
 163.53125 31.7587890625 183.141601562 9.57421875 210.202148438 -10.3583984375 c 0
 217.157226562 -15.4833984375 225.737304688 -18.427734375 225.791015625 -18.447265625 c 0
 225.875976562 -18.4765625 l 1
 225.96484375 -18.49609375 l 0
 225.971679688 -18.498046875 228.733398438 -19.09375 231.185546875 -19.8466796875 c 1
 74.2666015625 -19.8466796875 l 1
 75.8857421875 -19.1123046875 81.3974609375 -17.1142578125 82.4521484375 -16.7646484375 c 1
 82.8759765625 -16.6748046875 89.330078125 -15.3056640625 96.044921875 -10.3583984375 c 0
 123.10546875 9.57421875 142.724609375 31.7587890625 142.34765625 71.578125 c 0
 141.859375 126.02734375 132.858398438 174.552734375 105.0703125 223.166015625 c 0
 67.9501953125 288.11328125 50.21875 360.083984375 53.353515625 436.686523438 c 0
 53.4619140625 439.267578125 53.4521484375 441.811523438 53.5478515625 444.307617188 c 0
 53.5498046875 444.361328125 l 1
 53.5478515625 444.416015625 l 0
 52.408203125 478.268554688 53.3525390625 512.477539062 54.349609375 547.133789062 c 1
 54.1396484375 570.784179688 54.29296875 595.860351562 54.2861328125 619.836914062 c 1
 252.405273438 619.836914062 l 1
 252.393554688 595.833007812 252.107421875 570.803710938 251.897460938 547.133789062 c 1
 252.89453125 512.477539062 253.848632812 478.267578125 252.69921875 444.416015625 c 0
 252.697265625 444.362304688 l 1
 252.69921875 444.30859375 l 0
 252.794921875 441.806640625 252.794921875 439.266601562 252.893554688 436.688476562 c 0
EndSplineSet
EndChar

StartChar: X
Encoding: 88 88 18
Width: 671
VWidth: 0
Flags: W
HStem: -22.7012 3<53 425.951> 449.829 3<433.842 560.895> 499.089 2.99414<460.426 569.559> 619.828 3<78.1016 424.891>
VStem: 50 3<-19.7012 144.571> 51.9639 2.99805<-16.8914 178.333> 63.4004 2.99609<332.18 390.169> 75.1777 2.92383<595.667 619.828> 425.422 2.6875<329.898 444.872 535.009 589.743> 443.175 2.89551<173.303 252.569> 449.866 2.99805<4.93559 88.8637> 571.338 2.98047<254.051 439.602>
LayerCount: 2
Fore
SplineSet
50 -21.201171875 m 2xfbf0
 50 -22.701171875 l 1xfbf0
 51.5 -22.701171875 l 0
 174.963867188 -22.701171875 291.606445312 -23.04296875 408.2578125 -22.505859375 c 0
 443.8515625 -22.3369140625 451.674804688 -13.8427734375 452.864257812 20.3974609375 c 0
 453.331054688 34.4033203125 454.8046875 48.947265625 452.364257812 62.9052734375 c 0
 447.49609375 90.6650390625 462.344726562 107.129882812 482.58203125 121.431640625 c 0
 506.64453125 138.404296875 529.837890625 157.315429688 555.8671875 169.709960938 c 0
 609.182617188 195.09765625 626.409179688 240.713867188 621.03125 292.41015625 c 0
 615.19921875 348.477539062 613.958984375 405.59375 598.640625 461.08203125 c 0
 588.516601562 497.795898438 587.977539062 500.896484375 551.297851562 501.65625 c 0
 525.056640625 502.174804688 498.8203125 500.479492188 472.8828125 502.083007812 c 0
 438.140625 504.237304688 429.505859375 513.915039062 428.419921875 546.827148438 c 0
 428.092773438 556.747070312 429.15625 566.939453125 428.109375 577.106445312 c 0
 424.846679688 609.15625 428.182617188 620.858398438 428.182617188 620.858398438 c 0
 428.693359375 622.749023438 l 1
 426.735351562 622.75 l 0
 426.735351562 622.75 286.432617188 622.828125 240.1328125 622.828125 c 0
 75.25 622.828125 l 1
 75.177734375 621.404296875 l 0
 70.5673828125 531.137695312 66.5146484375 425.899414062 63.400390625 360.774414062 c 0
 60.8427734375 307.26171875 53.8798828125 200.252929688 51.9638671875 146.645507812 c 0xf7f0
 50.4580078125 104.671875 50 38.84765625 50 -21.201171875 c 2xfbf0
53 -19.701171875 m 1
 53.0087890625 40.1669921875 53.4697265625 104.942382812 54.9619140625 146.538085938 c 0xf7f0
 56.8740234375 200.059570312 63.8369140625 307.07421875 66.396484375 360.631835938 c 0
 69.4892578125 425.29296875 73.5634765625 530.6875 78.1015625 619.828125 c 1
 240.1328125 619.828125 l 0
 283.310546875 619.828125 408.317382812 619.759765625 424.890625 619.750976562 c 1
 424.071289062 615.091796875 422.553710938 602.056640625 425.125 576.799804688 c 0
 426.12890625 567.044921875 425.084960938 556.924804688 425.421875 546.727539062 c 0
 426.54296875 512.725585938 436.873046875 501.309570312 472.697265625 499.088867188 c 0
 498.88671875 497.469726562 525.169921875 499.172851562 551.235351562 498.65625 c 0
 587.153320312 497.912109375 585.676757812 496.811523438 595.748046875 460.283203125 c 0
 610.9375 405.263671875 612.197265625 348.338867188 618.046875 292.099609375 c 0
 623.333007812 241.295898438 606.631835938 197.205078125 554.578125 172.418945312 c 0
 528.107421875 159.813476562 504.796875 140.7734375 480.8515625 123.880859375 c 0
 460.346679688 109.391601562 444.2578125 91.7568359375 449.409179688 62.3876953125 c 0
 451.75390625 48.98046875 450.336914062 34.6396484375 449.866210938 20.5009765625 c 0
 448.711914062 -12.7392578125 442.78515625 -19.3427734375 408.244140625 -19.505859375 c 0
 292.235351562 -20.0400390625 175.021484375 -19.7041015625 53 -19.701171875 c 1
446.0703125 173.302734375 m 1
 442.3203125 254.041992188 426.66015625 329.8984375 428.740234375 406.327148438 c 0
 429.783203125 444.872070312 433.841796875 449.133789062 472.794921875 449.829101562 c 0
 494.95703125 450.21875 517.138671875 450.4921875 539.189453125 449.274414062 c 0
 560.89453125 448.086914062 569.408203125 439.6015625 569.912109375 417.154296875 c 0
 570.85546875 374.958007812 566.467773438 332.134765625 571.337890625 290.150390625 c 0
 575.504882812 254.05078125 557.846679688 232.9296875 532.84765625 216.607421875 c 0
 506.436523438 199.399414062 476.92578125 188.19140625 446.0703125 173.302734375 c 1
445.33203125 169.609375 m 2
 476.126953125 184.63671875 507.200195312 196.317382812 534.48828125 214.095703125 c 0
 559.956054688 230.724609375 578.645507812 253.001953125 574.318359375 290.49609375 c 0
 569.499023438 332.046875 573.861328125 374.770507812 572.912109375 417.22265625 c 0
 572.37890625 440.90625 562.30078125 451.014648438 539.35546875 452.270507812 c 0
 517.16796875 453.494140625 494.916015625 453.21875 472.7421875 452.829101562 c 0
 432.88671875 452.118164062 426.80859375 445.852539062 425.7421875 406.409179688 c 0
 423.626953125 328.721679688 439.646484375 252.569335938 443.174804688 170.892578125 c 0
 443.274414062 168.604492188 l 1
 445.33203125 169.609375 l 2
446.0703125 173.302734375 m 1
 442.3203125 254.041992188 426.66015625 329.8984375 428.740234375 406.327148438 c 0
 429.783203125 444.872070312 433.841796875 449.133789062 472.794921875 449.829101562 c 0
 494.95703125 450.21875 517.138671875 450.4921875 539.189453125 449.274414062 c 0
 560.89453125 448.086914062 569.408203125 439.6015625 569.912109375 417.154296875 c 0
 570.85546875 374.958007812 566.467773438 332.134765625 571.337890625 290.150390625 c 0
 575.504882812 254.05078125 557.846679688 232.9296875 532.84765625 216.607421875 c 0
 506.436523438 199.399414062 476.92578125 188.19140625 446.0703125 173.302734375 c 1
445.33203125 169.609375 m 2
 476.126953125 184.63671875 507.200195312 196.317382812 534.48828125 214.095703125 c 0
 559.956054688 230.724609375 578.645507812 253.001953125 574.318359375 290.49609375 c 0
 569.499023438 332.046875 573.861328125 374.770507812 572.912109375 417.22265625 c 0
 572.37890625 440.90625 562.30078125 451.014648438 539.35546875 452.270507812 c 0
 517.16796875 453.494140625 494.916015625 453.21875 472.7421875 452.829101562 c 0
 432.88671875 452.118164062 426.80859375 445.852539062 425.7421875 406.409179688 c 0
 423.626953125 328.721679688 439.646484375 252.569335938 443.174804688 170.892578125 c 0
 443.274414062 168.604492188 l 1
 445.33203125 169.609375 l 2
EndSplineSet
EndChar

StartChar: Y
Encoding: 89 89 19
Width: 365
VWidth: 0
Flags: W
HStem: -22.9609 2.99707<74.9101 290.417> 618.089 2.9873<55.8665 180.896 184.227 286.065>
VStem: 50.0078 3<508.692 615.668> 52.582 2.99805<541.66 616.984> 66.6396 2.68945<-13.1011 -2.72328 373.805 390.072> 309.566 2.99805<492.431 539.825 541.66 619.66>
LayerCount: 2
Fore
SplineSet
311.064453125 618.271484375 m 1xdc
 311.1796875 619.766601562 l 1
 311.1796875 619.766601562 305.649414062 617.184570312 309.56640625 616.8828125 c 1
 309.655273438 591.965820312 311.978515625 565.762695312 312.139648438 540.418945312 c 0
 312.219726562 527.755859375 311.7265625 515.084960938 309.911132812 502.600585938 c 0
 308.153320312 490.513671875 304.8359375 478.61328125 303.200195312 466.221679688 c 0
 299.744140625 440.0234375 299.576171875 413.634765625 296.408203125 387.6328125 c 0
 293.140625 360.8046875 288.700195312 334.0625 286.115234375 307.037109375 c 0
 283.552734375 280.192382812 282.663085938 253.276367188 280.86328125 226.473632812 c 0
 279.077148438 199.868164062 274.969726562 174.10546875 270.541992188 147.788085938 c 0
 266.505859375 123.787109375 269.012695312 99.318359375 263.723632812 76.11328125 c 0
 259.904296875 59.3623046875 245.063476562 40.2529296875 259.373046875 22.4033203125 c 0
 265.18359375 15.154296875 273.0078125 8.5830078125 281.528320312 4.7216796875 c 0
 288.739257812 1.455078125 299.713867188 -2.806640625 295.814453125 -10.6953125 c 0
 294.172851562 -14.0185546875 290.94140625 -19.5107421875 288.19140625 -19.5341796875 c 0
 282.146484375 -19.5849609375 276.100585938 -19.63671875 270.056640625 -19.685546875 c 0
 259.63671875 -19.7705078125 250.3828125 -19.9072265625 239.275390625 -19.9638671875 c 1
 125.873046875 -19.9638671875 l 1
 113.903320312 -19.904296875 103.526367188 -19.755859375 92.2275390625 -19.6630859375 c 0
 87.330078125 -19.623046875 79.7314453125 -20.892578125 76.21875 -19.3466796875 c 0
 73.349609375 -18.0849609375 70.9619140625 -13.9990234375 69.3291015625 -10.6962890625 c 0
 66.4384765625 -4.8525390625 71.240234375 -1.0927734375 77.8447265625 2.14453125 c 0
 80.79296875 3.5888671875 83.818359375 4.7646484375 86.0244140625 5.8505859375 c 0
 93.537109375 9.5478515625 100.62109375 15.9736328125 105.775390625 22.4033203125 c 0
 120.088867188 40.26171875 105.25 59.3349609375 101.422851562 76.1142578125 c 0
 96.130859375 99.3193359375 98.638671875 123.787109375 94.6015625 147.788085938 c 0
 90.1748046875 174.10546875 86.06640625 199.868164062 84.28125 226.473632812 c 0
 82.4814453125 253.275390625 81.58984375 280.193359375 79.0283203125 307.037109375 c 0
 76.447265625 334.0625 72.00390625 360.803710938 68.7353515625 387.6328125 c 0
 65.56640625 413.634765625 65.3984375 440.0234375 61.943359375 466.221679688 c 0
 60.1826171875 479.56640625 56.537109375 492.38671875 54.84765625 505.434570312 c 0
 53.3505859375 517.002929688 52.9345703125 528.711914062 53.0078125 540.418945312 c 0xec
 53.1689453125 565.887695312 55.48828125 591.017578125 55.580078125 616.879882812 c 1
 61.6640625 617.327148438 69.4208984375 617.731445312 76.162109375 618.08203125 c 0
 76.2041015625 618.083984375 l 1
 76.24609375 618.088867188 l 0
 78.9150390625 618.377929688 84.439453125 618.26171875 84.9130859375 618.25 c 0
 92.6923828125 618.072265625 147.190429688 619.939453125 182.568359375 619.65234375 c 1
 217.721679688 619.9375 249.072265625 617.383789062 284.349609375 618.361328125 c 1
 284.821289062 618.255859375 287.811523438 618.142578125 287.811523438 618.142578125 c 1
 288.973632812 618.08203125 l 0
 295.811523438 617.727539062 302.634765625 617.388671875 309.453125 616.888671875 c 0
 310.450195312 616.815429688 311.064453125 618.271484375 311.064453125 618.271484375 c 1xdc
307.663085938 620.0234375 m 1
 301.85546875 620.423828125 294.524414062 620.798828125 289.709960938 621.047851562 c 1
 287.736328125 621.620117188 286.065429688 621.313476562 286.065429688 621.313476562 c 1
 283.28515625 621.234375 285.481445312 621.39453125 284.780273438 621.374023438 c 0
 249.522460938 620.364257812 218.004882812 622.940429688 182.568359375 622.65234375 c 1
 147.192382812 622.939453125 92.4697265625 621.078125 84.9833984375 621.25 c 0
 84.451171875 621.26171875 79.0234375 621.407226562 75.9638671875 621.076171875 c 0
 68.642578125 620.6953125 61.337890625 620.3359375 53.966796875 619.766601562 c 0
 52.58203125 619.66015625 l 1
 52.58203125 618.271484375 l 0xdc
 52.58203125 592.389648438 50.1728515625 566.493164062 50.0078125 540.438476562 c 0
 49.9345703125 528.647460938 50.3505859375 516.803710938 51.873046875 505.049804688 c 0
 53.599609375 491.70703125 57.2470703125 478.884765625 58.96875 465.829101562 c 0
 62.390625 439.87890625 62.560546875 413.5 65.7568359375 387.26953125 c 0
 69.037109375 360.354492188 73.474609375 333.638671875 76.0419921875 306.751953125 c 0
 78.591796875 280.03125 79.4833984375 253.142578125 81.287109375 226.272460938 c 0
 83.0859375 199.489257812 87.2138671875 173.623046875 91.642578125 147.290039062 c 0
 95.58984375 123.83203125 93.060546875 99.2880859375 98.4970703125 75.4462890625 c 0
 102.701171875 57.0185546875 116.288085938 40.318359375 103.43359375 24.2802734375 c 0
 98.50390625 18.1279296875 91.658203125 11.9658203125 84.7001953125 8.5419921875 c 0
 82.6904296875 7.552734375 79.6083984375 6.349609375 76.5244140625 4.837890625 c 0
 70.201171875 1.7392578125 62.419921875 -3.49609375 66.6396484375 -12.0263671875 c 0
 68.2646484375 -15.3115234375 70.767578125 -20.2275390625 75.009765625 -22.0927734375 c 0
 79.9267578125 -24.255859375 87.88671875 -22.626953125 92.2021484375 -22.6630859375 c 0
 103.068359375 -22.751953125 114.119140625 -22.90625 124.859375 -22.9609375 c 1
 240.291015625 -22.9609375 l 1
 251.0859375 -22.9052734375 259.999023438 -22.767578125 270.080078125 -22.685546875 c 0
 276.125976562 -22.63671875 282.171875 -22.5849609375 288.216796875 -22.5341796875 c 0
 293.728515625 -22.4873046875 297.122070312 -14.8212890625 298.50390625 -12.025390625 c 0
 304.131835938 -0.640625 288.502929688 4.85546875 282.766601562 7.4541015625 c 0
 274.77734375 11.0751953125 267.26171875 17.359375 261.712890625 24.2802734375 c 0
 248.850585938 40.3251953125 262.44140625 56.9912109375 266.649414062 75.447265625 c 0
 272.083007812 99.287109375 269.5546875 123.83203125 273.500976562 147.290039062 c 0
 277.930664062 173.623046875 282.057617188 199.489257812 283.857421875 226.272460938 c 0
 285.661132812 253.143554688 286.55078125 280.032226562 289.1015625 306.751953125 c 0
 291.672851562 333.638671875 296.107421875 360.35546875 299.38671875 387.26953125 c 0
 302.58203125 413.5 302.751953125 439.87890625 306.174804688 465.829101562 c 0
 307.7734375 477.943359375 311.084960938 489.830078125 312.879882812 502.168945312 c 0
 314.7265625 514.862304688 315.219726562 527.685546875 315.139648438 540.438476562 c 0
 314.973632812 566.494140625 312.564453125 592.389648438 312.564453125 618.271484375 c 0
 312.564453125 619.66015625 l 1
 311.1796875 619.766601562 l 0
 308.42578125 619.979492188 307.506835938 617.041015625 307.721679688 617.024414062 c 0
 307.663085938 620.0234375 l 1
EndSplineSet
EndChar

StartChar: Z
Encoding: 90 90 20
Width: 484
VWidth: 0
Flags: W
HStem: -22.8291 3<126.625 357.68> -21.1436 2.87988<122.235 124.125 360.139 362.255> 619.818 3<75.482 408.948>
VStem: 63.5547 2.99414<513.307 617.685> 417.919 2.99414<512.958 617.687>
LayerCount: 2
Fore
SplineSet
423.833007812 488.959960938 m 2x78
 423.8984375 488.732421875 l 1
 424.03125 488.536132812 l 0
 429.86328125 479.891601562 431.931640625 470.26953125 431.240234375 460.6640625 c 0
 431.231445312 460.546875 l 1
 431.241210938 460.430664062 l 0
 432.662109375 443.629882812 427.411132812 425.982421875 408.98046875 414.233398438 c 0
 408.069335938 413.657226562 407.423828125 413.040039062 406.822265625 412.559570312 c 0
 406.600585938 412.383789062 l 1
 406.458984375 412.139648438 l 0
 398.856445312 399.029296875 372.08984375 26.4365234375 365.296875 2.3203125 c 0
 365.272460938 2.2373046875 l 1
 365.258789062 2.150390625 l 0
 364.149414062 -4.7900390625 363.185546875 -10.7099609375 362.04296875 -18.263671875 c 1x78
 361.137695312 -18.3515625 360.0234375 -18.4619140625 359.065429688 -18.5673828125 c 0
 358.196289062 -18.6640625 l 1
 357.6796875 -19.8681640625 l 1
 320.40625 -19.8681640625 280.581054688 -19.8486328125 242.229492188 -19.8291015625 c 0xb8
 203.814453125 -19.84765625 164.216796875 -19.4912109375 126.625 -19.4921875 c 1
 126.288085938 -18.666015625 l 1
 125.401367188 -18.5673828125 l 0
 124.340820312 -18.4501953125 124.249023438 -18.4404296875 122.422851562 -18.263671875 c 1
 121.4296875 -11.734375 120.30078125 -4.623046875 119.198242188 2.1552734375 c 0
 119.184570312 2.23828125 l 1
 119.162109375 2.3203125 l 0
 112.37890625 26.4375 85.6103515625 399.030273438 78.009765625 412.138671875 c 0
 77.8671875 412.383789062 l 1
 77.646484375 412.560546875 l 0
 77.0419921875 413.041015625 76.3994140625 413.657226562 75.4658203125 414.241210938 c 0
 57.0712890625 425.97265625 51.8134765625 443.630859375 53.216796875 460.431640625 c 0
 53.2265625 460.546875 l 1
 53.2177734375 460.663085938 l 0
 52.53515625 470.270507812 54.5947265625 479.891601562 60.435546875 488.53515625 c 0
 60.568359375 488.732421875 l 1
 60.6337890625 488.959960938 l 0
 69.888671875 521.133789062 64.6591796875 552.556640625 66.548828125 583.786132812 c 0
 67.1787109375 594.217773438 66.6943359375 603.627929688 66.6513671875 617.606445312 c 1
 68.7001953125 617.723632812 71.8056640625 617.903320312 74.212890625 618.0625 c 0
 74.369140625 618.073242188 l 1
 74.51953125 618.115234375 l 0
 78.466796875 619.221679688 84.443359375 619.61328125 92.91015625 619.65234375 c 0
 97.9189453125 619.662109375 102.6171875 619.65625 107.841796875 619.666992188 c 1
 117.126953125 619.67578125 125.890625 619.680664062 134.967773438 619.701171875 c 0
 170.727539062 619.768554688 206.489257812 619.846679688 242.228515625 619.818359375 c 0
 277.982421875 619.846679688 313.728515625 619.768554688 349.501953125 619.701171875 c 0
 358.579101562 619.681640625 367.33984375 619.676757812 376.626953125 619.666992188 c 1
 381.853515625 619.65625 386.544921875 619.662109375 391.561523438 619.65234375 c 0
 400.009765625 619.61328125 405.994140625 619.220703125 409.94921875 618.115234375 c 0
 410.099609375 618.073242188 l 1
 410.254882812 618.0625 l 0
 412.840820312 617.891601562 414.665039062 617.787109375 417.806640625 617.607421875 c 1
 417.767578125 604.666992188 417.30078125 594.006835938 417.918945312 583.786132812 c 0
 419.797851562 552.557617188 414.569335938 521.133789062 423.833007812 488.959960938 c 2x78
426.649414062 490.018554688 m 1
 417.63671875 521.840820312 422.822265625 552.243164062 420.913085938 583.967773438 c 0
 420.284179688 594.370117188 420.80859375 604.94921875 420.80859375 619.0234375 c 0
 420.80859375 620.439453125 l 1
 419.39453125 620.520507812 l 0
 416.4296875 620.690429688 413.173828125 620.87890625 410.611328125 621.045898438 c 1
 405.6171875 622.358398438 400.018554688 622.61328125 391.567382812 622.65234375 c 0
 386.541992188 622.662109375 381.853515625 622.65625 376.630859375 622.666992188 c 1
 367.338867188 622.676757812 358.583007812 622.681640625 349.5078125 622.701171875 c 0
 313.73828125 622.768554688 277.98046875 622.846679688 242.23046875 622.818359375 c 0
 206.485351562 622.846679688 170.723632812 622.768554688 134.959960938 622.701171875 c 0
 125.887695312 622.680664062 117.127929688 622.67578125 107.837890625 622.666992188 c 1
 102.612304688 622.65625 97.931640625 622.662109375 92.896484375 622.65234375 c 0
 84.4140625 622.61328125 78.0537109375 622.150390625 73.85546875 621.045898438 c 1
 70.2099609375 620.80859375 68.2001953125 620.700195312 65.0634765625 620.520507812 c 0
 63.6494140625 620.440429688 l 1
 63.6494140625 619.0234375 l 0
 63.6494140625 604.94921875 64.1826171875 594.3671875 63.5546875 583.967773438 c 0
 61.640625 552.331054688 66.5751953125 520.96875 57.8173828125 490.01953125 c 1
 51.4404296875 480.34765625 49.6015625 470.504882812 50.216796875 460.557617188 c 1
 48.765625 443.178710938 54.3779296875 424.1328125 73.8759765625 411.696289062 c 0
 74.3759765625 411.384765625 75.30859375 410.59765625 75.5078125 410.430664062 c 1
 82.3994140625 394.08984375 109.358398438 26.095703125 116.2734375 1.5078125 c 1
 116.2734375 1.5078125 119.331054688 -17.8828125 119.631835938 -19.873046875 c 0
 119.807617188 -21.037109375 l 1
 120.979492188 -21.1435546875 l 0x78
 122.02734375 -21.23828125 123.994140625 -21.4345703125 124.125 -21.4482421875 c 1
 124.73828125 -22.8681640625 l 1
 125.724609375 -22.8681640625 l 0
 164.416015625 -22.8681640625 203.383789062 -22.84765625 242.227539062 -22.8291015625 c 0xb8
 281.084960938 -22.8486328125 320.041015625 -22.8681640625 358.7421875 -22.8681640625 c 0
 359.7265625 -22.8681640625 l 1
 360.118164062 -21.9658203125 l 0
 360.543945312 -20.9853515625 362.447265625 -21.23828125 363.487304688 -21.1435546875 c 0
 364.661132812 -21.0361328125 l 1
 364.834960938 -19.87109375 l 0
 365.899414062 -12.7607421875 367.086914062 -5.4169921875 368.208007812 1.591796875 c 1
 375.092773438 26.033203125 402.438476562 394.966796875 408.9609375 410.430664062 c 1
 410.028320312 411.32421875 409.947265625 411.294921875 410.59375 411.704101562 c 0
 430.094726562 424.134765625 435.720703125 443.069335938 434.231445312 460.682617188 c 1
 434.231445312 460.682617188 429.321289062 485.9609375 426.649414062 490.018554688 c 1
EndSplineSet
EndChar

StartChar: bracketleft
Encoding: 91 91 21
Width: 443
VWidth: 0
Flags: W
HStem: -22.9355 3<98.426 344.595> 619.642 3<96.7617 346.52>
VStem: 50.8428 2.98828<401.059 478.464> 389.445 2.98828<401.059 478.465>
LayerCount: 2
Fore
SplineSet
146.962890625 205.446289062 m 1
 155.142578125 194.381835938 162.827148438 183.10546875 169.807617188 171.380859375 c 0
 192.1875 133.818359375 185.274414062 62.1171875 155.068359375 34.1572265625 c 0
 140.197265625 20.400390625 117.500976562 14.7373046875 98.595703125 3.7490234375 c 0
 92.626953125 0.287109375 90.0927734375 -7.88671875 86.5322265625 -13.17578125 c 0
 85.5771484375 -14.595703125 l 1
 87.1083984375 -15.3564453125 l 0
 91.73046875 -17.654296875 96.8544921875 -22.5029296875 102.6484375 -22.59375 c 0
 142.327148438 -23.169921875 181.982421875 -22.935546875 221.634765625 -22.935546875 c 0
 261.296875 -22.935546875 300.950195312 -23.169921875 340.631835938 -22.59375 c 0
 346.420898438 -22.5029296875 351.547851562 -17.654296875 356.169921875 -15.3564453125 c 0
 357.701171875 -14.595703125 l 1
 356.74609375 -13.17578125 l 0
 353.185546875 -7.88671875 350.65234375 0.2861328125 344.692382812 3.748046875 c 0
 325.775390625 14.7373046875 303.090820312 20.400390625 288.219726562 34.15625 c 0
 258.012695312 62.1181640625 251.099609375 133.818359375 273.469726562 171.380859375 c 0
 280.44921875 183.10546875 288.134765625 194.3828125 296.32421875 205.446289062 c 1
 308.1484375 218.153320312 318.966796875 231.771484375 328.416992188 245.946289062 c 1
 367.877929688 296.368164062 388.083007812 353.681640625 392.43359375 414.984375 c 1
 392.563476562 416.197265625 393.412109375 446.155273438 393.25 451.702148438 c 0
 391.993164062 496.3046875 378.750976562 540.444335938 370.333007812 584.421875 c 0
 363.948242188 617.767578125 359.30859375 622.344726562 327.0390625 622.641601562 c 0
 324.250976562 622.670898438 119.0234375 622.670898438 116.239257812 622.641601562 c 0
 83.9765625 622.344726562 79.330078125 617.774414062 72.953125 584.421875 c 0
 64.5263671875 540.443359375 51.294921875 496.306640625 50.017578125 451.701171875 c 0
 49.8671875 446.166992188 50.71484375 416.1796875 50.8427734375 414.984375 c 1
 55.193359375 353.681640625 75.4091796875 296.3671875 114.850585938 245.946289062 c 1
 124.33984375 231.7265625 134.995117188 218.295898438 146.962890625 205.446289062 c 1
294.0703125 207.427734375 m 2
 294.013671875 207.366210938 l 1
 293.962890625 207.298828125 l 0
 285.727539062 196.172851562 277.935546875 184.74609375 270.891601562 172.916015625 c 0
 247.79296875 134.12890625 254.629882812 61.1611328125 286.182617188 31.955078125 c 0
 301.819335938 17.490234375 324.81640625 11.8251953125 343.184570312 1.154296875 c 0
 347.459960938 -1.3291015625 349.497070312 -6.9755859375 353.359375 -13.4521484375 c 1
 348.703125 -16.158203125 344.31640625 -19.53515625 340.584960938 -19.59375 c 0
 300.952148438 -20.169921875 261.306640625 -19.935546875 221.634765625 -19.935546875 c 0
 181.970703125 -19.935546875 142.329101562 -20.169921875 102.69140625 -19.59375 c 0
 98.8154296875 -19.533203125 95.458984375 -16.671875 89.9189453125 -13.4521484375 c 1
 93.2666015625 -7.8388671875 95.9462890625 -1.255859375 100.1015625 1.1533203125 c 0
 118.461914062 11.8251953125 141.46875 17.490234375 157.10546875 31.9541015625 c 0
 188.657226562 61.162109375 195.494140625 134.12890625 172.385742188 172.916015625 c 0
 165.342773438 184.74609375 157.548828125 196.172851562 149.32421875 207.297851562 c 0
 149.2734375 207.366210938 l 1
 149.215820312 207.428710938 l 0
 137.354492188 220.165039062 126.7109375 233.577148438 117.314453125 247.659179688 c 0
 117.282226562 247.706054688 l 1
 117.248046875 247.75 l 0
 78.17578125 297.700195312 58.15234375 354.365234375 53.8310546875 415.25 c 1
 53.744140625 416.06640625 52.875 446.411132812 53.015625 451.619140625 c 0
 54.27734375 495.68359375 67.4326171875 539.671875 75.900390625 583.857421875 c 0
 82.16015625 616.598632812 84.857421875 619.352539062 116.266601562 619.641601562 c 0
 118.970703125 619.670898438 324.307617188 619.670898438 327.0078125 619.641601562 c 0
 358.41015625 619.352539062 361.116210938 616.60546875 367.385742188 583.857421875 c 0
 375.844726562 539.670898438 389.008789062 495.6875 390.251953125 451.618164062 c 0
 390.40234375 446.422851562 389.530273438 416.048828125 389.4453125 415.25 c 1
 385.124023438 354.365234375 365.110351562 297.700195312 326.018554688 247.750976562 c 0
 325.983398438 247.706054688 l 1
 325.952148438 247.658203125 l 0
 316.565429688 233.577148438 305.921875 220.1640625 294.0703125 207.427734375 c 2
EndSplineSet
EndChar

StartChar: j
Encoding: 106 106 22
Width: 481
VWidth: 0
Flags: W
LayerCount: 2
Fore
SplineSet
423.771484375 489.375 m 0
 429.806640625 480.4296875 431.9453125 470.44921875 431.233398438 460.546875 c 0
 432.688476562 443.349609375 427.25 425.05859375 408.284179688 412.96875 c 0
 407.513671875 412.481445312 406.927734375 411.9140625 406.25390625 411.38671875 c 0
 399.231445312 399.27734375 372.123046875 26.357421875 365.237304688 1.9140625 c 0
 364.084960938 -5.2939453125 362.922851562 -12.470703125 361.848632812 -19.6494140625 c 0
 360.344726562 -19.7861328125 359.045898438 -19.921875 357.727539062 -20.05859375 c 0
 357.54296875 -20.4892578125 357.42578125 -20.9384765625 357.239257812 -21.3681640625 c 0
 318.5390625 -21.3681640625 279.583007812 -21.3486328125 240.725585938 -21.3291015625 c 0
 201.877929688 -21.34765625 162.913085938 -21.3681640625 124.221679688 -21.3681640625 c 0
 124.036132812 -20.9384765625 123.909179688 -20.4892578125 123.733398438 -20.05859375 c 0
 122.416015625 -19.921875 121.116210938 -19.7861328125 119.612304688 -19.6494140625 c 0
 118.528320312 -12.470703125 117.38671875 -5.29296875 116.21484375 1.9140625 c 0
 109.33984375 26.3583984375 82.2294921875 399.278320312 75.208984375 411.38671875 c 0
 74.5341796875 411.9140625 73.9482421875 412.481445312 73.16796875 412.96875 c 0
 54.212890625 425.05859375 48.7822265625 443.349609375 50.21875 460.546875 c 0
 49.515625 470.44921875 51.64453125 480.4296875 57.689453125 489.375 c 0
 66.830078125 521.1484375 61.64453125 552.3984375 63.548828125 583.876953125 c 0
 64.18359375 594.388671875 63.646484375 604.98046875 63.646484375 619.028320312 c 0
 66.72265625 619.194335938 69.6728515625 619.370117188 72.611328125 619.559570312 c 0
 76.8310546875 620.7421875 82.89453125 621.11328125 91.400390625 621.141601562 c 0
 96.341796875 621.162109375 101.2734375 621.147460938 106.21484375 621.162109375 c 0
 106.29296875 621.162109375 106.37109375 621.171875 106.458984375 621.171875 c 0
 115.462890625 621.180664062 124.466796875 621.180664062 133.4609375 621.196289062 c 0
 169.22265625 621.274414062 204.984375 621.342773438 240.7265625 621.323242188 c 0
 276.478515625 621.341796875 312.23046875 621.274414062 348.001953125 621.196289062 c 0
 356.99609375 621.181640625 366 621.181640625 375.00390625 621.171875 c 0
 375.08203125 621.171875 375.159179688 621.162109375 375.248046875 621.162109375 c 0
 380.188476562 621.147460938 385.12109375 621.162109375 390.061523438 621.141601562 c 0
 398.557617188 621.11328125 404.622070312 620.7421875 408.850585938 619.559570312 c 0
 411.790039062 619.370117188 414.739257812 619.194335938 417.805664062 619.028320312 c 0
 417.805664062 604.981445312 417.27734375 594.389648438 417.913085938 583.876953125 c 0
 419.806640625 552.397460938 414.622070312 521.147460938 423.771484375 489.375 c 0
EndSplineSet
EndChar

StartChar: e
Encoding: 101 101 23
Width: 541
VWidth: 0
Flags: W
VStem: 139.678 261.709<-22.8311 267.379> 150.802 232.714<27.4757 248.471>
LayerCount: 2
Fore
SplineSet
390.263671875 100.0390625 m 0x40
 396.806640625 70.1171875 393.857421875 36.904296875 416.220703125 10.751953125 c 0
 427.401367188 -2.294921875 414.364257812 -11.69921875 404.950195312 -18.076171875 c 0
 403.915039062 -18.7880859375 402.665039062 -19.2568359375 401.454101562 -19.7646484375 c 0
 401.4453125 -20.7900390625 401.38671875 -21.7763671875 401.38671875 -22.8310546875 c 1
 356.278320312 -22.8310546875 313.016601562 -22.861328125 270.536132812 -22.8408203125 c 0
 228.056640625 -22.8603515625 184.793945312 -22.8310546875 139.677734375 -22.8310546875 c 1x80
 139.677734375 -21.77734375 139.62890625 -20.7900390625 139.609375 -19.7646484375 c 0
 138.388671875 -19.2578125 137.16796875 -18.7890625 136.11328125 -18.076171875 c 0
 126.719726562 -11.69921875 113.65234375 -2.294921875 124.833984375 10.751953125 c 0
 147.227539062 36.904296875 144.258789062 70.1171875 150.801757812 100.0390625 c 0
 157.5390625 130.8203125 154.794921875 163.61328125 157.549804688 195.400390625 c 0
 159.434570312 217.176757812 151.201171875 232.28515625 136.553710938 248.475585938 c 0
 45.7236328125 348.846679688 30.0595703125 456.141601562 72.421875 581.629882812 c 0
 82.822265625 612.46875 97.12890625 622.46875 129.619140625 622.611328125 c 0
 134.82421875 622.634765625 140.009765625 622.625 145.1953125 622.64453125 c 0
 146.884765625 622.66015625 148.495117188 622.678710938 150.302734375 622.68359375 c 0
 169.052734375 622.733398438 187.802734375 622.733398438 206.552734375 622.772460938 c 0
 227.890625 622.795898438 249.208007812 622.860351562 270.536132812 622.849609375 c 0
 291.85546875 622.860351562 313.192382812 622.795898438 334.500976562 622.772460938 c 0
 353.260742188 622.733398438 372.030273438 622.733398438 390.780273438 622.68359375 c 0
 392.567382812 622.678710938 394.168945312 622.66015625 395.858398438 622.64453125 c 0
 401.0546875 622.625976562 406.259765625 622.634765625 411.454101562 622.611328125 c 0
 443.92578125 622.469726562 458.232421875 612.469726562 468.642578125 581.629882812 c 0
 511.004882812 456.141601562 495.341796875 348.846679688 404.51171875 248.475585938 c 0
 389.853515625 232.28515625 381.620117188 217.176757812 383.515625 195.400390625 c 0
 386.259765625 163.61328125 383.525390625 130.8203125 390.263671875 100.0390625 c 0x40
EndSplineSet
EndChar

StartChar: f
Encoding: 102 102 24
Width: 495
VWidth: 0
Flags: W
LayerCount: 2
Fore
SplineSet
50 621.34765625 m 1
 445.15625 620.966796875 l 1
 361.689453125 -17.9287109375 l 1
 314.74609375 -19.98046875 314.482421875 -21.8359375 247.578125 -20.986328125 c 0
 212.12890625 -22.3525390625 179.58984375 -19.541015625 133.461914062 -17.5390625 c 1
 50 621.34765625 l 1
EndSplineSet
EndChar

StartChar: g
Encoding: 103 103 25
Width: 303
VWidth: 0
Flags: W
VStem: 50.3545 202.538<288.788 621.342> 139.348 24.5527<25.1359 163.146>
LayerCount: 2
Fore
SplineSet
252.892578125 436.73828125 m 0x80
 256.037109375 359.873046875 238.234375 287.607421875 200.98046875 222.421875 c 0
 173.342773438 174.073242188 164.3984375 125.860351562 163.900390625 71.5634765625 c 0
 163.538085938 32.34375 182.678710938 10.6640625 209.592773438 -9.16015625 c 0
 216.311523438 -14.1005859375 226.545898438 -14.2568359375 235.159179688 -16.611328125 c 1
 234.661132812 -17.8505859375 234.171875 -19.0615234375 233.68359375 -20.3017578125 c 0
 234.104492188 -20.654296875 234.534179688 -20.947265625 234.944335938 -21.3466796875 c 1
 234.397460938 -21.3466796875 233.821289062 -21.3466796875 233.263671875 -21.3466796875 c 0
 178.831054688 -21.3466796875 124.426757812 -21.3466796875 69.9931640625 -21.3466796875 c 0
 69.4267578125 -21.3466796875 68.861328125 -21.3466796875 68.3037109375 -21.3466796875 c 1
 68.7138671875 -20.947265625 69.14453125 -20.654296875 69.564453125 -20.3017578125 c 0
 69.0751953125 -19.0615234375 68.5869140625 -17.8505859375 68.0888671875 -16.611328125 c 1
 76.7021484375 -14.2578125 86.9365234375 -14.1005859375 93.6552734375 -9.16015625 c 0
 120.569335938 10.6650390625 139.71875 32.34375 139.34765625 71.5634765625 c 0x40
 138.860351562 125.859375 129.905273438 174.072265625 102.267578125 222.421875 c 0
 65.01171875 287.607421875 47.208984375 359.873046875 50.3544921875 436.73828125 c 0
 50.4609375 439.27734375 50.451171875 441.81640625 50.548828125 444.35546875 c 0
 49.4072265625 478.260742188 50.3544921875 512.557617188 51.349609375 547.142578125 c 0
 51.134765625 571.366210938 50.8515625 595.907226562 50.8515625 621.341796875 c 1
 51.5068359375 621.341796875 52.1220703125 621.341796875 52.7861328125 621.341796875 c 0
 121.223632812 621.341796875 184.016601562 621.341796875 250.461914062 621.341796875 c 0
 251.125976562 621.341796875 251.741210938 621.341796875 252.405273438 621.341796875 c 1
 252.405273438 595.908203125 252.112304688 571.3671875 251.897460938 547.142578125 c 0
 252.892578125 512.557617188 253.849609375 478.260742188 252.698242188 444.35546875 c 0
 252.794921875 441.81640625 252.794921875 439.27734375 252.892578125 436.73828125 c 0x80
EndSplineSet
EndChar

StartChar: h
Encoding: 104 104 26
Width: 668
VWidth: 0
Flags: W
HStem: 451.329 49.2568<429.442 567.732>
VStem: 50 399.865<-19.2032 115.68 170.957 333.931> 63.3984 362.343<174.789 447.995> 75.1758 349.941<178.613 449.257 505.124 621.241>
LayerCount: 2
Fore
SplineSet
50 -21.201171875 m 1xc0
 50 38.837890625 50.458984375 104.658203125 51.962890625 146.591796875 c 0
 53.876953125 200.15625 60.83984375 307.16796875 63.3984375 360.703125 c 0xa0
 66.513671875 425.83984375 70.56640625 531.079101562 75.17578125 621.323242188 c 1
 131.034179688 621.323242188 184.84375 621.323242188 238.6328125 621.323242188 c 0
 284.931640625 621.323242188 425.234375 621.25 425.234375 621.25 c 1
 425.234375 621.25 421.85546875 608.994140625 425.1171875 576.953125 c 0x90
 426.142578125 566.997070312 425.088867188 556.8359375 425.420898438 546.77734375 c 0
 426.524414062 513.315429688 436.006835938 502.7734375 471.290039062 500.5859375 c 0
 497.353515625 498.974609375 523.61328125 500.673828125 549.766601562 500.15625 c 0
 586.065429688 499.404296875 585.596679688 497.303710938 595.694335938 460.682617188 c 0
 610.948242188 405.428710938 612.198242188 348.408203125 618.0390625 292.254882812 c 0
 623.37109375 241.004882812 606.407226562 196.151367188 553.72265625 171.064453125 c 0
 527.47265625 158.564453125 504.220703125 139.588867188 480.216796875 122.65625 c 0
 459.845703125 108.260742188 444.376953125 91.2109375 449.38671875 62.646484375 c 0
 451.779296875 48.9638671875 450.333984375 34.521484375 449.865234375 20.44921875 c 0
 448.693359375 -13.291015625 441.818359375 -20.83984375 406.750976562 -21.005859375 c 0
 290.107421875 -21.54296875 173.466796875 -21.201171875 50 -21.201171875 c 1xc0
443.173828125 170.95703125 m 1
 474.052734375 186.025390625 505.068359375 197.6953125 532.16796875 215.3515625 c 0
 557.401367188 231.827148438 575.575195312 253.526367188 571.328125 290.323242188 c 0
 566.483398438 332.090820312 570.858398438 374.864257812 569.912109375 417.188476562 c 0
 569.393554688 440.25390625 560.09765625 449.55078125 537.772460938 450.772460938 c 0
 515.653320312 451.993164062 493.436523438 451.71875 471.268554688 451.329101562 c 0
 431.864257812 450.625976562 426.795898438 445.362304688 425.741210938 406.368164062 c 0
 423.6328125 328.916015625 439.638671875 252.79296875 443.173828125 170.95703125 c 1
EndSplineSet
EndChar

StartChar: d
Encoding: 100 100 27
Width: 553
VWidth: 0
Flags: W
VStem: 251.307 51.1709<30.7023 121.325>
LayerCount: 2
Fore
SplineSet
303.833007812 121.494140625 m 0
 303.198242188 117.880859375 302.709960938 114.1015625 302.477539062 109.970703125 c 0
 300.641601562 76.5048828125 300.309570312 43.26171875 308.200195312 30.0693359375 c 0
 312.263671875 25.7919921875 317.13671875 22.12890625 323.005859375 19.1904296875 c 0
 358.904296875 1.2802734375 396.209960938 0.4501953125 438.025390625 -17.9775390625 c 0
 439.40234375 -18.486328125 440.779296875 -18.9736328125 442.146484375 -19.482421875 c 1
 442.078125 -19.560546875 442.009765625 -19.619140625 441.931640625 -19.70703125 c 1
 447.517578125 -22.177734375 452.888671875 -24.501953125 458.650390625 -27.08984375 c 1
 450.671875 -27.08984375 442.985351562 -27.08984375 435.046875 -27.08984375 c 0
 331.823242188 -27.08984375 228.356445312 -27.08984375 118.737304688 -27.08984375 c 0
 110.817382812 -27.08984375 103.112304688 -27.08984375 95.1337890625 -27.08984375 c 1
 100.895507812 -24.501953125 106.266601562 -22.177734375 111.852539062 -19.70703125 c 1
 111.774414062 -19.619140625 111.716796875 -19.5595703125 111.657226562 -19.482421875 c 1
 113.015625 -18.9736328125 114.392578125 -18.486328125 115.759765625 -17.9775390625 c 0
 157.575195312 0.4501953125 194.899414062 1.2802734375 230.7890625 19.1904296875 c 0
 236.638671875 22.1298828125 241.521484375 25.7919921875 245.59375 30.0693359375 c 0
 253.495117188 43.26171875 253.142578125 76.50390625 251.306640625 109.970703125 c 0
 251.091796875 114.100585938 250.603515625 117.880859375 249.958984375 121.494140625 c 0
 244.508789062 137.049804688 236.071289062 151.083007812 212.770507812 157.186523438 c 0
 212.545898438 157.215820312 212.360351562 157.28515625 212.145507812 157.314453125 c 0
 210.4765625 157.568359375 208.825195312 158.06640625 207.166015625 158.662109375 c 0
 192.537109375 161.38671875 178.366210938 166.231445312 164.782226562 172.548828125 c 0
 132.537109375 185.556640625 110.486328125 203.427734375 93.884765625 228.4765625 c 0
 77.8486328125 248.487304688 65.4462890625 271.767578125 57.9462890625 297.3046875 c 0
 52.3603515625 314.00390625 49.255859375 330.91796875 50.1533203125 346.328125 c 0
 49.6455078125 362.4609375 50.8369140625 379.061523438 54.5087890625 396.03515625 c 0
 69.1279296875 463.709960938 98.94140625 528.159179688 122.61328125 593.807617188 c 0
 129.60546875 613.133789062 136.754882812 628.446289062 165.611328125 627.000976562 c 0
 175.81640625 626.483398438 186.05078125 626.274414062 196.275390625 625.9609375 c 0
 223.140625 625.471679688 250.015625 625.038085938 276.890625 624.901367188 c 0
 303.765625 625.038085938 330.640625 625.47265625 357.505859375 625.9609375 c 0
 367.729492188 626.2734375 377.96484375 626.483398438 388.198242188 627.000976562 c 0
 417.026367188 628.447265625 424.17578125 613.133789062 431.16796875 593.807617188 c 0
 454.858398438 528.159179688 484.653320312 463.7109375 499.272460938 396.03515625 c 0
 502.954101562 379.061523438 504.145507812 362.4609375 503.627929688 346.328125 c 0
 504.525390625 330.91796875 501.420898438 314.00390625 495.834960938 297.3046875 c 0
 488.354492188 271.767578125 475.932617188 248.487304688 459.916992188 228.4765625 c 0
 443.295898438 203.427734375 424.331054688 187.813476562 388.999023438 172.548828125 c 0
 375.424804688 166.23046875 361.245117188 161.38671875 346.615234375 158.662109375 c 0
 344.965820312 158.06640625 343.315429688 157.568359375 341.635742188 157.314453125 c 0
 341.420898438 157.28515625 341.245117188 157.215820312 341.010742188 157.186523438 c 0
 317.709960938 151.083984375 309.291992188 137.05078125 303.833007812 121.494140625 c 0
EndSplineSet
EndChar

StartChar: c
Encoding: 99 99 28
Width: 469
VWidth: 0
Flags: W
HStem: -22.3721 58.5645<336.153 412.534>
VStem: 50.0039 241.64<349.538 602.164> 61.8584 213.662<290.292 623.428>
LayerCount: 2
Fore
SplineSet
102.279296875 -21.279296875 m 1xa0
 102.279296875 34.140625 99.759765625 85.205078125 103.0703125 135.849609375 c 0
 105.736328125 176.552734375 96.76171875 215.478515625 90.0732421875 254.151367188 c 0
 80.5517578125 309.296875 68.021484375 364.052734375 57.513671875 419.112304688 c 0
 49.818359375 459.384765625 49.984375 498.487304688 50.00390625 538.0234375 c 0xc0
 50.04296875 565.025390625 57.142578125 592.05078125 61.8583984375 624.340820312 c 1xa0
 126.516601562 624.340820312 191.096679688 625.15625 255.608398438 623.427734375 c 0
 264.778320312 623.173828125 279.602539062 611.94921875 281.526367188 603.491210938 c 0
 287.875 575.205078125 295.755859375 544.956054688 291.643554688 517.137695312 c 0xc0
 284.641601562 469.764648438 281.340820312 421.81640625 275.520507812 374.482421875 c 0
 268.625976562 318.348632812 246.565429688 264.404296875 250.891601562 206.8359375 c 0
 251.438476562 199.912109375 252.844726562 191.15234375 249.524414062 186.171875 c 0
 237.494140625 168.1640625 237.932617188 152.315429688 247.787109375 132.724609375 c 0
 259.505859375 109.384765625 268.158203125 86.5732421875 295.990234375 75.9765625 c 0
 324.309570312 65.185546875 350.78515625 49.5322265625 378.137695312 36.1923828125 c 0
 382.727539062 33.9462890625 388.801757812 33.6328125 392.336914062 30.4208984375 c 0
 403.518554688 20.2548828125 423.411132812 12.8916015625 418.831054688 -4.9697265625 c 0
 414.26953125 -22.6162109375 395.715820312 -22.6650390625 379.172851562 -22.3720703125 c 0
 342.180664062 -21.7177734375 305.188476562 -22.3623046875 268.206054688 -22.0107421875 c 0
 259.73828125 -21.9326171875 250.090820312 -22.197265625 242.98046875 -18.4560546875 c 0
 221.30078125 -7.0595703125 204.46484375 -4.8330078125 179.8359375 -19.1787109375 c 0
 161.615234375 -29.82421875 132.201171875 -21.279296875 102.279296875 -21.279296875 c 1xa0
EndSplineSet
EndChar

StartChar: k
Encoding: 107 107 29
Width: 440
VWidth: 0
Flags: W
HStem: -21.0938 23.5449<89.2103 121.958 318.539 351.294>
VStem: 50.0332 340.428<321.617 577.942>
LayerCount: 2
Fore
SplineSet
342.55078125 2.451171875 m 0
 347.814453125 -0.60546875 350.333984375 -8.3984375 354.116210938 -14.013671875 c 1
 349.145507812 -16.4853515625 344.212890625 -21.015625 339.22265625 -21.09375 c 0
 299.564453125 -21.669921875 259.916015625 -21.435546875 220.248046875 -21.435546875 c 0
 180.58984375 -21.435546875 140.94140625 -21.669921875 101.283203125 -21.09375 c 0
 96.2919921875 -21.015625 91.361328125 -16.4853515625 86.3896484375 -14.013671875 c 1
 90.169921875 -8.3994140625 92.689453125 -0.6064453125 97.953125 2.451171875 c 0
 116.5859375 13.28125 139.4375 18.9453125 154.69140625 33.0556640625 c 0
 185.5703125 61.6396484375 192.455078125 133.973632812 169.7109375 172.1484375 c 0
 162.69921875 183.92578125 154.935546875 195.311523438 146.732421875 206.40625 c 0
 134.818359375 219.19921875 124.124023438 232.67578125 114.680664062 246.826171875 c 0
 75.4140625 297.01171875 55.287109375 354.0234375 50.951171875 415.1171875 c 0
 50.8427734375 416.123046875 50.833984375 417.1484375 50.736328125 418.1640625 c 0
 50.541015625 421.298828125 50.39453125 424.43359375 50.27734375 427.587890625 c 0
 50.19921875 430.274414062 50.0234375 432.958984375 50.033203125 435.64453125 c 0
 49.974609375 440.967773438 49.9853515625 446.290039062 50.130859375 451.661132812 c 0
 51.3896484375 495.99609375 64.5927734375 540.064453125 73.03125 584.140625 c 0
 79.359375 617.182617188 83.03125 620.849609375 114.8671875 621.137695312 c 0
 117.611328125 621.162109375 120.35546875 621.147460938 123.098632812 621.166992188 c 0
 123.997070312 621.181640625 124.709960938 621.25 125.637695312 621.25 c 0
 147.737304688 621.328125 169.857421875 621.376953125 191.965820312 621.42578125 c 0
 201.399414062 621.4296875 210.823242188 621.50390625 220.247070312 621.489257812 c 0
 229.670898438 621.50390625 239.104492188 621.430664062 248.538085938 621.42578125 c 0
 270.63671875 621.376953125 292.756835938 621.328125 314.866210938 621.25 c 0
 315.79296875 621.25 316.505859375 621.181640625 317.395507812 621.166992188 c 0
 320.138671875 621.1484375 322.893554688 621.162109375 325.63671875 621.137695312 c 0
 357.47265625 620.849609375 361.145507812 617.182617188 367.462890625 584.140625 c 0
 375.91015625 540.064453125 389.11328125 495.997070312 390.36328125 451.661132812 c 0
 390.520507812 446.290039062 390.529296875 440.966796875 390.4609375 435.64453125 c 0
 390.481445312 432.958984375 390.3046875 430.274414062 390.216796875 427.587890625 c 0
 390.110351562 424.43359375 389.962890625 421.298828125 389.768554688 418.1640625 c 0
 389.669921875 417.1484375 389.66015625 416.123046875 389.552734375 415.1171875 c 0
 385.216796875 354.0234375 365.08984375 297.01171875 325.813476562 246.826171875 c 0
 316.37890625 232.67578125 305.686523438 219.19921875 293.772460938 206.40625 c 0
 285.568359375 195.311523438 277.8046875 183.924804688 270.79296875 172.1484375 c 0
 248.048828125 133.973632812 254.934570312 61.6396484375 285.813476562 33.0556640625 c 0
 301.056640625 18.9453125 323.908203125 13.28125 342.55078125 2.451171875 c 0
EndSplineSet
EndChar

StartChar: b
Encoding: 98 98 30
Width: 357
VWidth: 0
Flags: W
VStem: 54.9756 250.898<345.149 622.852>
LayerCount: 2
Fore
SplineSet
54.9755859375 622.8515625 m 1
 138.82421875 622.8515625 221.000976562 622.8515625 306.801757812 622.8515625 c 1
 306.801757812 568.663085938 309.702148438 515.95703125 305.874023438 463.759765625 c 0
 302.89453125 423.251953125 291.8984375 383.310546875 283.745117188 343.272460938 c 0
 277.993164062 315.040039062 267.680664062 287.315429688 265.35546875 258.88671875 c 0
 261.4296875 210.556640625 250.091796875 163.095703125 253.138671875 113.759765625 c 0
 255.375 77.4033203125 254.45703125 41.54296875 270.571289062 7.4814453125 c 0
 276.987304688 -6.11328125 268.120117188 -21.494140625 253.452148438 -21.81640625 c 0
 204.10546875 -22.91015625 154.653320312 -23.544921875 105.366210938 -21.572265625 c 0
 90.9228515625 -21.005859375 86.8408203125 -12.0703125 92.806640625 6.9921875 c 0
 111.224609375 65.95703125 110.833984375 128.65234375 102.982421875 188.486328125 c 0
 95.970703125 241.953125 88.2373046875 295.95703125 75.0234375 349.256835938 c 0
 53.3544921875 436.767578125 43.1787109375 526.9140625 54.9755859375 622.8515625 c 1
EndSplineSet
EndChar

StartChar: i
Encoding: 105 105 31
Width: 362
VWidth: 0
Flags: W
VStem: 52.5811 256.975<321.566 619.602>
LayerCount: 2
Fore
SplineSet
309.555664062 618.3203125 m 1
 309.555664062 572.2265625 316.713867188 528.30078125 307.208984375 488.3203125 c 0
 300.099609375 458.377929688 300.9296875 429.658203125 297.86328125 400.389648438 c 0
 294.591796875 369.19921875 289.09375 338.182617188 286.10546875 306.932617188 c 0
 281.212890625 255.663085938 282.39453125 203.250976562 271.623046875 153.348632812 c 0
 264.807617188 121.77734375 270.891601562 87.0888671875 258.625 60.6435546875 c 0
 246.067382812 33.6318359375 256.233398438 24.2568359375 271.809570312 11.2685546875 c 0
 277.620117188 6.4248046875 285.901367188 4.6279296875 292.288085938 0.2919921875 c 0
 294.885742188 -1.4755859375 297.473632812 -7.1396484375 296.477539062 -9.5126953125 c 0
 294.59375 -14.0830078125 290.140625 -20.9677734375 286.702148438 -20.9970703125 c 0
 267.336914062 -21.1630859375 251.907226562 -21.2900390625 238.196289062 -21.3583984375 c 1
 238.254882812 -21.3974609375 238.303710938 -21.4462890625 238.362304688 -21.4951171875 c 1
 214.768554688 -21.4951171875 196.936523438 -21.5048828125 181.067382812 -21.5048828125 c 0
 165.198242188 -21.5048828125 147.375976562 -21.4951171875 123.782226562 -21.4951171875 c 1
 123.841796875 -21.4462890625 123.879882812 -21.3974609375 123.948242188 -21.3583984375 c 1
 110.237304688 -21.2900390625 94.796875 -21.1630859375 75.4423828125 -20.9970703125 c 0
 72.0048828125 -20.9677734375 67.5419921875 -14.0830078125 65.6572265625 -9.5126953125 c 0
 64.6611328125 -7.1396484375 67.2490234375 -1.4755859375 69.8564453125 0.2919921875 c 0
 76.2333984375 4.6279296875 84.5244140625 6.4248046875 90.3349609375 11.2685546875 c 0
 105.912109375 24.2568359375 116.068359375 33.6318359375 103.51953125 60.6435546875 c 0
 91.2431640625 87.0888671875 97.3271484375 121.77734375 90.51171875 153.348632812 c 0
 79.740234375 203.250976562 80.921875 255.663085938 76.029296875 306.932617188 c 0
 73.05078125 338.182617188 67.5419921875 369.19921875 64.271484375 400.389648438 c 0
 61.2138671875 429.658203125 62.0341796875 458.37890625 54.92578125 488.3203125 c 0
 45.43359375 528.299804688 52.5810546875 572.225585938 52.5810546875 618.3203125 c 1
 59.92578125 618.876953125 67.259765625 619.243164062 74.5830078125 619.619140625 c 0
 74.7099609375 620.196289062 74.80859375 620.9765625 74.935546875 621.469726562 c 0
 86.17578125 621.142578125 97.435546875 621.000976562 108.6953125 620.927734375 c 0
 132.884765625 621.4609375 157.004882812 621.391601562 181.068359375 621.197265625 c 0
 205.130859375 621.391601562 229.251953125 621.459960938 253.451171875 620.927734375 c 0
 264.7109375 621.000976562 275.9609375 621.142578125 287.2109375 621.469726562 c 0
 287.319335938 620.975585938 287.436523438 620.1953125 287.553710938 619.619140625 c 0
 294.887695312 619.243164062 302.2109375 618.876953125 309.555664062 618.3203125 c 1
EndSplineSet
EndChar

StartChar: a
Encoding: 97 97 32
Width: 456
VWidth: 0
Flags: W
LayerCount: 2
Fore
SplineSet
405.28125 340.91796875 m 0
 406.43359375 331.4453125 407.029296875 322.021484375 406.970703125 312.6953125 c 0
 407.165039062 285.536132812 402.673828125 258.338867188 388.620117188 231.258789062 c 0
 366.666992188 188.963867188 339.811523438 156.668945312 295.993164062 140.584960938 c 0
 293.112304688 139.208007812 290.202148438 137.840820312 287.145507812 136.668945312 c 0
 281.6953125 134.579101562 276.940429688 131.883789062 272.799804688 128.700195312 c 0
 269.840820312 125.565429688 267.497070312 121.981445312 266.647460938 118.6796875 c 0
 261.784179688 99.685546875 258.766601562 80.1259765625 256.305664062 60.5751953125 c 0
 256.16796875 58.640625 256.022460938 56.716796875 255.885742188 54.8134765625 c 0
 254.986328125 41.74609375 258.072265625 32.546875 266.75390625 25.876953125 c 0
 270.669921875 23.2890625 275.376953125 21.12109375 281.001953125 19.216796875 c 0
 311.061523438 9.109375 342.02734375 -0.578125 374.840820312 -21.49609375 c 1
 373.551757812 -21.49609375 372.301757812 -21.49609375 371.022460938 -21.49609375 c 0
 271.872070312 -21.49609375 182.536132812 -21.49609375 85.9541015625 -21.49609375 c 0
 84.6650390625 -21.49609375 83.4150390625 -21.49609375 82.1259765625 -21.49609375 c 1
 114.948242188 -0.578125 145.915039062 9.1103515625 175.96484375 19.216796875 c 0
 181.58984375 21.12109375 186.306640625 23.2890625 190.22265625 25.876953125 c 0
 198.89453125 32.546875 201.989257812 41.7470703125 201.091796875 54.8134765625 c 0
 200.954101562 56.7177734375 200.798828125 58.640625 200.670898438 60.5751953125 c 0
 198.209960938 80.125 195.192382812 99.685546875 190.319335938 118.6796875 c 0
 189.479492188 121.981445312 187.135742188 125.565429688 184.176757812 128.700195312 c 0
 180.036132812 131.883789062 175.270507812 134.579101562 169.821289062 136.668945312 c 0
 166.764648438 137.840820312 163.864257812 139.208007812 160.973632812 140.584960938 c 0
 117.1640625 156.668945312 90.3095703125 188.963867188 68.3466796875 231.258789062 c 0
 54.29296875 258.33984375 49.8017578125 285.546875 50.0068359375 312.6953125 c 0
 49.9375 322.022460938 50.533203125 331.455078125 51.6953125 340.91796875 c 0
 52.7314453125 350.682617188 54.1474609375 360.44921875 55.7587890625 370.1953125 c 0
 63.541015625 417.2265625 84.2841796875 462.110351562 92.2236328125 509.130859375 c 0
 98.1806640625 544.458007812 101.188476562 582.203125 85.3876953125 621.435546875 c 1
 134.508789062 621.435546875 181.852539062 621.485351562 228.483398438 621.485351562 c 0
 275.124023438 621.485351562 322.46875 621.435546875 371.579101562 621.435546875 c 1
 355.778320312 582.202148438 358.795898438 544.458007812 364.752929688 509.130859375 c 0
 372.693359375 462.109375 393.435546875 417.225585938 401.21875 370.1953125 c 0
 402.830078125 360.44921875 404.236328125 350.68359375 405.28125 340.91796875 c 0
EndSplineSet
EndChar

StartChar: q
Encoding: 113 113 33
Width: 618
VWidth: 0
Flags: W
HStem: -2.14941 50.0752<361.453 426.761> 62.082 9.71582<371.72 372.949> 146.022 10<379.881 434.041> 168.404 10.001<450.029 452.078> 173.515 10<385.565 448.36> 219.298 10<288.376 314.738> 273.029 10<200.498 226.735> 310.952 9.97461<401.499 466.848> 333.943 10<521.899 552.792> 396.651 10<164.478 180.515> 420.278 10<318.477 350.127> 451.89 10.001<314.125 329.464> 641.045 20G<320.262 328.254>
VStem: 103.636 9.66113<285.455 421.213> 143.988 9.99023<282.207 376.206> 240.648 9.99512<302.92 338.962> 487.86 9.85742<336.68 393.319>
LayerCount: 2
Fore
SplineSet
439.889648438 311.041992188 m 0xf7ff80
 438.76171875 311.041992188 437.602539062 311.024414062 436.44140625 310.987304688 c 0
 436.263671875 310.98046875 436.048828125 310.966796875 435.833007812 310.952148438 c 2
 435.803710938 310.950195312 l 1
 435.7734375 310.948242188 l 2
 410.658203125 309.329101562 386.8359375 303.840820312 364.96875 294.634765625 c 0
 343.10546875 285.4296875 322.537109375 272.232421875 303.833984375 255.407226562 c 0
 303.798828125 255.374023438 303.762695312 255.341796875 303.7265625 255.309570312 c 1
 344.205078125 246.9921875 363.508789062 232.044921875 378.73828125 199.674804688 c 0
 385.239257812 185.850585938 389.009765625 183.514648438 397.040039062 183.514648438 c 0xefff80
 398.641601562 183.514648438 400.438476562 183.641601562 402.381835938 183.893554688 c 0
 404.724609375 184.197265625 407.198242188 184.349609375 409.731445312 184.349609375 c 0
 418.265625 184.349609375 426.634765625 182.659179688 434.728515625 181.022460938 c 0
 440.067382812 179.943359375 445.109375 178.922851562 450.029296875 178.40234375 c 2
 450.040039062 178.405273438 l 2
 450.672851562 178.405273438 451.537109375 178.615234375 452.104492188 178.825195312 c 0
 466.009765625 200.022460938 479.712890625 223.170898438 486.510742188 248.89453125 c 0
 491.712890625 268.576171875 490.146484375 284.583007812 481.98046875 295.188476562 c 0
 473.994140625 305.559570312 459.439453125 311.041992188 439.889648438 311.041992188 c 0xf7ff80
439.889648438 321.04296875 m 1
 486.54296875 321.04296875 508.393554688 292.547851562 496.178710938 246.338867188 c 0
 489.038085938 219.3203125 475.002929688 195.424804688 459.791015625 172.311523438 c 0
 458.232421875 169.94921875 453.533203125 168.404296875 450.0390625 168.404296875 c 0xf7ff80
 449.668945312 168.404296875 449.3125 168.421875 448.974609375 168.45703125 c 0
 435.874023438 169.845703125 422.524414062 174.349609375 409.731445312 174.349609375 c 0
 407.694335938 174.349609375 405.671875 174.236328125 403.666992188 173.9765625 c 0
 401.275390625 173.666992188 399.078125 173.514648438 397.041015625 173.514648438 c 0
 382.451171875 173.514648438 376.3046875 181.350585938 369.689453125 195.41796875 c 0
 353.458984375 229.91796875 333.083984375 241.5078125 284.26171875 248.5078125 c 1
 289.331054688 254.1953125 292.837890625 258.965820312 297.146484375 262.840820312 c 0
 336.396484375 298.150390625 382.416015625 317.529296875 435.130859375 320.926757812 c 0
 435.462890625 320.951171875 435.794921875 320.969726562 436.126953125 320.982421875 c 0
 437.401367188 321.0234375 438.650390625 321.04296875 439.889648438 321.04296875 c 1
336.16796875 420.278320312 m 0
 331.956054688 420.278320312 327.381835938 419.236328125 322.568359375 417.181640625 c 0
 310.868164062 412.182617188 301.923828125 406.954101562 295.227539062 401.196289062 c 0
 284.98046875 392.385742188 275.009765625 382.66796875 265.368164062 373.26953125 c 0
 258.915039062 366.98046875 252.243164062 360.4765625 245.466796875 354.21875 c 0
 242.692382812 351.65625 242.182617188 350.258789062 242.091796875 349.77734375 c 0
 241.91796875 348.848632812 242.509765625 347.127929688 243.715820312 345.0546875 c 0
 248.323242188 337.141601562 250.848632812 328.297851562 250.643554688 320.793945312 c 0
 250.223632812 305.370117188 258.786132812 295.825195312 273.71875 284.549804688 c 2
 273.80078125 284.48828125 l 2
 275.3359375 283.325195312 277.245117188 281.876953125 278.981445312 279.897460938 c 0
 278.991210938 279.884765625 279.000976562 279.875 279.009765625 279.864257812 c 0
 279.34375 280.09765625 279.754882812 280.407226562 280.250976562 280.813476562 c 0
 310.424804688 305.564453125 340.409179688 322.873046875 371.916015625 333.728515625 c 0
 373.990234375 334.443359375 375.221679688 335.079101562 375.9140625 335.51171875 c 2
 375.829101562 336.274414062 l 2
 372.798828125 363.428710938 369.889648438 384.120117188 360.009765625 403.114257812 c 0
 354.083984375 414.502929688 346.0625 420.278320312 336.16796875 420.278320312 c 0
336.16796875 430.278320312 m 1
 349.80078125 430.278320312 361.220703125 422.452148438 368.881835938 407.727539062 c 0
 379.854492188 386.633789062 382.854492188 363.493164062 385.768554688 337.381835938 c 0
 387.596679688 331.309570312 383.674804688 327.201171875 375.174804688 324.2734375 c 0
 342.393554688 312.977539062 313.28125 294.970703125 286.592773438 273.080078125 c 0
 283.625976562 270.649414062 281.04296875 269.262695312 278.552734375 269.262695312 c 0
 276.188476562 269.262695312 273.907226562 270.513671875 271.463867188 273.302734375 c 0
 270.377929688 274.541992188 269.017578125 275.565429688 267.693359375 276.569335938 c 0
 252.8046875 287.810546875 240.075195312 300.009765625 240.6484375 321.065429688 c 0
 240.821289062 327.380859375 238.321289062 334.448242188 235.075195312 340.024414062 c 0
 229.9375 348.849609375 231.515625 354.944335938 238.68359375 361.565429688 c 0
 255.529296875 377.124023438 271.341796875 393.845703125 288.708984375 408.778320312 c 0
 297.366210938 416.220703125 308.052734375 421.853515625 318.642578125 426.377929688 c 0
 324.77734375 428.999023438 330.654296875 430.278320312 336.16796875 430.278320312 c 1
323.821289062 642.850585938 m 1
 319.796875 636.930664062 316.24609375 631.658203125 312.904296875 626.231445312 c 0
 297.673828125 601.501953125 283.6875 578.404296875 270.145507812 555.6171875 c 0
 267.813476562 551.693359375 267.771484375 548.927734375 269.983398438 545.052734375 c 0
 273.736328125 538.47265625 276.994140625 531.677734375 280.142578125 525.107421875 c 0
 283.21484375 518.696289062 286.1171875 512.641601562 289.430664062 506.791992188 c 0
 297.85546875 491.9140625 306.725585938 477.63671875 315.795898438 464.358398438 c 0
 317.038085938 462.538085938 319.595703125 461.890625 321.576171875 461.890625 c 0
 323.768554688 461.890625 325.837890625 462.6484375 326.848632812 463.819335938 c 0
 330.287109375 467.80078125 333.741210938 471.76953125 337.194335938 475.739257812 c 0
 348.548828125 488.786132812 360.2890625 502.276367188 371.1171875 515.96484375 c 0
 373.036132812 518.390625 374.397460938 523.360351562 373.973632812 526.390625 c 0
 369.578125 557.776367188 356.536132812 586.215820312 338.3046875 619.26171875 c 0
 334.002929688 627.065429688 329.056640625 634.741210938 323.821289062 642.850585938 c 1
324.056640625 661.044921875 m 1
 332.451171875 647.651367188 340.376953125 636.212890625 347.061523438 624.091796875 c 0
 363.811523438 593.731445312 379.002929688 562.58984375 383.877929688 527.776367188 c 0
 384.682617188 522.022460938 382.564453125 514.317382812 378.959960938 509.759765625 c 0
 364.733398438 491.775390625 349.413085938 474.65625 334.420898438 457.28515625 c 0
 331.337890625 453.711914062 326.47265625 451.889648438 321.576171875 451.889648438 c 0
 316.141601562 451.889648438 310.666992188 454.133789062 307.538085938 458.716796875 c 0
 297.995117188 472.690429688 289.068359375 487.134765625 280.728515625 501.862304688 c 0
 273.689453125 514.287109375 268.373046875 527.692382812 261.298828125 540.09375 c 0
 257.044921875 547.544921875 257.658203125 554.177734375 261.548828125 560.724609375 c 0
 275.6328125 584.423828125 289.931640625 608 304.388671875 631.474609375 c 0
 310.116210938 640.772460938 316.466796875 649.681640625 324.056640625 661.044921875 c 1
236.559570312 539.280273438 m 1
 236.389648438 539.051757812 236.220703125 538.82421875 236.051757812 538.596679688 c 0
 228.850585938 528.932617188 221.404296875 518.94140625 214.455078125 508.952148438 c 0
 198.712890625 486.319335938 187.665039062 463.919921875 180.678710938 440.474609375 c 0
 180.376953125 439.461914062 180.204101562 438.768554688 180.104492188 438.297851562 c 0
 180.107421875 438.296875 180.109375 438.294921875 180.11328125 438.293945312 c 0
 197.26171875 427.922851562 212.041992188 413.764648438 225.1875 395.095703125 c 1
 245.772460938 417.983398438 267.024414062 434.33203125 290.796875 445.547851562 c 1
 270.041992188 474.4921875 249.568359375 504.607421875 236.559570312 539.280273438 c 1
237.8828125 557.849609375 m 1
 238.946289062 557.6328125 240.0078125 557.41796875 241.069335938 557.203125 c 0
 253.86328125 514.2890625 279.330078125 478.505859375 306.188476562 441.283203125 c 1
 272.990234375 428.361328125 247.467773438 406.611328125 224.975585938 379.559570312 c 1
 222.6171875 382.204101562 220.725585938 383.889648438 219.358398438 385.924804688 c 0
 207.5078125 403.543945312 193.1796875 418.704101562 174.936523438 429.736328125 c 0
 168.846679688 433.419921875 169.444335938 437.787109375 171.094726562 443.330078125 c 0
 178.776367188 469.111328125 190.962890625 492.689453125 206.24609375 514.662109375 c 0
 216.43359375 529.306640625 227.3125 543.470703125 237.8828125 557.849609375 c 1
413.599609375 146.022460938 m 0
 382.354492188 146.022460938 353.1875 133.340820312 332.302734375 110.9453125 c 0
 333.994140625 109.170898438 335.672851562 107.405273438 337.327148438 105.666992188 c 0
 348.072265625 94.373046875 358.220703125 83.7060546875 368.961914062 73.263671875 c 0
 369.620117188 72.673828125 371.719726562 71.8388671875 372.94921875 71.7978515625 c 0
 393.908203125 77.712890625 411.451171875 85.248046875 426.568359375 94.8271484375 c 0
 443.030273438 105.256835938 456.3046875 117.88671875 467.108398438 133.407226562 c 1
 450.174804688 141.68359375 431.857421875 146.022460938 413.599609375 146.022460938 c 0
413.599609375 156.022460938 m 1
 436.223632812 156.022460938 459.385742188 149.936523438 480.71484375 137.450195312 c 0
 479.286132812 134.71484375 478.079101562 131.739257812 476.3125 129.140625 c 0
 451.795898438 93.06640625 416.111328125 73.5380859375 375.338867188 62.0810546875 c 0
 374.643554688 61.8857421875 373.8671875 61.7958984375 373.040039062 61.7958984375 c 0
 369.264648438 61.7958984375 364.473632812 63.6796875 361.991210938 66.0927734375 c 0
 347.255859375 80.4169921875 333.280273438 95.51953125 318.802734375 110.58984375 c 1
 342.583007812 140.450195312 377.407226562 156.022460938 413.599609375 156.022460938 c 1
415.353515625 516.497070312 m 1
 402.819335938 501.865234375 l 1
 358.770507812 450.447265625 l 1
 387.099609375 434.459960938 396.720703125 406.750976562 404.0078125 379.3984375 c 0
 406.197265625 371.182617188 407.956054688 362.754882812 409.432617188 355.500976562 c 0
 409.559570312 354.877929688 409.673828125 354.2578125 409.78515625 353.64453125 c 0
 409.79296875 353.600585938 409.80078125 353.555664062 409.80859375 353.510742188 c 0
 410.004882812 353.541992188 410.159179688 353.575195312 410.276367188 353.603515625 c 0
 410.416015625 353.939453125 410.6328125 354.573242188 410.853515625 355.672851562 c 0
 416.3671875 383.135742188 422.196289062 410.997070312 427.833007812 437.940429688 c 0
 430.411132812 450.26171875 432.989257812 462.583984375 435.546875 474.91015625 c 0
 435.641601562 475.373046875 435.754882812 475.861328125 435.87109375 476.361328125 c 0
 435.911132812 476.53125 435.95703125 476.728515625 436.002929688 476.9296875 c 0
 429.397460938 489.8671875 422.56640625 502.8203125 415.353515625 516.497070312 c 1
417.337890625 534.18359375 m 1
 427.560546875 514.747070312 436.869140625 497.276367188 445.846679688 479.638671875 c 0
 446.725585938 477.91015625 445.799804688 475.103515625 445.338867188 472.876953125 c 0
 437.096679688 433.155273438 428.642578125 393.473632812 420.659179688 353.701171875 c 0
 419.208984375 346.49609375 416.044921875 343.727539062 408.763671875 343.373046875 c 0
 408.477539062 343.359375 408.203125 343.3515625 407.935546875 343.3515625 c 0
 400.708007812 343.3515625 400.666992188 348.426757812 399.634765625 353.505859375 c 0
 398.044921875 361.314453125 396.396484375 369.126953125 394.345703125 376.82421875 c 0
 386.482421875 406.341796875 376.380859375 434.358398438 342.595703125 446.935546875 c 1
 367.642578125 476.171875 391.705078125 504.26171875 417.337890625 534.18359375 c 1
302.543945312 219.297851562 m 0
 297.40625 219.297851562 291.578125 216.961914062 285.689453125 212.54296875 c 0
 281.393554688 209.317382812 277.342773438 206.135742188 275 202.66796875 c 0
 259.890625 180.301757812 244.96875 157.197265625 230.538085938 134.852539062 c 2
 229.922851562 133.901367188 l 2
 231.125976562 134 232.32421875 134.09765625 233.514648438 134.197265625 c 0
 249.741210938 135.53515625 265.067382812 136.797851562 280.219726562 138.315429688 c 0
 282.346679688 138.528320312 284.499023438 138.692382812 286.580078125 138.848632812 c 0
 293.873046875 139.403320312 300.760742188 139.924804688 305.6796875 142.385742188 c 0
 318.236328125 148.668945312 330.41015625 157.022460938 342.181640625 165.099609375 c 0
 343.739257812 166.166992188 345.293945312 167.235351562 346.850585938 168.297851562 c 0
 345.428710938 170.612304688 344.020507812 172.928710938 342.64453125 175.194335938 c 0
 334.856445312 188.014648438 327.5 200.124023438 318.400390625 210.751953125 c 0
 313.547851562 216.422851562 308.211914062 219.297851562 302.543945312 219.297851562 c 0
302.543945312 229.297851562 m 1
 310.96484375 229.297851562 318.994140625 225.436523438 325.999023438 217.254882812 c 0
 338.174804688 203.033203125 347.424804688 186.266601562 357.393554688 170.266601562 c 0
 358.495117188 168.501953125 356.814453125 162.982421875 354.791992188 161.607421875 c 0
 340.224609375 151.715820312 325.823242188 141.283203125 310.155273438 133.443359375 c 0
 301.751953125 129.240234375 290.99609375 129.344726562 281.216796875 128.365234375 c 0
 259.482421875 126.189453125 237.693359375 124.555664062 212.716796875 122.426757812 c 1
 216.44140625 129.754882812 218.280273438 134.305664062 220.89453125 138.352539062 c 0
 236.01171875 161.758789062 251.119140625 185.180664062 266.71484375 208.266601562 c 0
 269.974609375 213.090820312 274.94140625 216.9765625 279.6875 220.540039062 c 0
 287.322265625 226.272460938 295.086914062 229.297851562 302.543945312 229.297851562 c 1
212.904296875 273.029296875 m 0
 206.688476562 273.029296875 200.766601562 269.634765625 195.302734375 262.935546875 c 0
 188.08984375 254.099609375 182.424804688 243.849609375 176.427734375 232.998046875 c 0
 173.787109375 228.219726562 171.056640625 223.279296875 168.180664062 218.466796875 c 0
 167.905273438 218.005859375 167.760742188 217.680664062 167.685546875 217.483398438 c 0
 167.888671875 217.150390625 168.405273438 216.439453125 169.61328125 215.330078125 c 0
 184.333007812 201.806640625 196.677734375 185.258789062 206.408203125 166.029296875 c 1
 219.443359375 192.075195312 235.293945312 216.48828125 253.65625 238.78515625 c 0
 252.8828125 239.775390625 252.110351562 240.768554688 251.337890625 241.763671875 c 0
 244.513671875 250.548828125 238.069335938 258.84375 230.388671875 265.322265625 c 0
 224.407226562 270.364257812 218.360351562 273.029296875 212.904296875 273.029296875 c 0
212.904296875 283.029296875 m 1
 220.767578125 283.029296875 228.91796875 279.641601562 236.834960938 272.965820312 c 0
 246.850585938 264.521484375 254.7890625 253.5 262.977539062 243.1015625 c 0
 264.489257812 241.1796875 264.024414062 235.625 262.299804688 233.546875 c 0
 240.450195312 207.2265625 222.611328125 178.481445312 208.586914062 147.317382812 c 0
 208.228515625 146.524414062 207.206054688 146.024414062 205.909179688 144.868164062 c 1
 204.491210938 147.403320312 203.051757812 149.540039062 202.034179688 151.860351562 c 0
 192.698242188 173.171875 180.009765625 192.19921875 162.84765625 207.96484375 c 0
 157.607421875 212.778320312 155.8984375 217.41015625 159.595703125 223.59765625 c 0
 168.763671875 238.938476562 176.370117188 255.55859375 187.553710938 269.258789062 c 0
 195.087890625 278.4921875 203.803710938 283.029296875 212.904296875 283.029296875 c 1
171.213867188 396.651367188 m 0
 167.284179688 396.651367188 163.5078125 392.067382812 161.110351562 384.390625 c 0
 157.060546875 371.413085938 154.727539062 356.26171875 153.978515625 338.072265625 c 0
 153.13671875 317.65625 155.625976562 297.58984375 160.122070312 275.55078125 c 1
 171.806640625 291.970703125 185.985351562 302.424804688 203.3359375 307.44140625 c 0
 205.5078125 308.069335938 207.823242188 308.541992188 210.060546875 309 c 0
 211.493164062 309.29296875 213.538085938 309.711914062 215.119140625 310.1328125 c 0
 214.801757812 312.58984375 213.716796875 316.321289062 213.116210938 318.383789062 c 0
 212.67578125 319.89453125 212.220703125 321.458984375 211.82421875 323.008789062 c 0
 205.798828125 346.556640625 199.1796875 369.20703125 184.549804688 387.498046875 c 0
 179.965820312 393.23046875 174.98046875 396.651367188 171.213867188 396.651367188 c 0
171.213867188 406.651367188 m 1
 178.002929688 406.651367188 185.465820312 402.36328125 192.360351562 393.745117188 c 0
 208.350585938 373.752929688 215.313476562 349.717773438 221.512695312 325.489257812 c 0
 223.309570312 318.466796875 226.758789062 310.034179688 224.375976562 304.392578125 c 0
 222.668945312 300.345703125 212.560546875 299.697265625 206.114257812 297.833984375 c 0
 188.2109375 292.658203125 175.440429688 281.055664062 165.578125 265.779296875 c 0
 162.602539062 261.172851562 159.83203125 256.43359375 155.694335938 249.6796875 c 1
 148.251953125 280.494140625 142.779296875 309.189453125 143.98828125 338.482421875 c 0
 144.6640625 354.896484375 146.69921875 371.775390625 151.565429688 387.369140625 c 0
 155.568359375 400.196289062 162.883789062 406.651367188 171.213867188 406.651367188 c 1
467.235351562 468.126953125 m 1
 465.299804688 452.138671875 463.165039062 435.823242188 460.107421875 419.790039062 c 0
 456.391601562 400.315429688 451.272460938 380.81640625 446.322265625 361.958984375 c 0
 445.130859375 357.418945312 443.916015625 352.794921875 442.713867188 348.140625 c 1
 444.439453125 347.9609375 446.208984375 347.716796875 447.991210938 347.369140625 c 0
 449.75 347.026367188 451.518554688 346.696289062 453.291015625 346.366210938 c 0
 461.98046875 344.747070312 470.965820312 343.073242188 479.637695312 339.692382812 c 2
 480.583007812 339.323242188 l 2
 483.111328125 338.3359375 485.682617188 337.33203125 487.860351562 336.5390625 c 1
 487.869140625 339.172851562 487.795898438 342.403320312 487.72265625 345.577148438 c 2
 487.721679688 345.635742188 l 1
 487.708984375 346.170898438 l 2
 487.68359375 347.2734375 487.66015625 348.315429688 487.604492188 349.3046875 c 0
 485.3828125 388.030273438 478.541015625 427.924804688 467.235351562 468.126953125 c 1
464.505859375 504.880859375 m 1
 466.966796875 499.237304688 469.978515625 493.759765625 471.799804688 487.915039062 c 0
 485.815429688 442.920898438 494.885742188 396.9765625 497.588867188 349.860351562 c 0
 497.663085938 348.528320312 497.686523438 347.196289062 497.717773438 345.864257812 c 0
 498.06640625 330.624023438 498.203125 324.987304688 492.912109375 324.987304688 c 0
 489.685546875 324.987304688 484.44140625 327.08203125 476.002929688 330.374023438 c 0
 466.524414062 334.0703125 456.145507812 335.586914062 446.072265625 337.553710938 c 0
 440.622070312 338.619140625 434.951171875 338.547851562 430.055664062 338.939453125 c 1
 437.033203125 366.986328125 445.016601562 394.06640625 450.283203125 421.6640625 c 0
 455.481445312 448.915039062 457.927734375 476.690429688 461.583984375 504.233398438 c 0
 462.556640625 504.447265625 463.533203125 504.666015625 464.505859375 504.880859375 c 1
551.53125 333.943359375 m 0
 542.971679688 333.943359375 534.704101562 332.014648438 525.951171875 329.973632812 c 0
 524.521484375 329.640625 523.094726562 329.307617188 521.666992188 328.984375 c 0
 520.86328125 328.80078125 520.282226562 328.627929688 519.87109375 328.483398438 c 0
 519.916992188 327.838867188 520.051757812 326.82421875 520.40625 325.307617188 c 0
 523.76953125 310.873046875 525.706054688 296.95703125 526.221679688 283.576171875 c 1
 528.553710938 291.952148438 532.404296875 300.34375 537.889648438 309.196289062 c 0
 542.422851562 316.51171875 547.748046875 325.155273438 552.869140625 333.78515625 c 0
 552.895507812 333.83203125 552.923828125 333.877929688 552.951171875 333.924804688 c 1
 552.479492188 333.936523438 552.006835938 333.943359375 551.53125 333.943359375 c 0
524.2421875 249.268554688 m 1
 519.255859375 218.349609375 505.478515625 190.833984375 482.973632812 166.956054688 c 1
 484.123046875 167.72265625 485.573242188 168.775390625 487.318359375 170.107421875 c 0
 494.178710938 175.337890625 499.543945312 180.374023438 503.7265625 185.505859375 c 0
 518.19921875 203.26171875 525.0859375 224.68359375 524.2421875 249.268554688 c 1
551.53125 343.943359375 m 1
 556.89453125 343.943359375 562.446289062 343.293945312 568.26953125 341.637695312 c 1
 565.41796875 336.170898438 563.625 332.318359375 561.46875 328.680664062 c 0
 556.538085938 320.372070312 551.479492188 312.141601562 546.389648438 303.926757812 c 0
 537.475585938 289.544921875 532.171875 274.912109375 533.776367188 256.989257812 c 0
 536.315429688 228.708007812 529.932617188 201.829101562 511.479492188 179.188476562 c 0
 506.284179688 172.813476562 499.94921875 167.161132812 493.385742188 162.157226562 c 0
 487.497070312 157.663085938 483.981445312 155.446289062 480.322265625 155.446289062 c 0
 476.508789062 155.446289062 472.5390625 157.852539062 465.568359375 162.59765625 c 1
 466.448242188 163.860351562 467.134765625 165.321289062 468.228515625 166.34765625 c 0
 514.420898438 209.903320312 524.561523438 263.408203125 510.666992188 323.03515625 c 0
 508.428710938 332.623046875 510.616210938 336.727539062 519.452148438 338.736328125 c 0
 529.89453125 341.108398438 540.306640625 343.943359375 551.53125 343.943359375 c 1
119.236328125 421.212890625 m 1
 120.510742188 402.053710938 118.538085938 382.961914062 113.296875 363.3671875 c 0
 107.244140625 340.73828125 107.40234375 319.5078125 113.78125 298.463867188 c 0
 115.728515625 292.032226562 118.239257812 285.680664062 121.333007812 279.368164062 c 1
 116.154296875 319.46484375 118.551757812 356.48828125 128.518554688 391.651367188 c 0
 129.069335938 393.590820312 129.197265625 396.016601562 128.8515625 397.990234375 c 0
 127.377929688 406.421875 124.139648438 413.852539062 119.236328125 421.212890625 c 1
105.934570312 451.841796875 m 1
 122.0078125 435.831054688 135.03515625 420.693359375 138.703125 399.711914062 c 0
 139.309570312 396.239257812 139.104492188 392.318359375 138.139648438 388.922851562 c 0
 124.045898438 339.204101562 126.821289062 289.614257812 138.877929688 240.05078125 c 0
 139.331054688 238.188476562 139.706054688 236.3046875 140.116210938 234.43359375 c 1
 106.510742188 272.576171875 90.1318359375 315.462890625 103.635742188 365.951171875 c 0
 110.303710938 390.877929688 111.463867188 415.73828125 106.602539062 440.998046875 c 0
 106.069335938 443.776367188 106.229492188 446.68359375 105.934570312 451.841796875 c 1
389.673828125 582.5703125 m 1
 393.068359375 573.509765625 396.502929688 564.345703125 400.001953125 555.0078125 c 1
 400.216796875 555.305664062 400.43359375 555.60546875 400.651367188 555.905273438 c 2
 403.684570312 560.084960938 l 1
 405.704101562 562.868164062 l 1
 400.880859375 569.776367188 395.54296875 576.334960938 389.673828125 582.5703125 c 1
366.517578125 615.860351562 m 1
 397.779296875 593.470703125 420.791015625 565.083984375 434.731445312 529.463867188 c 1
 427.387695312 537.381835938 420.044921875 545.297851562 411.779296875 554.213867188 c 1
 406.904296875 547.495117188 402.927734375 542.012695312 397.166015625 534.077148438 c 1
 386.458984375 562.651367188 376.491210938 589.254882812 366.517578125 615.860351562 c 1
301.884765625 -6.7548828125 m 0
 256.35546875 -6.4150390625 223.15625 9.8193359375 194.514648438 36.1435546875 c 0
 183.517578125 46.25390625 174.06640625 58.0185546875 163.577148438 68.703125 c 0
 157.517578125 74.875 159.489257812 78.4296875 165.997070312 82.45703125 c 0
 187.938476562 96.0478515625 212.295898438 102.754882812 237.209960938 107.622070312 c 0
 253.201171875 110.747070312 269.391601562 113.079101562 285.602539062 114.708007812 c 0
 290.184570312 115.168945312 296.283203125 113.197265625 299.735351562 110.141601562 c 0
 319.891601562 92.3056640625 338.365234375 72.640625 344.205078125 45.3828125 c 0
 346.626953125 34.0712890625 344.830078125 21.7578125 344.248046875 9.9326171875 c 0
 343.888671875 2.609375 338.669921875 -1.1298828125 331.755859375 -2.2431640625 c 0
 319.948242188 -4.1376953125 308.103515625 -5.8212890625 301.884765625 -6.7548828125 c 0
53.1083984375 340.13671875 m 0
 59.5146484375 334.353515625 67.669921875 329.642578125 71.9921875 322.584960938 c 0
 83.4140625 303.928710938 93.5078125 284.428710938 103.462890625 264.924804688 c 0
 108.7421875 254.576171875 112.552734375 243.482421875 117.16796875 232.787109375 c 0
 123.091796875 219.069335938 131.123046875 207.380859375 144.91015625 199.927734375 c 0
 150.84375 196.720703125 156.5859375 191.564453125 160.162109375 185.873046875 c 0
 174.09375 163.708984375 187.125 140.974609375 201.05859375 117.498046875 c 1
 196.400390625 114.727539062 193.79296875 112.844726562 190.921875 111.529296875 c 0
 178.217773438 105.705078125 165.036132812 100.783203125 152.805664062 94.107421875 c 0
 142.061523438 88.244140625 134.639648438 90.990234375 126.28125 98.6025390625 c 0
 92.947265625 128.954101562 75.056640625 166.908203125 69.796875 211.141601562 c 0
 68.34765625 223.321289062 68.357421875 235.680664062 67.76171875 247.961914062 c 0
 66.2724609375 278.749023438 66.328125 309.806640625 50 337.897460938 c 0
 51.03515625 338.642578125 52.07421875 339.390625 53.1083984375 340.13671875 c 0
318.802734375 110.590820312 m 1
 357.447265625 159.114257812 425.263671875 169.911132812 480.71484375 137.451171875 c 0
 479.286132812 134.715820312 478.079101562 131.740234375 476.3125 129.141601562 c 0
 451.795898438 93.0673828125 416.111328125 73.5390625 375.338867188 62.08203125 c 0
 371.474609375 60.99609375 365.017578125 63.1533203125 361.991210938 66.09375 c 0
 347.255859375 80.41796875 333.280273438 95.521484375 318.802734375 110.590820312 c 1
508.284179688 147.771484375 m 1
 492.127929688 61.7578125 449.041015625 16.35546875 373.072265625 -2.1494140625 c 0
 364.994140625 -4.1171875 360.938476562 -2.75390625 360.958984375 6.03515625 c 0
 360.970703125 11.6708984375 360.370117188 17.37890625 361.017578125 22.9423828125 c 0
 363.341796875 42.83203125 365.306640625 44.87890625 384.669921875 47.92578125 c 0
 418.455078125 53.23828125 443.806640625 72.609375 465.791015625 97.0830078125 c 0
 479.970703125 112.873046875 493.107421875 129.590820312 508.284179688 147.771484375 c 1
265.072265625 -16.8251953125 m 1
 223.07421875 -41.1220703125 160.684570312 -25.9970703125 109.356445312 13.2734375 c 1
 125.874023438 26.7080078125 140.745117188 41.3291015625 140.213867188 63.0791015625 c 1
 160.139648438 48.3359375 179.065429688 32.7392578125 199.57421875 19.6064453125 c 0
 220.203125 6.3935546875 242.40625 -4.3603515625 265.072265625 -16.8251953125 c 1
EndSplineSet
EndChar

StartChar: r
Encoding: 114 114 34
Width: 618
VWidth: 0
Flags: W
HStem: -2.14941 50.0752<361.453 426.761> 62.082 9.71582<371.72 372.949> 133.443 95.8545<279.242 320.913> 146.022 10<379.881 434.041> 168.404 10.001<450.029 452.078> 173.515 10<385.565 448.36> 273.029 10<200.498 226.735> 310.952 9.97461<401.499 466.848> 333.943 10<521.899 552.792> 396.651 10<164.478 180.515> 420.278 10<318.477 350.127> 451.89 10.001<314.125 329.464> 641.045 20G<320.262 328.254>
VStem: 103.636 9.66113<285.455 421.213> 143.988 9.99023<282.207 376.206> 240.648 9.99512<302.92 338.962> 487.86 9.85742<336.68 393.319>
LayerCount: 2
Fore
SplineSet
439.889648438 311.041992188 m 0xcbff80
 438.76171875 311.041992188 437.602539062 311.024414062 436.44140625 310.987304688 c 0
 436.263671875 310.98046875 436.048828125 310.966796875 435.833007812 310.952148438 c 2
 435.803710938 310.950195312 l 1
 435.7734375 310.948242188 l 2
 410.658203125 309.329101562 386.8359375 303.840820312 364.96875 294.634765625 c 0
 343.10546875 285.4296875 322.537109375 272.232421875 303.833984375 255.407226562 c 0
 303.798828125 255.374023438 303.762695312 255.341796875 303.7265625 255.309570312 c 1
 344.205078125 246.9921875 363.508789062 232.044921875 378.73828125 199.674804688 c 0
 385.239257812 185.850585938 389.009765625 183.514648438 397.040039062 183.514648438 c 0xc7ff80
 398.641601562 183.514648438 400.438476562 183.641601562 402.381835938 183.893554688 c 0
 404.724609375 184.197265625 407.198242188 184.349609375 409.731445312 184.349609375 c 0
 418.265625 184.349609375 426.634765625 182.659179688 434.728515625 181.022460938 c 0
 440.067382812 179.943359375 445.109375 178.922851562 450.029296875 178.40234375 c 2
 450.040039062 178.405273438 l 2
 450.672851562 178.405273438 451.537109375 178.615234375 452.104492188 178.825195312 c 0
 466.009765625 200.022460938 479.712890625 223.170898438 486.510742188 248.89453125 c 0
 491.712890625 268.576171875 490.146484375 284.583007812 481.98046875 295.188476562 c 0
 473.994140625 305.559570312 459.439453125 311.041992188 439.889648438 311.041992188 c 0xcbff80
439.889648438 321.04296875 m 1
 486.54296875 321.04296875 508.393554688 292.547851562 496.178710938 246.338867188 c 0
 489.038085938 219.3203125 475.002929688 195.424804688 459.791015625 172.311523438 c 0
 458.232421875 169.94921875 453.533203125 168.404296875 450.0390625 168.404296875 c 0xcbff80
 449.668945312 168.404296875 449.3125 168.421875 448.974609375 168.45703125 c 0
 435.874023438 169.845703125 422.524414062 174.349609375 409.731445312 174.349609375 c 0
 407.694335938 174.349609375 405.671875 174.236328125 403.666992188 173.9765625 c 0
 401.275390625 173.666992188 399.078125 173.514648438 397.041015625 173.514648438 c 0
 382.451171875 173.514648438 376.3046875 181.350585938 369.689453125 195.41796875 c 0
 353.458984375 229.91796875 333.083984375 241.5078125 284.26171875 248.5078125 c 1
 289.331054688 254.1953125 292.837890625 258.965820312 297.146484375 262.840820312 c 0
 336.396484375 298.150390625 382.416015625 317.529296875 435.130859375 320.926757812 c 0
 435.462890625 320.951171875 435.794921875 320.969726562 436.126953125 320.982421875 c 0
 437.401367188 321.0234375 438.650390625 321.04296875 439.889648438 321.04296875 c 1
336.16796875 420.278320312 m 0
 331.956054688 420.278320312 327.381835938 419.236328125 322.568359375 417.181640625 c 0
 310.868164062 412.182617188 301.923828125 406.954101562 295.227539062 401.196289062 c 0
 284.98046875 392.385742188 275.009765625 382.66796875 265.368164062 373.26953125 c 0
 258.915039062 366.98046875 252.243164062 360.4765625 245.466796875 354.21875 c 0
 242.692382812 351.65625 242.182617188 350.258789062 242.091796875 349.77734375 c 0
 241.91796875 348.848632812 242.509765625 347.127929688 243.715820312 345.0546875 c 0
 248.323242188 337.141601562 250.848632812 328.297851562 250.643554688 320.793945312 c 0
 250.223632812 305.370117188 258.786132812 295.825195312 273.71875 284.549804688 c 2
 273.80078125 284.48828125 l 2
 275.3359375 283.325195312 277.245117188 281.876953125 278.981445312 279.897460938 c 0
 278.991210938 279.884765625 279.000976562 279.875 279.009765625 279.864257812 c 0
 279.34375 280.09765625 279.754882812 280.407226562 280.250976562 280.813476562 c 0
 310.424804688 305.564453125 340.409179688 322.873046875 371.916015625 333.728515625 c 0
 373.990234375 334.443359375 375.221679688 335.079101562 375.9140625 335.51171875 c 2
 375.829101562 336.274414062 l 2
 372.798828125 363.428710938 369.889648438 384.120117188 360.009765625 403.114257812 c 0
 354.083984375 414.502929688 346.0625 420.278320312 336.16796875 420.278320312 c 0
336.16796875 430.278320312 m 1
 349.80078125 430.278320312 361.220703125 422.452148438 368.881835938 407.727539062 c 0
 379.854492188 386.633789062 382.854492188 363.493164062 385.768554688 337.381835938 c 0
 387.596679688 331.309570312 383.674804688 327.201171875 375.174804688 324.2734375 c 0
 342.393554688 312.977539062 313.28125 294.970703125 286.592773438 273.080078125 c 0
 283.625976562 270.649414062 281.04296875 269.262695312 278.552734375 269.262695312 c 0
 276.188476562 269.262695312 273.907226562 270.513671875 271.463867188 273.302734375 c 0
 270.377929688 274.541992188 269.017578125 275.565429688 267.693359375 276.569335938 c 0
 252.8046875 287.810546875 240.075195312 300.009765625 240.6484375 321.065429688 c 0
 240.821289062 327.380859375 238.321289062 334.448242188 235.075195312 340.024414062 c 0
 229.9375 348.849609375 231.515625 354.944335938 238.68359375 361.565429688 c 0
 255.529296875 377.124023438 271.341796875 393.845703125 288.708984375 408.778320312 c 0
 297.366210938 416.220703125 308.052734375 421.853515625 318.642578125 426.377929688 c 0
 324.77734375 428.999023438 330.654296875 430.278320312 336.16796875 430.278320312 c 1
323.821289062 642.850585938 m 1
 319.796875 636.930664062 316.24609375 631.658203125 312.904296875 626.231445312 c 0
 297.673828125 601.501953125 283.6875 578.404296875 270.145507812 555.6171875 c 0
 267.813476562 551.693359375 267.771484375 548.927734375 269.983398438 545.052734375 c 0
 273.736328125 538.47265625 276.994140625 531.677734375 280.142578125 525.107421875 c 0
 283.21484375 518.696289062 286.1171875 512.641601562 289.430664062 506.791992188 c 0
 297.85546875 491.9140625 306.725585938 477.63671875 315.795898438 464.358398438 c 0
 317.038085938 462.538085938 319.595703125 461.890625 321.576171875 461.890625 c 0
 323.768554688 461.890625 325.837890625 462.6484375 326.848632812 463.819335938 c 0
 330.287109375 467.80078125 333.741210938 471.76953125 337.194335938 475.739257812 c 0
 348.548828125 488.786132812 360.2890625 502.276367188 371.1171875 515.96484375 c 0
 373.036132812 518.390625 374.397460938 523.360351562 373.973632812 526.390625 c 0
 369.578125 557.776367188 356.536132812 586.215820312 338.3046875 619.26171875 c 0
 334.002929688 627.065429688 329.056640625 634.741210938 323.821289062 642.850585938 c 1
324.056640625 661.044921875 m 1
 332.451171875 647.651367188 340.376953125 636.212890625 347.061523438 624.091796875 c 0
 363.811523438 593.731445312 379.002929688 562.58984375 383.877929688 527.776367188 c 0
 384.682617188 522.022460938 382.564453125 514.317382812 378.959960938 509.759765625 c 0
 364.733398438 491.775390625 349.413085938 474.65625 334.420898438 457.28515625 c 0
 331.337890625 453.711914062 326.47265625 451.889648438 321.576171875 451.889648438 c 0
 316.141601562 451.889648438 310.666992188 454.133789062 307.538085938 458.716796875 c 0
 297.995117188 472.690429688 289.068359375 487.134765625 280.728515625 501.862304688 c 0
 273.689453125 514.287109375 268.373046875 527.692382812 261.298828125 540.09375 c 0
 257.044921875 547.544921875 257.658203125 554.177734375 261.548828125 560.724609375 c 0
 275.6328125 584.423828125 289.931640625 608 304.388671875 631.474609375 c 0
 310.116210938 640.772460938 316.466796875 649.681640625 324.056640625 661.044921875 c 1
236.559570312 539.280273438 m 1
 236.389648438 539.051757812 236.220703125 538.82421875 236.051757812 538.596679688 c 0
 228.850585938 528.932617188 221.404296875 518.94140625 214.455078125 508.952148438 c 0
 198.712890625 486.319335938 187.665039062 463.919921875 180.678710938 440.474609375 c 0
 180.376953125 439.461914062 180.204101562 438.768554688 180.104492188 438.297851562 c 0
 180.107421875 438.296875 180.109375 438.294921875 180.11328125 438.293945312 c 0
 197.26171875 427.922851562 212.041992188 413.764648438 225.1875 395.095703125 c 1
 245.772460938 417.983398438 267.024414062 434.33203125 290.796875 445.547851562 c 1
 270.041992188 474.4921875 249.568359375 504.607421875 236.559570312 539.280273438 c 1
237.8828125 557.849609375 m 1
 238.946289062 557.6328125 240.0078125 557.41796875 241.069335938 557.203125 c 0
 253.86328125 514.2890625 279.330078125 478.505859375 306.188476562 441.283203125 c 1
 272.990234375 428.361328125 247.467773438 406.611328125 224.975585938 379.559570312 c 1
 222.6171875 382.204101562 220.725585938 383.889648438 219.358398438 385.924804688 c 0
 207.5078125 403.543945312 193.1796875 418.704101562 174.936523438 429.736328125 c 0
 168.846679688 433.419921875 169.444335938 437.787109375 171.094726562 443.330078125 c 0
 178.776367188 469.111328125 190.962890625 492.689453125 206.24609375 514.662109375 c 0
 216.43359375 529.306640625 227.3125 543.470703125 237.8828125 557.849609375 c 1
413.599609375 146.022460938 m 0xd3ff80
 382.354492188 146.022460938 353.1875 133.340820312 332.302734375 110.9453125 c 0
 333.994140625 109.170898438 335.672851562 107.405273438 337.327148438 105.666992188 c 0
 348.072265625 94.373046875 358.220703125 83.7060546875 368.961914062 73.263671875 c 0
 369.620117188 72.673828125 371.719726562 71.8388671875 372.94921875 71.7978515625 c 0
 393.908203125 77.712890625 411.451171875 85.248046875 426.568359375 94.8271484375 c 0
 443.030273438 105.256835938 456.3046875 117.88671875 467.108398438 133.407226562 c 1
 450.174804688 141.68359375 431.857421875 146.022460938 413.599609375 146.022460938 c 0xd3ff80
413.599609375 156.022460938 m 1
 436.223632812 156.022460938 459.385742188 149.936523438 480.71484375 137.450195312 c 0
 479.286132812 134.71484375 478.079101562 131.739257812 476.3125 129.140625 c 0
 451.795898438 93.06640625 416.111328125 73.5380859375 375.338867188 62.0810546875 c 0
 374.643554688 61.8857421875 373.8671875 61.7958984375 373.040039062 61.7958984375 c 0
 369.264648438 61.7958984375 364.473632812 63.6796875 361.991210938 66.0927734375 c 0
 347.255859375 80.4169921875 333.280273438 95.51953125 318.802734375 110.58984375 c 1
 342.583007812 140.450195312 377.407226562 156.022460938 413.599609375 156.022460938 c 1
415.353515625 516.497070312 m 1
 402.819335938 501.865234375 l 1
 358.770507812 450.447265625 l 1
 387.099609375 434.459960938 396.720703125 406.750976562 404.0078125 379.3984375 c 0
 406.197265625 371.182617188 407.956054688 362.754882812 409.432617188 355.500976562 c 0
 409.559570312 354.877929688 409.673828125 354.2578125 409.78515625 353.64453125 c 0
 409.79296875 353.600585938 409.80078125 353.555664062 409.80859375 353.510742188 c 0
 410.004882812 353.541992188 410.159179688 353.575195312 410.276367188 353.603515625 c 0
 410.416015625 353.939453125 410.6328125 354.573242188 410.853515625 355.672851562 c 0
 416.3671875 383.135742188 422.196289062 410.997070312 427.833007812 437.940429688 c 0
 430.411132812 450.26171875 432.989257812 462.583984375 435.546875 474.91015625 c 0
 435.641601562 475.373046875 435.754882812 475.861328125 435.87109375 476.361328125 c 0
 435.911132812 476.53125 435.95703125 476.728515625 436.002929688 476.9296875 c 0
 429.397460938 489.8671875 422.56640625 502.8203125 415.353515625 516.497070312 c 1
417.337890625 534.18359375 m 1
 427.560546875 514.747070312 436.869140625 497.276367188 445.846679688 479.638671875 c 0
 446.725585938 477.91015625 445.799804688 475.103515625 445.338867188 472.876953125 c 0
 437.096679688 433.155273438 428.642578125 393.473632812 420.659179688 353.701171875 c 0
 419.208984375 346.49609375 416.044921875 343.727539062 408.763671875 343.373046875 c 0
 408.477539062 343.359375 408.203125 343.3515625 407.935546875 343.3515625 c 0
 400.708007812 343.3515625 400.666992188 348.426757812 399.634765625 353.505859375 c 0
 398.044921875 361.314453125 396.396484375 369.126953125 394.345703125 376.82421875 c 0
 386.482421875 406.341796875 376.380859375 434.358398438 342.595703125 446.935546875 c 1
 367.642578125 476.171875 391.705078125 504.26171875 417.337890625 534.18359375 c 1
302.543945312 219.297851562 m 0
 297.40625 219.297851562 291.578125 216.961914062 285.689453125 212.54296875 c 0
 281.393554688 209.317382812 277.342773438 206.135742188 275 202.66796875 c 0
 259.890625 180.301757812 244.96875 157.197265625 230.538085938 134.852539062 c 2
 229.922851562 133.901367188 l 2
 231.125976562 134 232.32421875 134.09765625 233.514648438 134.197265625 c 0
 249.741210938 135.53515625 265.067382812 136.797851562 280.219726562 138.315429688 c 0
 282.346679688 138.528320312 284.499023438 138.692382812 286.580078125 138.848632812 c 0
 293.873046875 139.403320312 300.760742188 139.924804688 305.6796875 142.385742188 c 0
 318.236328125 148.668945312 330.41015625 157.022460938 342.181640625 165.099609375 c 0
 343.739257812 166.166992188 345.293945312 167.235351562 346.850585938 168.297851562 c 0
 345.428710938 170.612304688 344.020507812 172.928710938 342.64453125 175.194335938 c 0
 334.856445312 188.014648438 327.5 200.124023438 318.400390625 210.751953125 c 0
 313.547851562 216.422851562 308.211914062 219.297851562 302.543945312 219.297851562 c 0
302.543945312 229.297851562 m 1xe3ff80
 310.96484375 229.297851562 318.994140625 225.436523438 325.999023438 217.254882812 c 0
 338.174804688 203.033203125 347.424804688 186.266601562 357.393554688 170.266601562 c 0
 358.495117188 168.501953125 356.814453125 162.982421875 354.791992188 161.607421875 c 0
 340.224609375 151.715820312 325.823242188 141.283203125 310.155273438 133.443359375 c 0
 301.751953125 129.240234375 290.99609375 129.344726562 281.216796875 128.365234375 c 0
 259.482421875 126.189453125 237.693359375 124.555664062 212.716796875 122.426757812 c 1
 216.44140625 129.754882812 218.280273438 134.305664062 220.89453125 138.352539062 c 0
 236.01171875 161.758789062 251.119140625 185.180664062 266.71484375 208.266601562 c 0
 269.974609375 213.090820312 274.94140625 216.9765625 279.6875 220.540039062 c 0
 287.322265625 226.272460938 295.086914062 229.297851562 302.543945312 229.297851562 c 1xe3ff80
212.904296875 273.029296875 m 0
 206.688476562 273.029296875 200.766601562 269.634765625 195.302734375 262.935546875 c 0
 188.08984375 254.099609375 182.424804688 243.849609375 176.427734375 232.998046875 c 0
 173.787109375 228.219726562 171.056640625 223.279296875 168.180664062 218.466796875 c 0
 167.905273438 218.005859375 167.760742188 217.680664062 167.685546875 217.483398438 c 0
 167.888671875 217.150390625 168.405273438 216.439453125 169.61328125 215.330078125 c 0
 184.333007812 201.806640625 196.677734375 185.258789062 206.408203125 166.029296875 c 1
 219.443359375 192.075195312 235.293945312 216.48828125 253.65625 238.78515625 c 0
 252.8828125 239.775390625 252.110351562 240.768554688 251.337890625 241.763671875 c 0
 244.513671875 250.548828125 238.069335938 258.84375 230.388671875 265.322265625 c 0
 224.407226562 270.364257812 218.360351562 273.029296875 212.904296875 273.029296875 c 0
212.904296875 283.029296875 m 1
 220.767578125 283.029296875 228.91796875 279.641601562 236.834960938 272.965820312 c 0
 246.850585938 264.521484375 254.7890625 253.5 262.977539062 243.1015625 c 0
 264.489257812 241.1796875 264.024414062 235.625 262.299804688 233.546875 c 0
 240.450195312 207.2265625 222.611328125 178.481445312 208.586914062 147.317382812 c 0
 208.228515625 146.524414062 207.206054688 146.024414062 205.909179688 144.868164062 c 1
 204.491210938 147.403320312 203.051757812 149.540039062 202.034179688 151.860351562 c 0
 192.698242188 173.171875 180.009765625 192.19921875 162.84765625 207.96484375 c 0
 157.607421875 212.778320312 155.8984375 217.41015625 159.595703125 223.59765625 c 0
 168.763671875 238.938476562 176.370117188 255.55859375 187.553710938 269.258789062 c 0
 195.087890625 278.4921875 203.803710938 283.029296875 212.904296875 283.029296875 c 1
171.213867188 396.651367188 m 0
 167.284179688 396.651367188 163.5078125 392.067382812 161.110351562 384.390625 c 0
 157.060546875 371.413085938 154.727539062 356.26171875 153.978515625 338.072265625 c 0
 153.13671875 317.65625 155.625976562 297.58984375 160.122070312 275.55078125 c 1
 171.806640625 291.970703125 185.985351562 302.424804688 203.3359375 307.44140625 c 0
 205.5078125 308.069335938 207.823242188 308.541992188 210.060546875 309 c 0
 211.493164062 309.29296875 213.538085938 309.711914062 215.119140625 310.1328125 c 0
 214.801757812 312.58984375 213.716796875 316.321289062 213.116210938 318.383789062 c 0
 212.67578125 319.89453125 212.220703125 321.458984375 211.82421875 323.008789062 c 0
 205.798828125 346.556640625 199.1796875 369.20703125 184.549804688 387.498046875 c 0
 179.965820312 393.23046875 174.98046875 396.651367188 171.213867188 396.651367188 c 0
171.213867188 406.651367188 m 1
 178.002929688 406.651367188 185.465820312 402.36328125 192.360351562 393.745117188 c 0
 208.350585938 373.752929688 215.313476562 349.717773438 221.512695312 325.489257812 c 0
 223.309570312 318.466796875 226.758789062 310.034179688 224.375976562 304.392578125 c 0
 222.668945312 300.345703125 212.560546875 299.697265625 206.114257812 297.833984375 c 0
 188.2109375 292.658203125 175.440429688 281.055664062 165.578125 265.779296875 c 0
 162.602539062 261.172851562 159.83203125 256.43359375 155.694335938 249.6796875 c 1
 148.251953125 280.494140625 142.779296875 309.189453125 143.98828125 338.482421875 c 0
 144.6640625 354.896484375 146.69921875 371.775390625 151.565429688 387.369140625 c 0
 155.568359375 400.196289062 162.883789062 406.651367188 171.213867188 406.651367188 c 1
467.235351562 468.126953125 m 1
 465.299804688 452.138671875 463.165039062 435.823242188 460.107421875 419.790039062 c 0
 456.391601562 400.315429688 451.272460938 380.81640625 446.322265625 361.958984375 c 0
 445.130859375 357.418945312 443.916015625 352.794921875 442.713867188 348.140625 c 1
 444.439453125 347.9609375 446.208984375 347.716796875 447.991210938 347.369140625 c 0
 449.75 347.026367188 451.518554688 346.696289062 453.291015625 346.366210938 c 0
 461.98046875 344.747070312 470.965820312 343.073242188 479.637695312 339.692382812 c 2
 480.583007812 339.323242188 l 2
 483.111328125 338.3359375 485.682617188 337.33203125 487.860351562 336.5390625 c 1
 487.869140625 339.172851562 487.795898438 342.403320312 487.72265625 345.577148438 c 2
 487.721679688 345.635742188 l 1
 487.708984375 346.170898438 l 2
 487.68359375 347.2734375 487.66015625 348.315429688 487.604492188 349.3046875 c 0
 485.3828125 388.030273438 478.541015625 427.924804688 467.235351562 468.126953125 c 1
464.505859375 504.880859375 m 1
 466.966796875 499.237304688 469.978515625 493.759765625 471.799804688 487.915039062 c 0
 485.815429688 442.920898438 494.885742188 396.9765625 497.588867188 349.860351562 c 0
 497.663085938 348.528320312 497.686523438 347.196289062 497.717773438 345.864257812 c 0
 498.06640625 330.624023438 498.203125 324.987304688 492.912109375 324.987304688 c 0
 489.685546875 324.987304688 484.44140625 327.08203125 476.002929688 330.374023438 c 0
 466.524414062 334.0703125 456.145507812 335.586914062 446.072265625 337.553710938 c 0
 440.622070312 338.619140625 434.951171875 338.547851562 430.055664062 338.939453125 c 1
 437.033203125 366.986328125 445.016601562 394.06640625 450.283203125 421.6640625 c 0
 455.481445312 448.915039062 457.927734375 476.690429688 461.583984375 504.233398438 c 0
 462.556640625 504.447265625 463.533203125 504.666015625 464.505859375 504.880859375 c 1
551.53125 333.943359375 m 0
 542.971679688 333.943359375 534.704101562 332.014648438 525.951171875 329.973632812 c 0
 524.521484375 329.640625 523.094726562 329.307617188 521.666992188 328.984375 c 0
 520.86328125 328.80078125 520.282226562 328.627929688 519.87109375 328.483398438 c 0
 519.916992188 327.838867188 520.051757812 326.82421875 520.40625 325.307617188 c 0
 523.76953125 310.873046875 525.706054688 296.95703125 526.221679688 283.576171875 c 1
 528.553710938 291.952148438 532.404296875 300.34375 537.889648438 309.196289062 c 0
 542.422851562 316.51171875 547.748046875 325.155273438 552.869140625 333.78515625 c 0
 552.895507812 333.83203125 552.923828125 333.877929688 552.951171875 333.924804688 c 1
 552.479492188 333.936523438 552.006835938 333.943359375 551.53125 333.943359375 c 0
524.2421875 249.268554688 m 1
 519.255859375 218.349609375 505.478515625 190.833984375 482.973632812 166.956054688 c 1
 484.123046875 167.72265625 485.573242188 168.775390625 487.318359375 170.107421875 c 0
 494.178710938 175.337890625 499.543945312 180.374023438 503.7265625 185.505859375 c 0
 518.19921875 203.26171875 525.0859375 224.68359375 524.2421875 249.268554688 c 1
551.53125 343.943359375 m 1
 556.89453125 343.943359375 562.446289062 343.293945312 568.26953125 341.637695312 c 1
 565.41796875 336.170898438 563.625 332.318359375 561.46875 328.680664062 c 0
 556.538085938 320.372070312 551.479492188 312.141601562 546.389648438 303.926757812 c 0
 537.475585938 289.544921875 532.171875 274.912109375 533.776367188 256.989257812 c 0
 536.315429688 228.708007812 529.932617188 201.829101562 511.479492188 179.188476562 c 0
 506.284179688 172.813476562 499.94921875 167.161132812 493.385742188 162.157226562 c 0
 487.497070312 157.663085938 483.981445312 155.446289062 480.322265625 155.446289062 c 0
 476.508789062 155.446289062 472.5390625 157.852539062 465.568359375 162.59765625 c 1
 466.448242188 163.860351562 467.134765625 165.321289062 468.228515625 166.34765625 c 0
 514.420898438 209.903320312 524.561523438 263.408203125 510.666992188 323.03515625 c 0
 508.428710938 332.623046875 510.616210938 336.727539062 519.452148438 338.736328125 c 0
 529.89453125 341.108398438 540.306640625 343.943359375 551.53125 343.943359375 c 1
119.236328125 421.212890625 m 1
 120.510742188 402.053710938 118.538085938 382.961914062 113.296875 363.3671875 c 0
 107.244140625 340.73828125 107.40234375 319.5078125 113.78125 298.463867188 c 0
 115.728515625 292.032226562 118.239257812 285.680664062 121.333007812 279.368164062 c 1
 116.154296875 319.46484375 118.551757812 356.48828125 128.518554688 391.651367188 c 0
 129.069335938 393.590820312 129.197265625 396.016601562 128.8515625 397.990234375 c 0
 127.377929688 406.421875 124.139648438 413.852539062 119.236328125 421.212890625 c 1
105.934570312 451.841796875 m 1
 122.0078125 435.831054688 135.03515625 420.693359375 138.703125 399.711914062 c 0
 139.309570312 396.239257812 139.104492188 392.318359375 138.139648438 388.922851562 c 0
 124.045898438 339.204101562 126.821289062 289.614257812 138.877929688 240.05078125 c 0
 139.331054688 238.188476562 139.706054688 236.3046875 140.116210938 234.43359375 c 1
 106.510742188 272.576171875 90.1318359375 315.462890625 103.635742188 365.951171875 c 0
 110.303710938 390.877929688 111.463867188 415.73828125 106.602539062 440.998046875 c 0
 106.069335938 443.776367188 106.229492188 446.68359375 105.934570312 451.841796875 c 1
389.673828125 582.5703125 m 1
 393.068359375 573.509765625 396.502929688 564.345703125 400.001953125 555.0078125 c 1
 400.216796875 555.305664062 400.43359375 555.60546875 400.651367188 555.905273438 c 2
 403.684570312 560.084960938 l 1
 405.704101562 562.868164062 l 1
 400.880859375 569.776367188 395.54296875 576.334960938 389.673828125 582.5703125 c 1
366.517578125 615.860351562 m 1
 397.779296875 593.470703125 420.791015625 565.083984375 434.731445312 529.463867188 c 1
 427.387695312 537.381835938 420.044921875 545.297851562 411.779296875 554.213867188 c 1
 406.904296875 547.495117188 402.927734375 542.012695312 397.166015625 534.077148438 c 1
 386.458984375 562.651367188 376.491210938 589.254882812 366.517578125 615.860351562 c 1
301.884765625 -6.7548828125 m 0
 256.35546875 -6.4150390625 223.15625 9.8193359375 194.514648438 36.1435546875 c 0
 183.517578125 46.25390625 174.06640625 58.0185546875 163.577148438 68.703125 c 0
 157.517578125 74.875 159.489257812 78.4296875 165.997070312 82.45703125 c 0
 187.938476562 96.0478515625 212.295898438 102.754882812 237.209960938 107.622070312 c 0
 253.201171875 110.747070312 269.391601562 113.079101562 285.602539062 114.708007812 c 0
 290.184570312 115.168945312 296.283203125 113.197265625 299.735351562 110.141601562 c 0
 319.891601562 92.3056640625 338.365234375 72.640625 344.205078125 45.3828125 c 0
 346.626953125 34.0712890625 344.830078125 21.7578125 344.248046875 9.9326171875 c 0
 343.888671875 2.609375 338.669921875 -1.1298828125 331.755859375 -2.2431640625 c 0
 319.948242188 -4.1376953125 308.103515625 -5.8212890625 301.884765625 -6.7548828125 c 0
53.1083984375 340.13671875 m 0
 59.5146484375 334.353515625 67.669921875 329.642578125 71.9921875 322.584960938 c 0
 83.4140625 303.928710938 93.5078125 284.428710938 103.462890625 264.924804688 c 0
 108.7421875 254.576171875 112.552734375 243.482421875 117.16796875 232.787109375 c 0
 123.091796875 219.069335938 131.123046875 207.380859375 144.91015625 199.927734375 c 0
 150.84375 196.720703125 156.5859375 191.564453125 160.162109375 185.873046875 c 0
 174.09375 163.708984375 187.125 140.974609375 201.05859375 117.498046875 c 1
 196.400390625 114.727539062 193.79296875 112.844726562 190.921875 111.529296875 c 0
 178.217773438 105.705078125 165.036132812 100.783203125 152.805664062 94.107421875 c 0
 142.061523438 88.244140625 134.639648438 90.990234375 126.28125 98.6025390625 c 0
 92.947265625 128.954101562 75.056640625 166.908203125 69.796875 211.141601562 c 0
 68.34765625 223.321289062 68.357421875 235.680664062 67.76171875 247.961914062 c 0
 66.2724609375 278.749023438 66.328125 309.806640625 50 337.897460938 c 0
 51.03515625 338.642578125 52.07421875 339.390625 53.1083984375 340.13671875 c 0
318.802734375 110.590820312 m 1
 357.447265625 159.114257812 425.263671875 169.911132812 480.71484375 137.451171875 c 0
 479.286132812 134.715820312 478.079101562 131.740234375 476.3125 129.141601562 c 0
 451.795898438 93.0673828125 416.111328125 73.5390625 375.338867188 62.08203125 c 0
 371.474609375 60.99609375 365.017578125 63.1533203125 361.991210938 66.09375 c 0
 347.255859375 80.41796875 333.280273438 95.521484375 318.802734375 110.590820312 c 1
212.716796875 122.426757812 m 1
 216.44140625 129.754882812 218.279296875 134.305664062 220.89453125 138.352539062 c 0
 236.01171875 161.758789062 251.119140625 185.180664062 266.71484375 208.266601562 c 0
 269.974609375 213.090820312 274.94140625 216.9765625 279.6875 220.540039062 c 0
 295.943359375 232.743164062 312.791992188 232.684570312 325.999023438 217.254882812 c 0
 338.174804688 203.033203125 347.424804688 186.266601562 357.393554688 170.266601562 c 0
 358.495117188 168.501953125 356.814453125 162.982421875 354.791992188 161.607421875 c 0
 340.224609375 151.715820312 325.823242188 141.283203125 310.155273438 133.443359375 c 0
 301.751953125 129.240234375 290.99609375 129.344726562 281.216796875 128.365234375 c 0
 259.482421875 126.189453125 237.693359375 124.555664062 212.716796875 122.426757812 c 1
508.284179688 147.771484375 m 1
 492.127929688 61.7578125 449.041015625 16.35546875 373.072265625 -2.1494140625 c 0
 364.994140625 -4.1171875 360.938476562 -2.75390625 360.958984375 6.03515625 c 0
 360.970703125 11.6708984375 360.370117188 17.37890625 361.017578125 22.9423828125 c 0
 363.341796875 42.83203125 365.306640625 44.87890625 384.669921875 47.92578125 c 0
 418.455078125 53.23828125 443.806640625 72.609375 465.791015625 97.0830078125 c 0
 479.970703125 112.873046875 493.107421875 129.590820312 508.284179688 147.771484375 c 1
265.072265625 -16.8251953125 m 1
 223.07421875 -41.1220703125 160.684570312 -25.9970703125 109.356445312 13.2734375 c 1
 125.874023438 26.7080078125 140.745117188 41.3291015625 140.213867188 63.0791015625 c 1
 160.139648438 48.3359375 179.065429688 32.7392578125 199.57421875 19.6064453125 c 0
 220.203125 6.3935546875 242.40625 -4.3603515625 265.072265625 -16.8251953125 c 1
EndSplineSet
EndChar

StartChar: s
Encoding: 115 115 35
Width: 618
VWidth: 0
Flags: W
HStem: -2.14941 50.0752<361.453 426.761> 62.082 9.71582<371.72 372.949> 133.443 95.8545<279.242 320.913> 146.022 10<379.881 434.041> 168.404 10.001<450.029 452.078> 173.515 10<385.565 448.36> 310.952 9.97461<401.499 466.848> 333.943 10<521.899 552.792> 396.651 10<164.478 180.515> 420.278 10<318.477 350.127> 451.89 10.001<314.125 329.464> 641.045 20G<320.262 328.254>
VStem: 103.636 9.66113<285.455 421.213> 143.988 9.99023<282.207 376.206> 240.648 9.99512<302.92 338.962> 487.86 9.85742<336.68 393.319>
LayerCount: 2
Fore
SplineSet
439.889648438 311.041992188 m 0xcbff
 438.76171875 311.041992188 437.602539062 311.024414062 436.44140625 310.987304688 c 0
 436.263671875 310.98046875 436.048828125 310.966796875 435.833007812 310.952148438 c 2
 435.803710938 310.950195312 l 1
 435.7734375 310.948242188 l 2
 410.658203125 309.329101562 386.8359375 303.840820312 364.96875 294.634765625 c 0
 343.10546875 285.4296875 322.537109375 272.232421875 303.833984375 255.407226562 c 0
 303.798828125 255.374023438 303.762695312 255.341796875 303.7265625 255.309570312 c 1
 344.205078125 246.9921875 363.508789062 232.044921875 378.73828125 199.674804688 c 0
 385.239257812 185.850585938 389.009765625 183.514648438 397.040039062 183.514648438 c 0xc7ff
 398.641601562 183.514648438 400.438476562 183.641601562 402.381835938 183.893554688 c 0
 404.724609375 184.197265625 407.198242188 184.349609375 409.731445312 184.349609375 c 0
 418.265625 184.349609375 426.634765625 182.659179688 434.728515625 181.022460938 c 0
 440.067382812 179.943359375 445.109375 178.922851562 450.029296875 178.40234375 c 2
 450.040039062 178.405273438 l 2
 450.672851562 178.405273438 451.537109375 178.615234375 452.104492188 178.825195312 c 0
 466.009765625 200.022460938 479.712890625 223.170898438 486.510742188 248.89453125 c 0
 491.712890625 268.576171875 490.146484375 284.583007812 481.98046875 295.188476562 c 0
 473.994140625 305.559570312 459.439453125 311.041992188 439.889648438 311.041992188 c 0xcbff
439.889648438 321.04296875 m 1
 486.54296875 321.04296875 508.393554688 292.547851562 496.178710938 246.338867188 c 0
 489.038085938 219.3203125 475.002929688 195.424804688 459.791015625 172.311523438 c 0
 458.232421875 169.94921875 453.533203125 168.404296875 450.0390625 168.404296875 c 0xcbff
 449.668945312 168.404296875 449.3125 168.421875 448.974609375 168.45703125 c 0
 435.874023438 169.845703125 422.524414062 174.349609375 409.731445312 174.349609375 c 0
 407.694335938 174.349609375 405.671875 174.236328125 403.666992188 173.9765625 c 0
 401.275390625 173.666992188 399.078125 173.514648438 397.041015625 173.514648438 c 0
 382.451171875 173.514648438 376.3046875 181.350585938 369.689453125 195.41796875 c 0
 353.458984375 229.91796875 333.083984375 241.5078125 284.26171875 248.5078125 c 1
 289.331054688 254.1953125 292.837890625 258.965820312 297.146484375 262.840820312 c 0
 336.396484375 298.150390625 382.416015625 317.529296875 435.130859375 320.926757812 c 0
 435.462890625 320.951171875 435.794921875 320.969726562 436.126953125 320.982421875 c 0
 437.401367188 321.0234375 438.650390625 321.04296875 439.889648438 321.04296875 c 1
336.16796875 420.278320312 m 0
 331.956054688 420.278320312 327.381835938 419.236328125 322.568359375 417.181640625 c 0
 310.868164062 412.182617188 301.923828125 406.954101562 295.227539062 401.196289062 c 0
 284.98046875 392.385742188 275.009765625 382.66796875 265.368164062 373.26953125 c 0
 258.915039062 366.98046875 252.243164062 360.4765625 245.466796875 354.21875 c 0
 242.692382812 351.65625 242.182617188 350.258789062 242.091796875 349.77734375 c 0
 241.91796875 348.848632812 242.509765625 347.127929688 243.715820312 345.0546875 c 0
 248.323242188 337.141601562 250.848632812 328.297851562 250.643554688 320.793945312 c 0
 250.223632812 305.370117188 258.786132812 295.825195312 273.71875 284.549804688 c 2
 273.80078125 284.48828125 l 2
 275.3359375 283.325195312 277.245117188 281.876953125 278.981445312 279.897460938 c 0
 278.991210938 279.884765625 279.000976562 279.875 279.009765625 279.864257812 c 0
 279.34375 280.09765625 279.754882812 280.407226562 280.250976562 280.813476562 c 0
 310.424804688 305.564453125 340.409179688 322.873046875 371.916015625 333.728515625 c 0
 373.990234375 334.443359375 375.221679688 335.079101562 375.9140625 335.51171875 c 2
 375.829101562 336.274414062 l 2
 372.798828125 363.428710938 369.889648438 384.120117188 360.009765625 403.114257812 c 0
 354.083984375 414.502929688 346.0625 420.278320312 336.16796875 420.278320312 c 0
336.16796875 430.278320312 m 1
 349.80078125 430.278320312 361.220703125 422.452148438 368.881835938 407.727539062 c 0
 379.854492188 386.633789062 382.854492188 363.493164062 385.768554688 337.381835938 c 0
 387.596679688 331.309570312 383.674804688 327.201171875 375.174804688 324.2734375 c 0
 342.393554688 312.977539062 313.28125 294.970703125 286.592773438 273.080078125 c 0
 283.625976562 270.649414062 281.04296875 269.262695312 278.552734375 269.262695312 c 0
 276.188476562 269.262695312 273.907226562 270.513671875 271.463867188 273.302734375 c 0
 270.377929688 274.541992188 269.017578125 275.565429688 267.693359375 276.569335938 c 0
 252.8046875 287.810546875 240.075195312 300.009765625 240.6484375 321.065429688 c 0
 240.821289062 327.380859375 238.321289062 334.448242188 235.075195312 340.024414062 c 0
 229.9375 348.849609375 231.515625 354.944335938 238.68359375 361.565429688 c 0
 255.529296875 377.124023438 271.341796875 393.845703125 288.708984375 408.778320312 c 0
 297.366210938 416.220703125 308.052734375 421.853515625 318.642578125 426.377929688 c 0
 324.77734375 428.999023438 330.654296875 430.278320312 336.16796875 430.278320312 c 1
323.821289062 642.850585938 m 1
 319.796875 636.930664062 316.24609375 631.658203125 312.904296875 626.231445312 c 0
 297.673828125 601.501953125 283.6875 578.404296875 270.145507812 555.6171875 c 0
 267.813476562 551.693359375 267.771484375 548.927734375 269.983398438 545.052734375 c 0
 273.736328125 538.47265625 276.994140625 531.677734375 280.142578125 525.107421875 c 0
 283.21484375 518.696289062 286.1171875 512.641601562 289.430664062 506.791992188 c 0
 297.85546875 491.9140625 306.725585938 477.63671875 315.795898438 464.358398438 c 0
 317.038085938 462.538085938 319.595703125 461.890625 321.576171875 461.890625 c 0
 323.768554688 461.890625 325.837890625 462.6484375 326.848632812 463.819335938 c 0
 330.287109375 467.80078125 333.741210938 471.76953125 337.194335938 475.739257812 c 0
 348.548828125 488.786132812 360.2890625 502.276367188 371.1171875 515.96484375 c 0
 373.036132812 518.390625 374.397460938 523.360351562 373.973632812 526.390625 c 0
 369.578125 557.776367188 356.536132812 586.215820312 338.3046875 619.26171875 c 0
 334.002929688 627.065429688 329.056640625 634.741210938 323.821289062 642.850585938 c 1
324.056640625 661.044921875 m 1
 332.451171875 647.651367188 340.376953125 636.212890625 347.061523438 624.091796875 c 0
 363.811523438 593.731445312 379.002929688 562.58984375 383.877929688 527.776367188 c 0
 384.682617188 522.022460938 382.564453125 514.317382812 378.959960938 509.759765625 c 0
 364.733398438 491.775390625 349.413085938 474.65625 334.420898438 457.28515625 c 0
 331.337890625 453.711914062 326.47265625 451.889648438 321.576171875 451.889648438 c 0
 316.141601562 451.889648438 310.666992188 454.133789062 307.538085938 458.716796875 c 0
 297.995117188 472.690429688 289.068359375 487.134765625 280.728515625 501.862304688 c 0
 273.689453125 514.287109375 268.373046875 527.692382812 261.298828125 540.09375 c 0
 257.044921875 547.544921875 257.658203125 554.177734375 261.548828125 560.724609375 c 0
 275.6328125 584.423828125 289.931640625 608 304.388671875 631.474609375 c 0
 310.116210938 640.772460938 316.466796875 649.681640625 324.056640625 661.044921875 c 1
236.559570312 539.280273438 m 1
 236.389648438 539.051757812 236.220703125 538.82421875 236.051757812 538.596679688 c 0
 228.850585938 528.932617188 221.404296875 518.94140625 214.455078125 508.952148438 c 0
 198.712890625 486.319335938 187.665039062 463.919921875 180.678710938 440.474609375 c 0
 180.376953125 439.461914062 180.204101562 438.768554688 180.104492188 438.297851562 c 0
 180.107421875 438.296875 180.109375 438.294921875 180.11328125 438.293945312 c 0
 197.26171875 427.922851562 212.041992188 413.764648438 225.1875 395.095703125 c 1
 245.772460938 417.983398438 267.024414062 434.33203125 290.796875 445.547851562 c 1
 270.041992188 474.4921875 249.568359375 504.607421875 236.559570312 539.280273438 c 1
237.8828125 557.849609375 m 1
 238.946289062 557.6328125 240.0078125 557.41796875 241.069335938 557.203125 c 0
 253.86328125 514.2890625 279.330078125 478.505859375 306.188476562 441.283203125 c 1
 272.990234375 428.361328125 247.467773438 406.611328125 224.975585938 379.559570312 c 1
 222.6171875 382.204101562 220.725585938 383.889648438 219.358398438 385.924804688 c 0
 207.5078125 403.543945312 193.1796875 418.704101562 174.936523438 429.736328125 c 0
 168.846679688 433.419921875 169.444335938 437.787109375 171.094726562 443.330078125 c 0
 178.776367188 469.111328125 190.962890625 492.689453125 206.24609375 514.662109375 c 0
 216.43359375 529.306640625 227.3125 543.470703125 237.8828125 557.849609375 c 1
413.599609375 146.022460938 m 0xd3ff
 382.354492188 146.022460938 353.1875 133.340820312 332.302734375 110.9453125 c 0
 333.994140625 109.170898438 335.672851562 107.405273438 337.327148438 105.666992188 c 0
 348.072265625 94.373046875 358.220703125 83.7060546875 368.961914062 73.263671875 c 0
 369.620117188 72.673828125 371.719726562 71.8388671875 372.94921875 71.7978515625 c 0
 393.908203125 77.712890625 411.451171875 85.248046875 426.568359375 94.8271484375 c 0
 443.030273438 105.256835938 456.3046875 117.88671875 467.108398438 133.407226562 c 1
 450.174804688 141.68359375 431.857421875 146.022460938 413.599609375 146.022460938 c 0xd3ff
413.599609375 156.022460938 m 1
 436.223632812 156.022460938 459.385742188 149.936523438 480.71484375 137.450195312 c 0
 479.286132812 134.71484375 478.079101562 131.739257812 476.3125 129.140625 c 0
 451.795898438 93.06640625 416.111328125 73.5380859375 375.338867188 62.0810546875 c 0
 374.643554688 61.8857421875 373.8671875 61.7958984375 373.040039062 61.7958984375 c 0
 369.264648438 61.7958984375 364.473632812 63.6796875 361.991210938 66.0927734375 c 0
 347.255859375 80.4169921875 333.280273438 95.51953125 318.802734375 110.58984375 c 1
 342.583007812 140.450195312 377.407226562 156.022460938 413.599609375 156.022460938 c 1
415.353515625 516.497070312 m 1
 402.819335938 501.865234375 l 1
 358.770507812 450.447265625 l 1
 387.099609375 434.459960938 396.720703125 406.750976562 404.0078125 379.3984375 c 0
 406.197265625 371.182617188 407.956054688 362.754882812 409.432617188 355.500976562 c 0
 409.559570312 354.877929688 409.673828125 354.2578125 409.78515625 353.64453125 c 0
 409.79296875 353.600585938 409.80078125 353.555664062 409.80859375 353.510742188 c 0
 410.004882812 353.541992188 410.159179688 353.575195312 410.276367188 353.603515625 c 0
 410.416015625 353.939453125 410.6328125 354.573242188 410.853515625 355.672851562 c 0
 416.3671875 383.135742188 422.196289062 410.997070312 427.833007812 437.940429688 c 0
 430.411132812 450.26171875 432.989257812 462.583984375 435.546875 474.91015625 c 0
 435.641601562 475.373046875 435.754882812 475.861328125 435.87109375 476.361328125 c 0
 435.911132812 476.53125 435.95703125 476.728515625 436.002929688 476.9296875 c 0
 429.397460938 489.8671875 422.56640625 502.8203125 415.353515625 516.497070312 c 1
417.337890625 534.18359375 m 1
 427.560546875 514.747070312 436.869140625 497.276367188 445.846679688 479.638671875 c 0
 446.725585938 477.91015625 445.799804688 475.103515625 445.338867188 472.876953125 c 0
 437.096679688 433.155273438 428.642578125 393.473632812 420.659179688 353.701171875 c 0
 419.208984375 346.49609375 416.044921875 343.727539062 408.763671875 343.373046875 c 0
 408.477539062 343.359375 408.203125 343.3515625 407.935546875 343.3515625 c 0
 400.708007812 343.3515625 400.666992188 348.426757812 399.634765625 353.505859375 c 0
 398.044921875 361.314453125 396.396484375 369.126953125 394.345703125 376.82421875 c 0
 386.482421875 406.341796875 376.380859375 434.358398438 342.595703125 446.935546875 c 1
 367.642578125 476.171875 391.705078125 504.26171875 417.337890625 534.18359375 c 1
302.543945312 219.297851562 m 0
 297.40625 219.297851562 291.578125 216.961914062 285.689453125 212.54296875 c 0
 281.393554688 209.317382812 277.342773438 206.135742188 275 202.66796875 c 0
 259.890625 180.301757812 244.96875 157.197265625 230.538085938 134.852539062 c 2
 229.922851562 133.901367188 l 2
 231.125976562 134 232.32421875 134.09765625 233.514648438 134.197265625 c 0
 249.741210938 135.53515625 265.067382812 136.797851562 280.219726562 138.315429688 c 0
 282.346679688 138.528320312 284.499023438 138.692382812 286.580078125 138.848632812 c 0
 293.873046875 139.403320312 300.760742188 139.924804688 305.6796875 142.385742188 c 0
 318.236328125 148.668945312 330.41015625 157.022460938 342.181640625 165.099609375 c 0
 343.739257812 166.166992188 345.293945312 167.235351562 346.850585938 168.297851562 c 0
 345.428710938 170.612304688 344.020507812 172.928710938 342.64453125 175.194335938 c 0
 334.856445312 188.014648438 327.5 200.124023438 318.400390625 210.751953125 c 0
 313.547851562 216.422851562 308.211914062 219.297851562 302.543945312 219.297851562 c 0
302.543945312 229.297851562 m 1xe3ff
 310.96484375 229.297851562 318.994140625 225.436523438 325.999023438 217.254882812 c 0
 338.174804688 203.033203125 347.424804688 186.266601562 357.393554688 170.266601562 c 0
 358.495117188 168.501953125 356.814453125 162.982421875 354.791992188 161.607421875 c 0
 340.224609375 151.715820312 325.823242188 141.283203125 310.155273438 133.443359375 c 0
 301.751953125 129.240234375 290.99609375 129.344726562 281.216796875 128.365234375 c 0
 259.482421875 126.189453125 237.693359375 124.555664062 212.716796875 122.426757812 c 1
 216.44140625 129.754882812 218.280273438 134.305664062 220.89453125 138.352539062 c 0
 236.01171875 161.758789062 251.119140625 185.180664062 266.71484375 208.266601562 c 0
 269.974609375 213.090820312 274.94140625 216.9765625 279.6875 220.540039062 c 0
 287.322265625 226.272460938 295.086914062 229.297851562 302.543945312 229.297851562 c 1xe3ff
212.904296875 273.029296875 m 0
 206.688476562 273.029296875 200.766601562 269.634765625 195.302734375 262.935546875 c 0
 188.08984375 254.099609375 182.424804688 243.849609375 176.427734375 232.998046875 c 0
 173.787109375 228.219726562 171.056640625 223.279296875 168.180664062 218.466796875 c 0
 167.905273438 218.005859375 167.760742188 217.680664062 167.685546875 217.483398438 c 0
 167.888671875 217.150390625 168.405273438 216.439453125 169.61328125 215.330078125 c 0
 184.333007812 201.806640625 196.677734375 185.258789062 206.408203125 166.029296875 c 1
 219.443359375 192.075195312 235.293945312 216.48828125 253.65625 238.78515625 c 0
 252.8828125 239.775390625 252.110351562 240.768554688 251.337890625 241.763671875 c 0
 244.513671875 250.548828125 238.069335938 258.84375 230.388671875 265.322265625 c 0
 224.407226562 270.364257812 218.360351562 273.029296875 212.904296875 273.029296875 c 0
212.904296875 283.029296875 m 1
 220.767578125 283.029296875 228.91796875 279.641601562 236.834960938 272.965820312 c 0
 246.850585938 264.521484375 254.7890625 253.5 262.977539062 243.1015625 c 0
 264.489257812 241.1796875 264.024414062 235.625 262.299804688 233.546875 c 0
 240.450195312 207.2265625 222.611328125 178.481445312 208.586914062 147.317382812 c 0
 208.228515625 146.524414062 207.206054688 146.024414062 205.909179688 144.868164062 c 1
 204.491210938 147.403320312 203.051757812 149.540039062 202.034179688 151.860351562 c 0
 192.698242188 173.171875 180.009765625 192.19921875 162.84765625 207.96484375 c 0
 157.607421875 212.778320312 155.8984375 217.41015625 159.595703125 223.59765625 c 0
 168.763671875 238.938476562 176.370117188 255.55859375 187.553710938 269.258789062 c 0
 195.087890625 278.4921875 203.803710938 283.029296875 212.904296875 283.029296875 c 1
171.213867188 396.651367188 m 0
 167.284179688 396.651367188 163.5078125 392.067382812 161.110351562 384.390625 c 0
 157.060546875 371.413085938 154.727539062 356.26171875 153.978515625 338.072265625 c 0
 153.13671875 317.65625 155.625976562 297.58984375 160.122070312 275.55078125 c 1
 171.806640625 291.970703125 185.985351562 302.424804688 203.3359375 307.44140625 c 0
 205.5078125 308.069335938 207.823242188 308.541992188 210.060546875 309 c 0
 211.493164062 309.29296875 213.538085938 309.711914062 215.119140625 310.1328125 c 0
 214.801757812 312.58984375 213.716796875 316.321289062 213.116210938 318.383789062 c 0
 212.67578125 319.89453125 212.220703125 321.458984375 211.82421875 323.008789062 c 0
 205.798828125 346.556640625 199.1796875 369.20703125 184.549804688 387.498046875 c 0
 179.965820312 393.23046875 174.98046875 396.651367188 171.213867188 396.651367188 c 0
171.213867188 406.651367188 m 1
 178.002929688 406.651367188 185.465820312 402.36328125 192.360351562 393.745117188 c 0
 208.350585938 373.752929688 215.313476562 349.717773438 221.512695312 325.489257812 c 0
 223.309570312 318.466796875 226.758789062 310.034179688 224.375976562 304.392578125 c 0
 222.668945312 300.345703125 212.560546875 299.697265625 206.114257812 297.833984375 c 0
 188.2109375 292.658203125 175.440429688 281.055664062 165.578125 265.779296875 c 0
 162.602539062 261.172851562 159.83203125 256.43359375 155.694335938 249.6796875 c 1
 148.251953125 280.494140625 142.779296875 309.189453125 143.98828125 338.482421875 c 0
 144.6640625 354.896484375 146.69921875 371.775390625 151.565429688 387.369140625 c 0
 155.568359375 400.196289062 162.883789062 406.651367188 171.213867188 406.651367188 c 1
467.235351562 468.126953125 m 1
 465.299804688 452.138671875 463.165039062 435.823242188 460.107421875 419.790039062 c 0
 456.391601562 400.315429688 451.272460938 380.81640625 446.322265625 361.958984375 c 0
 445.130859375 357.418945312 443.916015625 352.794921875 442.713867188 348.140625 c 1
 444.439453125 347.9609375 446.208984375 347.716796875 447.991210938 347.369140625 c 0
 449.75 347.026367188 451.518554688 346.696289062 453.291015625 346.366210938 c 0
 461.98046875 344.747070312 470.965820312 343.073242188 479.637695312 339.692382812 c 2
 480.583007812 339.323242188 l 2
 483.111328125 338.3359375 485.682617188 337.33203125 487.860351562 336.5390625 c 1
 487.869140625 339.172851562 487.795898438 342.403320312 487.72265625 345.577148438 c 2
 487.721679688 345.635742188 l 1
 487.708984375 346.170898438 l 2
 487.68359375 347.2734375 487.66015625 348.315429688 487.604492188 349.3046875 c 0
 485.3828125 388.030273438 478.541015625 427.924804688 467.235351562 468.126953125 c 1
464.505859375 504.880859375 m 1
 466.966796875 499.237304688 469.978515625 493.759765625 471.799804688 487.915039062 c 0
 485.815429688 442.920898438 494.885742188 396.9765625 497.588867188 349.860351562 c 0
 497.663085938 348.528320312 497.686523438 347.196289062 497.717773438 345.864257812 c 0
 498.06640625 330.624023438 498.203125 324.987304688 492.912109375 324.987304688 c 0
 489.685546875 324.987304688 484.44140625 327.08203125 476.002929688 330.374023438 c 0
 466.524414062 334.0703125 456.145507812 335.586914062 446.072265625 337.553710938 c 0
 440.622070312 338.619140625 434.951171875 338.547851562 430.055664062 338.939453125 c 1
 437.033203125 366.986328125 445.016601562 394.06640625 450.283203125 421.6640625 c 0
 455.481445312 448.915039062 457.927734375 476.690429688 461.583984375 504.233398438 c 0
 462.556640625 504.447265625 463.533203125 504.666015625 464.505859375 504.880859375 c 1
551.53125 333.943359375 m 0
 542.971679688 333.943359375 534.704101562 332.014648438 525.951171875 329.973632812 c 0
 524.521484375 329.640625 523.094726562 329.307617188 521.666992188 328.984375 c 0
 520.86328125 328.80078125 520.282226562 328.627929688 519.87109375 328.483398438 c 0
 519.916992188 327.838867188 520.051757812 326.82421875 520.40625 325.307617188 c 0
 523.76953125 310.873046875 525.706054688 296.95703125 526.221679688 283.576171875 c 1
 528.553710938 291.952148438 532.404296875 300.34375 537.889648438 309.196289062 c 0
 542.422851562 316.51171875 547.748046875 325.155273438 552.869140625 333.78515625 c 0
 552.895507812 333.83203125 552.923828125 333.877929688 552.951171875 333.924804688 c 1
 552.479492188 333.936523438 552.006835938 333.943359375 551.53125 333.943359375 c 0
524.2421875 249.268554688 m 1
 519.255859375 218.349609375 505.478515625 190.833984375 482.973632812 166.956054688 c 1
 484.123046875 167.72265625 485.573242188 168.775390625 487.318359375 170.107421875 c 0
 494.178710938 175.337890625 499.543945312 180.374023438 503.7265625 185.505859375 c 0
 518.19921875 203.26171875 525.0859375 224.68359375 524.2421875 249.268554688 c 1
551.53125 343.943359375 m 1
 556.89453125 343.943359375 562.446289062 343.293945312 568.26953125 341.637695312 c 1
 565.41796875 336.170898438 563.625 332.318359375 561.46875 328.680664062 c 0
 556.538085938 320.372070312 551.479492188 312.141601562 546.389648438 303.926757812 c 0
 537.475585938 289.544921875 532.171875 274.912109375 533.776367188 256.989257812 c 0
 536.315429688 228.708007812 529.932617188 201.829101562 511.479492188 179.188476562 c 0
 506.284179688 172.813476562 499.94921875 167.161132812 493.385742188 162.157226562 c 0
 487.497070312 157.663085938 483.981445312 155.446289062 480.322265625 155.446289062 c 0
 476.508789062 155.446289062 472.5390625 157.852539062 465.568359375 162.59765625 c 1
 466.448242188 163.860351562 467.134765625 165.321289062 468.228515625 166.34765625 c 0
 514.420898438 209.903320312 524.561523438 263.408203125 510.666992188 323.03515625 c 0
 508.428710938 332.623046875 510.616210938 336.727539062 519.452148438 338.736328125 c 0
 529.89453125 341.108398438 540.306640625 343.943359375 551.53125 343.943359375 c 1
119.236328125 421.212890625 m 1
 120.510742188 402.053710938 118.538085938 382.961914062 113.296875 363.3671875 c 0
 107.244140625 340.73828125 107.40234375 319.5078125 113.78125 298.463867188 c 0
 115.728515625 292.032226562 118.239257812 285.680664062 121.333007812 279.368164062 c 1
 116.154296875 319.46484375 118.551757812 356.48828125 128.518554688 391.651367188 c 0
 129.069335938 393.590820312 129.197265625 396.016601562 128.8515625 397.990234375 c 0
 127.377929688 406.421875 124.139648438 413.852539062 119.236328125 421.212890625 c 1
105.934570312 451.841796875 m 1
 122.0078125 435.831054688 135.03515625 420.693359375 138.703125 399.711914062 c 0
 139.309570312 396.239257812 139.104492188 392.318359375 138.139648438 388.922851562 c 0
 124.045898438 339.204101562 126.821289062 289.614257812 138.877929688 240.05078125 c 0
 139.331054688 238.188476562 139.706054688 236.3046875 140.116210938 234.43359375 c 1
 106.510742188 272.576171875 90.1318359375 315.462890625 103.635742188 365.951171875 c 0
 110.303710938 390.877929688 111.463867188 415.73828125 106.602539062 440.998046875 c 0
 106.069335938 443.776367188 106.229492188 446.68359375 105.934570312 451.841796875 c 1
389.673828125 582.5703125 m 1
 393.068359375 573.509765625 396.502929688 564.345703125 400.001953125 555.0078125 c 1
 400.216796875 555.305664062 400.43359375 555.60546875 400.651367188 555.905273438 c 2
 403.684570312 560.084960938 l 1
 405.704101562 562.868164062 l 1
 400.880859375 569.776367188 395.54296875 576.334960938 389.673828125 582.5703125 c 1
366.517578125 615.860351562 m 1
 397.779296875 593.470703125 420.791015625 565.083984375 434.731445312 529.463867188 c 1
 427.387695312 537.381835938 420.044921875 545.297851562 411.779296875 554.213867188 c 1
 406.904296875 547.495117188 402.927734375 542.012695312 397.166015625 534.077148438 c 1
 386.458984375 562.651367188 376.491210938 589.254882812 366.517578125 615.860351562 c 1
301.884765625 -6.7548828125 m 0
 256.35546875 -6.4150390625 223.15625 9.8193359375 194.514648438 36.1435546875 c 0
 183.517578125 46.25390625 174.06640625 58.0185546875 163.577148438 68.703125 c 0
 157.517578125 74.875 159.489257812 78.4296875 165.997070312 82.45703125 c 0
 187.938476562 96.0478515625 212.295898438 102.754882812 237.209960938 107.622070312 c 0
 253.201171875 110.747070312 269.391601562 113.079101562 285.602539062 114.708007812 c 0
 290.184570312 115.168945312 296.283203125 113.197265625 299.735351562 110.141601562 c 0
 319.891601562 92.3056640625 338.365234375 72.640625 344.205078125 45.3828125 c 0
 346.626953125 34.0712890625 344.830078125 21.7578125 344.248046875 9.9326171875 c 0
 343.888671875 2.609375 338.669921875 -1.1298828125 331.755859375 -2.2431640625 c 0
 319.948242188 -4.1376953125 308.103515625 -5.8212890625 301.884765625 -6.7548828125 c 0
53.1083984375 340.13671875 m 0
 59.5146484375 334.353515625 67.669921875 329.642578125 71.9921875 322.584960938 c 0
 83.4140625 303.928710938 93.5078125 284.428710938 103.462890625 264.924804688 c 0
 108.7421875 254.576171875 112.552734375 243.482421875 117.16796875 232.787109375 c 0
 123.091796875 219.069335938 131.123046875 207.380859375 144.91015625 199.927734375 c 0
 150.84375 196.720703125 156.5859375 191.564453125 160.162109375 185.873046875 c 0
 174.09375 163.708984375 187.125 140.974609375 201.05859375 117.498046875 c 1
 196.400390625 114.727539062 193.79296875 112.844726562 190.921875 111.529296875 c 0
 178.217773438 105.705078125 165.036132812 100.783203125 152.805664062 94.107421875 c 0
 142.061523438 88.244140625 134.639648438 90.990234375 126.28125 98.6025390625 c 0
 92.947265625 128.954101562 75.056640625 166.908203125 69.796875 211.141601562 c 0
 68.34765625 223.321289062 68.357421875 235.680664062 67.76171875 247.961914062 c 0
 66.2724609375 278.749023438 66.328125 309.806640625 50 337.897460938 c 0
 51.03515625 338.642578125 52.07421875 339.390625 53.1083984375 340.13671875 c 0
318.802734375 110.590820312 m 1
 357.447265625 159.114257812 425.263671875 169.911132812 480.71484375 137.451171875 c 0
 479.286132812 134.715820312 478.079101562 131.740234375 476.3125 129.141601562 c 0
 451.795898438 93.0673828125 416.111328125 73.5390625 375.338867188 62.08203125 c 0
 371.474609375 60.99609375 365.017578125 63.1533203125 361.991210938 66.09375 c 0
 347.255859375 80.41796875 333.280273438 95.521484375 318.802734375 110.590820312 c 1
212.716796875 122.426757812 m 1
 216.44140625 129.754882812 218.279296875 134.305664062 220.89453125 138.352539062 c 0
 236.01171875 161.758789062 251.119140625 185.180664062 266.71484375 208.266601562 c 0
 269.974609375 213.090820312 274.94140625 216.9765625 279.6875 220.540039062 c 0
 295.943359375 232.743164062 312.791992188 232.684570312 325.999023438 217.254882812 c 0
 338.174804688 203.033203125 347.424804688 186.266601562 357.393554688 170.266601562 c 0
 358.495117188 168.501953125 356.814453125 162.982421875 354.791992188 161.607421875 c 0
 340.224609375 151.715820312 325.823242188 141.283203125 310.155273438 133.443359375 c 0
 301.751953125 129.240234375 290.99609375 129.344726562 281.216796875 128.365234375 c 0
 259.482421875 126.189453125 237.693359375 124.555664062 212.716796875 122.426757812 c 1
205.91015625 144.868164062 m 1
 204.4921875 147.403320312 203.052734375 149.540039062 202.03515625 151.860351562 c 0
 192.69921875 173.171875 180.010742188 192.19921875 162.848632812 207.96484375 c 0
 157.608398438 212.778320312 155.899414062 217.41015625 159.596679688 223.59765625 c 0
 168.764648438 238.938476562 176.37109375 255.55859375 187.5546875 269.258789062 c 0
 201.59765625 286.469726562 219.75390625 287.364257812 236.8359375 272.965820312 c 0
 246.8515625 264.521484375 254.790039062 253.5 262.978515625 243.1015625 c 0
 264.490234375 241.1796875 264.025390625 235.625 262.30078125 233.546875 c 0
 240.451171875 207.2265625 222.61328125 178.481445312 208.587890625 147.317382812 c 0
 208.229492188 146.524414062 207.20703125 146.024414062 205.91015625 144.868164062 c 1
508.284179688 147.771484375 m 1
 492.127929688 61.7578125 449.041015625 16.35546875 373.072265625 -2.1494140625 c 0
 364.994140625 -4.1171875 360.938476562 -2.75390625 360.958984375 6.03515625 c 0
 360.970703125 11.6708984375 360.370117188 17.37890625 361.017578125 22.9423828125 c 0
 363.341796875 42.83203125 365.306640625 44.87890625 384.669921875 47.92578125 c 0
 418.455078125 53.23828125 443.806640625 72.609375 465.791015625 97.0830078125 c 0
 479.970703125 112.873046875 493.107421875 129.590820312 508.284179688 147.771484375 c 1
265.072265625 -16.8251953125 m 1
 223.07421875 -41.1220703125 160.684570312 -25.9970703125 109.356445312 13.2734375 c 1
 125.874023438 26.7080078125 140.745117188 41.3291015625 140.213867188 63.0791015625 c 1
 160.139648438 48.3359375 179.065429688 32.7392578125 199.57421875 19.6064453125 c 0
 220.203125 6.3935546875 242.40625 -4.3603515625 265.072265625 -16.8251953125 c 1
EndSplineSet
EndChar

